<svg enable-background="new 0 0 249.06 402.88" viewBox="0 0 249.06 402.88" xmlns="http://www.w3.org/2000/svg"><path d="m156.78 376.43c-1.43-.99-3.27-1.25-4.56-2.5-1.63-1.58-2.96-3.38-3.75-5.51-.2-.53-.48-.8-.89-1.08-.67.7-.43 1.67-.79 2.44-.08.17-.02.53.11.64 1.63 1.38 3.11 2.91 4.59 4.44.66.68 1.7.78 2.62 1 .29.07.66.08.44.56-1.3 0-2.6 0-3.9 0-1.55-.57-2.58-1.98-4.11-2.68-.11 1.06.62 1.78.77 2.68-.74 0-1.49 0-2.23 0 .02-.13.07-.28.04-.4-1.44-5.87-.61-10.26 2.86-15.06.16-.22.3-.46.44-.69 1.46-2.55 3.09-4.98 4.87-7.31 1.94-2.53 3.87-5.05 5.4-7.86 1.5-2.75 2.46-5.73 3.68-8.61.96-2.27 1.71-4.63 2.41-6.97 1.32-4.43 2.42-8.94 3.46-13.44.6-2.58 1.34-5.14 1.4-7.85.06-2.43.46-4.87.89-7.27.4-2.21-.07-4.38-.03-6.56.03-1.87-.52-3.74-.63-5.61-.17-2.75-.95-5.35-1.95-7.86-1.84-4.65-4.42-8.89-7.34-12.94-1.7-2.36-3.62-4.53-5.76-6.5-.83-.77-1.5-1.01-2.26.2-.75 1.21-1.71 2.31-2.65 3.38-2.62 2.98-5.46 5.75-8.27 8.55-3.38 3.37-6.95 6.53-11.02 9.01-4.79 2.92-9.88 5.34-15.15 7.31-2.8 1.05-5.65 1.65-8.15-.79-1.42-1.38-2.25-3.11-2.98-4.93-2.82-6.98-2.35-14.28-2.04-21.54.05-1.21-.04-1.93-1.19-2.36-.34-.13-.63-.4-.96-.56-3.52-1.66-6.62-4.03-9.9-6.1-.86-.54-1.08-.41-1.56.19-1.01 1.26-1.97 2.58-3.09 3.74-5.13 5.32-10.09 10.85-16.64 14.57-2.95 1.68-5.39 1.12-6.63-1.59-2.25-4.94-3.02-10.17-3.35-15.51-.16-2.61-.41-5.22-.47-7.83-.06-2.48-.73-4.89-.64-7.38.11-3.19-.07-6.38.25-9.57.45-4.46.64-8.95 1.22-13.39.6-4.54.8-9.15 2.04-13.6.12-.42.06-.73-.32-.95-2.03-1.19-3.1-3.25-4.47-5.02-2.12-2.74-4.03-5.65-4.75-9.1-.61-2.95-.59-5.95-.41-8.96.28-4.49.69-8.95 1.56-13.39.57-2.94 1.36-5.81 2.21-8.65 1.68-5.58 3.58-11.09 5.28-16.67.96-3.16 2.7-6.01 3.47-9.23.44-1.87 1.57-3.44 2.07-5.28.49-1.8 1.01-3.6 1.71-5.32.83-2.04 1.93-3.96 2.81-5.98 1.47-3.39 3.86-5.45 7.64-5.84.64-.07 1.59-.08 1.92-.86.36-.85.6-1.77.74-2.69.28-1.81.88-3.57 1.58-5.19 1.26-2.9 2.43-5.86 4.98-8.1 1.47-1.29 2.82-1.97 4.62-1.48.87.24 1.08-.06 1.22-.73.71-3.31 1.96-6.46 3.57-9.39 4.1-7.45 8.6-14.68 13.75-21.45 2.61-3.43 5.48-6.78 9.39-8.93 2.61-1.43 5.5-2.11 8.29-3.05.88-.3 1.23-.66 1.24-1.62.06-3.29.2-6.58.38-9.86.03-.61-.09-1-.49-1.46-.62-.72-1.36-1.44-1.57-2.39-.46-2.18.19-4.21 1.07-6.17.92-2.04 4.93-3.44 6.7-2.27 2.88 1.92 3.54 4.85 2 8.04-.29.59-.35.91-.03 1.45 2.03 3.45 4.19 6.84 5.99 10.41 1.06 2.1 2.3 3.31 4.73 2.92.18-.03.37.02.55.06 6.11 1.54 12.23 2.99 17.89 5.94 4.11 2.15 8.4 3.94 12.46 6.2 3.3 1.84 6.45 3.93 9.37 6.28 2.39 1.92 4.75 3.93 6.91 6.17 3.56 3.68 6.94 7.46 9.33 12.01 2.23 4.24 4.1 8.62 5.11 13.36 1 4.7 1.98 9.36 1.52 14.2-.12 1.28.02 2.57-.18 3.86-.5 3.14-1.41 6.18-1.97 9.29-.63 3.5-2 6.63-3.94 9.5-3.52 5.22-7.96 9.69-12.13 14.38-.6.68-.69 1.27-.2 1.78 1.44 1.48 1.42 3.35 1.44 5.15.04 3.05-2.13 5.21-4.07 5.83-.82.27-1.97-.17-2.48.56-.51.74.26 1.65.36 2.5.62 5.22.04 10.41-.42 15.61-.17 1.85-.75 3.63.29 5.63.96 1.86 1.36 4.07 2.18 6.07 1.41 3.42 2.36 6.98 3.4 10.51.67 2.29 1.26 4.6 1.73 6.94.5 2.5.73 5.06 1.24 7.56.54 2.67-1.08 5.89-3.61 6.8-1.31.47-2.66.59-4.05.64-3.56.13-6.93-.63-10.13-2.09-2.13-.97-2.04-1.02-2.9 1.22-1.09 2.83-2.25 5.66-3.61 8.37-2.41 4.81-4.91 9.57-7.85 14.1-1.09 1.69-.98 1.9.51 3.21 1.97 1.73 3.76 3.64 5.38 5.72 2.24 2.87 4.4 5.78 6.47 8.77.67.97 1.01 2.17 2.07 2.96.63.47.57 1.76 1.83 1.7.05 0 .08.43.2.61.62 1.02.13 2.29.76 3.29 2.75 4.37 4.5 9.16 5.91 14.09 1.35 4.7 2.41 9.47 3.12 14.31.87 5.94 1.34 11.91 1.16 17.93-.12 4.26-.35 8.52-.72 12.75-.52 5.97-2.46 11.66-4.43 17.31-.53 1.52-1.15 3.01-1.71 4.52-.57 1.53-1.15 3.07-1.69 4.61-.48 1.38-1.38 2.55-1.96 3.9-1.9 4.48-4.96 8.14-8.63 11.31-2.26 1.95-4.93 3.26-7.38 4.94-2.85-.01-5.73-.01-8.61-.01zm-35.72-262.67c-.1-.2-.26-.27-.47-.2-.36-.04-.73-.08-1.09-.12-.12-.2-.29-.26-.51-.17-.19-.04-.38-.07-.57-.11-1.01-.76-1.67-.56-2.05.68-.17.55-.49 1.05-.75 1.57-.07.07-.1.15-.07.25-.23.26-.62.51-.5.87.11.36.54.16.83.19l.13.02.05-.06c.11.08.21.17.32.25l.3.06c.55.09 1.11.18 1.66.27.56.09 1.12.19 1.68.28.45.02.9.05 1.35.07.32.24.67.29 1.04.16.29.03.58.07.87.1.52.39 1.17.31 1.75.48.28.02.55.04.83.05.28.06.55.12.83.18.27.04.55.09.82.13.1.05.19.1.29.15.45.05.9.1 1.35.14.13.2.31.25.53.15l.33.06c.36.19.7.44 1.15.27.54.17 1.06.44 1.66.35.13.23.34.24.57.21l.09.08.12-.02c.14.2.32.25.54.15.31.03.61.06.92.09.52.57 1.22.6 1.92.61l-.01-.01c.11.05.21.11.32.16.18.03.35.06.53.09.19.36.55.25.85.29l-.01-.01c.03.18.15.21.3.17.18.04.36.07.54.11.31.31 2.4-2.31 2.63-2.18l2.66 1.63c.16.15-14.36-1.06-19.62-1.94-2.98-.5-5.97-.99-8.96-1.44-1.86-.28-2.3-.03-2.82 1.81-.73 2.59-2.54 4.59-3.62 6.98-.07.16-.24.29-.37.41-1.43 1.27-1.43 1.27.26 2.22 6.41 3.59 13.2 6.39 19.99 9.14 4.38 1.78 8.84 3.54 13.49 4.43 4.78.91 9.52 2.03 14.27 3.08 4.79 1.06 9.66 1.53 14.53 2.06 2.39.26 4.78.43 7.19.51.35.01.92.28.75-.52-.5-2.36.77-4.44 1.1-6.67.18-1.18.48-2.33.98-3.43.43-.96.26-1.59-1.02-1.95-2.19-.61-4.37-1.4-6.57-1.89-2.18-.48-4.21-1.34-6.36-1.85-.33-.08-.99.07-.81-.63.14-.57.57-.55 1.1-.45 4.34.85 8.5 2.29 12.66 3.72.49.17 1.15.83 1.43-.02.24-.74.65-1.82-.75-2.13-2.12-.46-4.24-.94-6.36-1.41-2.59-.58-5.19-1.16-7.92-1.77.77-.66 1.53-.73 2.36-.59 3.59.61 7.2 1.12 10.62 2.48.54.21 1.17.14 1.74.39.73.31 1.14-.03 1.16-.82.01-.46.02-.93.07-1.39.06-.55-.17-.71-.7-.76-3.78-.37-7.56-.76-11.34-1.16-.94-.1-1.88-.24-3.15-.4 1.03-.56 1.81-.59 2.63-.57 3.74.09 7.44.62 11.14 1.14 1.81.25 1.84.22 1.9-1.64.07-2.22 1.02-4.29.98-6.55-.04-2.12.3-4.27-.78-6.26-.15-.27-.07-.5-.03-.78.32-2.23 1.31-4.25 1.91-6.39.42-1.52.51-3.12.79-4.95-1.44 1.48-2.47 2.94-3.11 4.62-.35.94-1.11 1.68-1.24 2.74-.05.4-.46.91-.99.76-.44-.12-.51-.56-.38-1.04.08-.29-.05-.63-.09-.94.03-.09.07-.19.1-.28-.11 0-.22 0-.32.01-.14 0-.45.14-.3-.17 1.67-3.41 2.81-7.14 5.93-9.66.67-.54.35-1.29.29-1.91-.05-.49-.47-.16-.75-.05-1.59.61-2.87 1.75-4.31 2.62-2.12 1.28-4.13 2.75-6.16 4.17-.46.32-.86.45-1.41.29-2.84-.8-5.67-1.65-8.4-2.75-4.19-1.7-8.41-3.28-12.66-4.8-1.46-.53-2.95-.97-4.43-1.46-1.25-.41-1.95-1.5-2.4-2.53-1.96-4.51-4.84-8.37-8.08-11.99-.15-.17-.26-.38-.4-.56-.13-.17-.28-.33-.58-.46.28 1.27.46 2.53.51 3.8.1 2.7.7 5.39.17 8.11-.08.43-.33.75-.42 1.15-.09.37-.03 1.05-.54.94-.44-.1-1.01-.44-1.05-1.13-.11-2.02-.51-4.01-.58-6.04-.07-2-.77-3.84-1.62-5.63-.88.37-1.03 1.09-1.34 1.7-1.36 2.65-2.89 5.21-3.9 8.05-.86 2.4-1.41 4.89-1.9 7.36-.39 1.99-1.59 3.49-2.31 5.25-.58 1.42-1.5 2.72-2.53 3.91-.53.62-.39.9.43 1.25 4.04 1.69 8.26 3.02 12.09 5.16 3.31 1.85 6.71 3.57 9.76 5.86.76.57 1.63 1 2.4 1.56.47.34.75.8-.19.94-1.82-.5-3.28-1.7-4.88-2.61-3.14-1.78-6.08-3.86-9.37-5.44-3-1.45-6.1-2.61-9.11-4-.62-.28-1.3-.42-1.95-.63-.28-.09-.47-.13-.67.22-.72 1.23-1.49 2.44-2.26 3.64-.35.55-.21.82.4.97 3.02.76 6.04 1.54 9.06 2.3 5.51 1.39 10.95 3.02 16.04 5.61.57.29 1.05.73 1.58 1.1-.03.28.24.63-.2.81-.25-.43-.81-.24-1.12-.56-.12-.3-.36-.25-.59-.21-.92-.7-1.94-1.2-3.07-1.43h-.01c-.36-.1-.72-.21-1.09-.31-.19-.09-.37-.18-.56-.27-.14-.26-.36-.19-.57-.13-.18-.04-.36-.09-.55-.13-.09-.05-.18-.1-.27-.14-.11-.04-.22-.08-.32-.12-.08-.05-.16-.1-.23-.15-.39-.06-.65-.51-1.11-.39-1.74-.73-3.44-1.58-5.32-1.9-.11-.02-.22-.04-.33-.06-.07-.05-.14-.11-.21-.16-.23-.19-.5-.2-.78-.16-.11-.05-.23-.1-.34-.15-.19-.01-.37-.03-.56-.04-.87-.47-1.73-1-2.8-.81-.12-.02-.24-.05-.36-.07-.06-.05-.12-.1-.18-.15-.28-.05-.56-.1-.85-.15-.08-.24-.25-.27-.46-.21-.43-.33-.91-.44-1.44-.37-.11-.07-.23-.13-.34-.2-.02.03-.07 0-.07 0zm-15.24 147.54c-.7-.15-.81.05-.85.62-.08 1.34-.15 2.68-.27 4.01-.06.66.32.86.82 1.1 3.92 1.94 7.93 3.57 12.24 4.46 4.34.89 8.66 1.85 13.03 2.57 1.47.24 2.97.02 4.42.39.63.16 1.04-.29 1.46-.64 3.03-2.58 5.79-5.43 8.56-8.28 1.9-1.95 3.84-3.89 5.42-6.06 1.71-2.35 3.39-4.75 5.2-7.01 2.21-2.77 3.87-5.9 6.14-8.61.36-.43.4-.91.59-1.35 1.51-3.4 3.53-6.51 5.34-9.74 2.16-3.85 3.87-7.9 5.56-11.96 1.58-3.77 3.15-7.56 4.43-11.42.95-2.86 1.72-5.84 2.54-8.77.96-3.45 2.1-6.86 2.68-10.4.85-5.21 2.15-10.35 2.62-15.64.3-3.41.45-6.82.53-10.23.02-1.01-.17-2.02-.23-3.04-.04-.63-.42-.75-.93-.77-3.74-.21-7.48-.4-11.22-.65-.81-.05-1.62-.28-2.41-.47-3.98-.96-8.04-1.43-12.06-2.16-4.52-.82-9.08-1.44-13.55-2.54-4.24-1.04-8.49-2.02-12.71-3.12-4.76-1.24-9.32-3.07-13.9-4.84-4.44-1.71-8.44-4.28-12.66-6.42-4.33-2.2-8.69-4.38-12.32-7.7-.86-.79-1.48-.46-2.1.22-3 3.27-5.32 7.01-7.17 11-1.86 4.01-3.8 7.98-5.87 11.89-2.28 4.29-4.07 8.79-5.78 13.31-1.99 5.24-3.56 10.62-4.95 16.06-2.04 7.98-4.18 15.93-5.48 24.07-.61 3.82-.96 7.68-1.33 11.53-.51 5.24-1.21 10.47-1.21 15.76 0 .65.19 1.12.65 1.69 2.85 3.54 6.89 5.35 10.66 7.55 2.64 1.53 5.42 2.82 8.03 4.39 1.92 1.16 4.09 1.61 6.05 2.59.47.23.58-.18.75-.38 2.39-2.84 4.84-5.64 6.77-8.84.57-.95 1.49-1.65 1.9-2.71.1-.27.36-.38.54-.21.31.28.83.41.7 1.05-.22 1.1-.57 2.15-1.18 3.08-1.15 1.78-2.29 3.57-3.55 5.27-.43.58-.39.87.14 1.2 3.84 2.35 7.59 4.91 11.85 6.43 3.32 1.18 6.87 1.21 10.37 1.18.95-.01 1.91.07 2.88-.13s1.63.67 1.63 2.03c0 .84-.58 1.23-1.36 1.25-1.21.03-2.41.01-3.62.01-2.61.09-5.22-.08-7.79-.62zm84.18-192.03c-2.99-2.53-5.94-5.07-9.25-7.15-3.71-2.33-7.57-4.37-11.62-6.07-2.37-1-4.68-2.16-7.03-3.21-2.84-1.26-5.81-2.04-8.79-2.82-4.25-1.11-8.6-1.58-12.98-1.45-3.82.12-7.57.67-11.2 2.02-1.45.54-2.99.91-4.48 1.39-5.13 1.67-8.69 5.37-11.92 9.4-3.07 3.82-5.77 7.92-8.27 12.15-1.69 2.85-3.68 5.52-5.18 8.49-1.89 3.75-3.49 7.61-4.24 11.77-1.31 7.28-1.29 14.54.21 21.79.33 1.58 1.04 3.03 1.65 4.52.12.3.3.51.62.69 1.21.68 2.35 1.48 3.37 2.42.56.51.78.48 1.05-.38 1.74-5.63 2.85-11.42 4.56-17.05 2.18-7.2 4.54-14.34 6.94-21.46 2.21-6.55 3.82-13.27 5.21-20.04.16-.77.36-1.54.64-2.27.75-1.97 1.7-2.41 3.69-1.78 1.8.57 3.75.73 5.46 1.38 7.51 2.84 15.47 4.05 23.06 6.61 5.4 1.82 10.95 3.25 16.34 5.11 7.87 2.71 15.74 5.44 23.61 8.17 4.08 1.41 7.99 3.3 12.48 4.57-3.71-6.66-8.36-12.08-13.93-16.8zm-.42 87.61c1.62-.77 2.67-4.13 1.71-5.59-.2-.3-.5-.22-.75-.17-3.29.66-6.55.28-9.86.02-3.04-.24-6.11-.31-9.14-.65-4.6-.52-9.22-.97-13.75-2.02-4.82-1.12-9.72-1.88-14.54-3.02-3.71-.88-7.27-2.31-10.88-3.52-5.74-1.93-11.21-4.5-16.77-6.86-6.15-2.61-11.53-6.45-16.84-10.42-1.1-.82-2.29-1.52-3.42-2.29-.3-.2-.67-.42-.81-.73-.18-.4-.38-.88-.78-.83-.27.04-.52.56-.67.91-1.22 2.88-.17 6.14 2.07 8.35 3.32 3.28 7.42 5.28 11.43 7.41 3.34 1.78 6.43 3.97 9.94 5.44 6.6 2.76 13.21 5.42 20.23 7 5.66 1.28 11.24 2.89 16.97 3.86 4.58.77 9.22 1.2 13.77 2.1 5.1 1.01 10.25 1.4 15.41 1.83.14.01.28.02.51.04 1.99-.38 4.17.1 6.17-.86zm-8.57 185.1c-3.83.51-7.57.14-11.09-1.32-1.44-.6-2.94-1.43-4.07-2.67-.47-.52-.84-.49-1.07.25-.15.48-.43.91-.6 1.38-.25.7-.33 1.25.37 1.91 1.19 1.12 1.81 2.71 2.89 3.99 1.86 2.21 4.19 2.63 6.85 2.62 4.12-.01 7.22-2.12 10.19-4.6.52-.43.79-1.02 1.07-1.59.46-.92.38-1.01-.75-1.02-1.27.3-2.46.88-3.79 1.05zm4.38-26.71c-2.45.98-4.91 1.81-7.62 1.93-1.76.08-3.53.18-5.3.24-1.93.06-2.83 2.07-1.97 3.8.65 1.32 1.78 1.74 3.01 1.99 3.02.6 5.68-.69 8.29-1.9 2.59-1.2 4.63-3.17 6.49-5.31 1.14-1.31 1.16-1.29 1.03-3.29-1.36 1.01-2.52 1.97-3.93 2.54zm-124.57-69.87c.27.81 1.45 1.32 2.22 1.96 4.38 3.61 9.47 5.94 14.66 8.09.85.35 1.75.55 2.61.88 2.3.88 2.55.81 3.8-1.13-8.03-4.38-16.76-7.6-23.73-14.31.13 1.66-.01 3.18.44 4.51zm119.42 84.22c-3.26.47-6.55.26-9.64-1.15-.5-.23-1.03-.38-1.51-.63-.28-.15-.53-.45-.84-.15-.25.24-.23.57-.09.9 1.09 2.45 2.5 4.61 5.3 5.31 3.26.82 6.32.27 9.31-1.27 1.68-.87 3.36-1.65 4.88-2.82 1.47-1.12 1.33-2.52 1.09-4.32-2.48 2.5-5.4 3.68-8.5 4.13zm-13.18 35.25c-4.52.2-9.04-3.38-10.01-7.9-.18-.84-.62-1.61-.99-2.54-.38.44-.68.82-1.02 1.16-1.03 1.03-1.12 2.1-.64 3.52 1.29 3.77 3.6 6.64 7.03 8.62 1.31.76 2.75.62 4.19.51 2.32-.18 4.45-1.11 6.67-1.67.81-.2 1.76-.1 2.19-1.31-2.56.22-4.97-.5-7.42-.39zm-40.26-88.78c-4.13-.96-8.39-1.29-12.45-2.69-3.13-1.08-6.31-1.98-9.06-3.93-.49-.35-.88-.28-.87.46.01.79-.13 1.61.04 2.36.21.92 1.26.73 1.91 1.03 6.01 2.74 12.34 4.27 18.87 5.11 1.58.2 3.14.13 4.7.22 1.32.08 2.12-.83 3.19-1.91-2.37.05-4.39-.2-6.33-.65zm41.83 61.15c1.32 1.25 2.92 1.78 4.56 2.19 3 .74 6.03.66 9.01-.27 1.63-.51 3.18-1.16 4.51-2.26 1.23-1.02.68-2.56 1.24-3.84-1.56 1.21-3.4 1.71-5.07 2.5-3.36 1.59-6.87 1.7-10.47.49-2.33-.78-3.85-2.3-5.1-4.47-.91 1.24-1.08 2.7-1.66 4.12 1.38-.15 2.2.8 2.98 1.54zm-7.94 11.36c.74 2.63 1.76 5.15 3.69 7.15 1.34 1.39 3.25 1.93 4.98 2.16 3.14.42 6.38.32 9.23-1.39.98-.59 2.13-1.13 2.98-2.55-4.15.84-7.96 1.48-11.79.15-3.74-1.3-6.69-3.58-8.82-6.9-.68.43-.39.94-.27 1.38zm26.15-42.27c-2.04 1.66-4.29 3.01-6.44 4.5-1.69 1.17-3.75 1.56-5.74 1.73-1.03.09-1.71-1.01-2.28-2.05-.64 1.2-.58 2.37-.81 3.46-.1.49.14.62.61.63 4.28.17 8.48-.25 12.58-1.56 1.5-.48 2.58-1.58 3.77-2.51 1.52-1.19.58-2.83.72-4.27.06-.6-.16-1.23-.27-1.97-1.04.45-1.41 1.44-2.14 2.04zm-2.54 16.28c-3.44 1.98-6.95 3.79-11.11 3.1-1.62-.27-2.54-1.57-3.33-2.93-1.18 1.62-1.16 2.19.48 3.19 1.54.94 3.1 1.86 5.06 1.78 2.04-.09 4.07.23 6.11-.5 1.9-.68 3.55-1.64 5.1-2.88.7-.56 1.13-1.53 2.24-1.46.29.02.24-.23.26-.38.14-1.35.31-2.7.18-4.45-1.56 1.97-3.11 3.45-4.99 4.53zm-25.27 27.75c-.38-.03-.36.36-.51.54-.62.74-1.23 1.42-.1 2.35 1.1.89.78 2.39.98 3.58.29 1.7 1.55 3.71 3.2 4.28 3.61 1.24 7.33 1.7 11.13 1.41.09-.01.19 0 .28-.01 2.94-.12 2.94-.12 4.54-2.64-9.89 2.26-16.94.48-19.52-9.51zm21.92-46.66c-1.34.54-2.76.64-4.13.99-1.25.32-2.39.88-3.56 1.36-1.15.47-.86 1.54-.79 2.35.05.69 2.58 1.51 3.43 1.32 2.64-.6 4.74-2.21 6.89-3.71 1.94-1.35 3.66-2.94 5.12-4.81.52-.67.79-1.32.45-2.54-2.01 2.71-4.67 3.92-7.41 5.04zm-8.03-.56c-.05.61.3.63.82.48 3.65-1.11 7.32-2.14 10.56-4.29 1.22-.81 1.99-2.2 3.49-2.65.31-.09.12-.59.08-.89-.15-1.09-.32-2.18-.52-3.48-1.86 2.03-3.95 3.58-6.03 5.14-1.98 1.48-4.15 2.59-6.65 2.88-.57.07-1.24.22-1.42-.69-.48 1.19-.23 2.35-.33 3.5zm-111.7-51.99c-.01 1-.14 2.07 1.46 1.78.33-.06.58.24.81.48 1.93 2.02 4.44 3.12 6.91 4.28 1.95.92 3.98 1.68 5.73 3.01 1.08.81 3.29.06 3.77-1.16.22-.56-.22-.63-.55-.75-.99-.36-2.01-.65-2.98-1.05-3.79-1.6-7.55-3.22-10.95-5.61-1.39-.98-2.77-1.95-4.2-3.2.01.84.01 1.53 0 2.22zm124.16-38.84c2.24-1.15 4.46-2.4 6.88-3.18.51-.16.49-.45.41-.83-.1-.5-.18-1-.31-1.49-.2-.72-.41-1.12-1.29-.49-2.51 1.79-5.47 2.88-8.42 2.81-2.18-.05-2.19 1-2.59 2.32-.41 1.35-.9 2.68-1.35 4.02 1.92-1.75 4.51-2.05 6.67-3.16zm-123.54 46.82c.32 1.35 1.74 1.66 2.8 2.2 1.19.6 2.52.95 3.69 1.54 1.2.6 2.51.77 3.68 1.36 2.03 1.03 2.86.72 4.15-1.54-2.89-.3-5.22-1.76-7.56-3.26-2.25-1.44-5.01-2.03-7.14-4.35.13 1.51.09 2.82.38 4.05zm43.05 16.32c-.39 2.12.1 2.91 1.97 3.6 5.08 1.89 10.39 2.77 15.68 3.75 1.42.26 2.26-1.08 3.49-1.57-7.46-.5-14.46-2.56-21.14-5.78zm78.72-75.12c1.16-.37 2.18-.98 3.25-1.47.83-.38 1.54-1.16 2.65-.84.46.13.76-.29.62-.8-.91-3.51-1.86-7-3.29-10.34-.01-.03-.08-.04-.12-.07-.32.65-3 12.2-3.11 13.52zm-3.61 91.39c-.9.46-1.72 1.08-2.59 1.59-1.26.74-2.55 1.27-3.95 1.5-.81.13-.95.57-.69 1.15.35.75-.25 1.84.37 2.21.66.39 1.34-.58 2.08-.82 3.47-1.08 6.31-3.24 9.03-5.53 2.13-1.79 2.45-3.02 1.53-4.96-1.48 2.3-3.53 3.7-5.78 4.86zm-16.8 51.28c-.72.72-.99 1.32-.46 2.38 1.86 3.72 4.86 6.01 8.8 6.85 2.93.63 5.92.35 8.88-.53 1.81-.55 2.65-1.56 2.9-3.47-9.93 5.4-15.68 2.99-20.12-5.23zm-7.51-85.21c-.2.28-.64.61-.1.88.56.28.8 1.29 1.7.79 3.57-2.02 5.89-4.99 6.72-9.05.23-1.11-.08-2.1-1.09-2.98-2.07 3.75-4.81 6.94-7.23 10.36zm30.25-55.63c-.95.44-1.81 1.13-2.93 1.1-.27-.01-.51.11-.53.32-.11 1.23-1.02 2.27-.9 3.61 2.93-.76 5.83-1.4 8.51-2.85 1.11-.6 1.48-1.19 1.05-2.37-.24-.67-.32-1.41-.49-2.18-1.73.56-3.13 1.65-4.71 2.37zm-14.85 71.45c2.38-1.52 4.37-3.36 5.36-6.14.55-1.54.19-2.74-.87-3.96-1.1 3.33-3.45 5.66-5.83 7.96-.45.44-.89.96-1.6 1.05-.33.04-.5.26-.5.57.01.36.68 1.14-.48.66-.07-.03-.08.28.02.46.24.39.45.79.7 1.25 1.15-.66 2.2-1.22 3.2-1.85zm2.17-13.81c-1.78 2.2-3.21 4.18-5.07 5.81-1.09.95-2.25 1.8-3.57 2.33-1.24.5-.82 1.09-.29 1.71.47.55 1.12.96 1.16 1.86 3.56-3.28 7.78-5.87 7.77-11.71zm-.86 15.34c-1.11.58-2.01 1.61-3.38 1.7-.22.01-.48.2-.38.48.34.9.68 1.79 1.09 2.66.15.33.49.16.72.01 2.68-1.65 5.2-3.58 6.85-6.25.91-1.48 1.4-3.34 1.37-5.18-1.35 2.96-3.47 5.11-6.27 6.58zm1.71 12.39c2.79-1.95 5.51-4.02 7.8-6.58.62-.69.94-1.57 1.26-2.43.11-.28.1-.67-.24-.88-.33-.2-.54.03-.66.28-1.4 2.82-4.19 4.05-6.59 5.7-1.11.76-2.16 1.75-3.68 1.78-.42.01-.56.44-.43.77.29 2.54.56 2.75 2.54 1.36zm1.18 2.49c-.7.46-1.45 1.28-2.44.43-.13-.11-.42-.09-.43.15-.02.54-.08 1.12.08 1.62.1.32.61.17.88.05 1.56-.68 3.12-1.36 4.65-2.11 2.37-1.16 4.52-2.56 6.1-4.81 1.16-1.65 1.36-1.9.31-3.43-2.46 3.4-5.71 5.86-9.15 8.1zm-7.91-37.42c-.03-.47-.37-.83-.74-.9-.49-.1-.49.47-.59.78-1.25 3.73-3.56 6.59-6.92 8.61-.27.17-.51.32-.3.61.32.45.71.86 1.1 1.25.7.7.94-.25 1.28-.47 2.88-1.93 5.16-4.33 5.99-7.87.1-.45.06-.89.19-1.32-.01-.23.01-.46-.01-.69zm-4.78 12.43c-.35.27-.96.33-.42 1.11.44.62.78.68 1.33.37 1.28-.72 2.44-1.61 3.55-2.59 1.61-1.41 2.59-3.26 3.58-5.08.98-1.79.9-1.84-1.23-3.59-.86 4.32-3.55 7.25-6.81 9.78zm-4.36 103.52c-2.17-1.92-3.88-4.13-4.81-6.91-.1-.3-.23-.64-.46-.84-.4-.33-.36-1.51-1.09-.99-.6.43-1.24 1.53-.7 2.24 1.53 2.05 2.63 4.42 4.69 6.1 2.08 1.7 4.49 2.57 7 3.29.4.12.79.25 1.19.39 2.01.7 3.23.33 4.77-1.57-3.55 1.43-7.36 1.15-10.59-1.71zm-22.32-340.96c-.04-1.17-1.24-2.33-2.46-2.37-1.45-.05-3.63 2.49-3.61 4.18.01.76 1.91 1.9 3.11 1.86 1.31-.03 3.01-2.15 2.96-3.67zm47.06 190.68c2.24-1.14 4.57-2.11 6.85-3.17.96-.44 1.85-1.04 2.84-1.39 1.01-.35.73-1.11.53-1.63-.3-.79-.85-.12-1.24.04-3.15 1.25-5.99 3.18-9.26 4.23-.74.24-1.52 1.33-1.9 2.28.84.55 1.44.01 2.18-.36zm-10.41 63.82c-.37.25-.75.55-1.25.53-.65-.03-.44.35-.37.73.08.45.21.75.7.47 3.98-2.33 8.17-4.44 9.81-9.27.17-.51-.1-.77-.24-1.14s-.22-.76-.43-1.49c-1.52 4.7-4.59 7.67-8.22 10.17zm-65.66.64c3.03 1.14 6.21 1.81 9.23 2.99 1.11.43 2.17-.87 3.32-1.26-4.57-.84-9.03-1.89-13.52-3.05.11.67.38 1.1.97 1.32zm53.98 90.94c-2.23-.99-4.41-1.92-6.56-2.91-2.35-1.08-2.91-3.84-5.03-5.52.86 5.19 7.05 9.59 11.59 8.43zm-98.41-110.89c-.13.91-.06 1.5.83 1.93 1.35.66 2.66 1.42 3.92 2.24 2.3 1.5 2.74 1.47 4.65-.67-3.22-1.07-6.66-1.16-9.4-3.5zm76.2-220.6c.41-.1.91-.47.48-1.04-.38-.5-.21-1.63-1.35-1.31-1.54.44-3.07.94-4.65 1.24-.98.19-.5 1.03-.59 1.6-.1.68.4.58.81.58h.7c1.64.15 3.06-.7 4.6-1.07zm-1.75-5.12c-.44-.79-.91-1.49-1.24-2.24-.29-.69-.55-.85-1.34-.59-2.1.7-2.22.86-1.66 3.99 1.51-.34 2.89-.6 4.24-1.16zm56.58 179.46c-2.4 1.11-4.73 2.2-7.36 3.41 4.7.05 7.29-.58 7.36-3.41zm-129.31 52.71c.13.32.22.59.65.53.74-.1 1.8.29 2.08-.55.21-.61-.86-.75-1.35-1.1-.67-.49-1.44-.82-2.54-1.43.52 1.13.86 1.84 1.16 2.55zm77.46-223.65c-.71-1.51-.71-1.5-2.15-.89-.56.24-1.13.46-1.69.69.01.06.03.13.04.19 1.25.01 2.5.01 3.8.01zm-29.18 241.24c-1.31-.46-2.6-.53-3.76-1.09 1.17 1.37 2.32 1.69 3.76 1.09z" fill="#fff" stroke="#030405" stroke-miterlimit="10" stroke-width=".25"/><path d="m156.78 376.43c-1.43-.99-3.27-1.25-4.56-2.5-1.63-1.58-2.96-3.38-3.75-5.51-.2-.53-.48-.8-.89-1.08-.67.7-.43 1.67-.79 2.44-.08.17-.02.53.11.64 1.63 1.38 3.11 2.91 4.59 4.44.66.68 1.7.78 2.62 1 .29.07.66.08.44.56.75.01 1.49.01 2.23.01z" fill="#eb6525"/><path d="m150.66 376.43c-1.55-.57-2.58-1.98-4.11-2.68-.11 1.06.62 1.78.77 2.68z" fill="#f2f2f2"/><path d="m106.16 24.35c.93-.08 1.84-.2 2.72-.5 1.87-.65 3.06.01 3.32 1.97.15 1.17.7 2.18 1.11 3.24.48 1.24 1.46 1.16 2.51.49 2.7-1.73 4.62-4.48 7.61-5.81.26-.12.56-.35.42-.62-.28-.53-.66-1.07-1.34-1.06-.64.01-1.3.17-1.82.57-1.04.8-2.3 1.14-3.44 1.73-.77.4-1.17.18-1.58-.46-.66-1.05-1.39-2.06-2.05-3.11-.32-.5-.63-.59-1.24-.44-2.18.54-4.37 1.1-6.59 1.41-1.25.17-1.8 1.11-1.75 1.84.06.6 1.27.83 2.12.75z" fill="#121213"/><path d="m155.8 8.7c-.77.21-1.24.9-1.4 1.72-.21 1.08-1.15 1.64-1.59 2.56-.23.47-.95.21-1.34-.11-.87-.68-1.71-1.4-2.53-2.15-1.18-1.08-1.69-1.03-2.15.5-.43 1.45-.7 2.94-1.31 4.36-.28.64.36 1.38.97 1.71.67.36.79-.37 1-.8.24-.49.66-.99.67-1.49.04-1.45.58-1.48 1.51-.66.67.6 1.48 1.04 1.97 1.85.34.56 1.94.39 2.31-.35.85-1.68 1.75-3.32 2.87-4.84.49-.68-.21-2.3-.98-2.3z" fill="#121213"/><path d="m117.25 261.92c.79-.02 1.37-.4 1.36-1.25 0-1.37-.67-2.23-1.63-2.03-.97.2-1.93.12-2.88.13-3.5.03-7.05 0-10.37-1.18-4.26-1.52-8.01-4.09-11.85-6.43-.53-.32-.57-.61-.14-1.2 1.26-1.7 2.4-3.49 3.55-5.27.61-.94.96-1.98 1.18-3.08.13-.63-.39-.77-.7-1.05-.18-.17-.44-.06-.54.21-.41 1.06-1.33 1.76-1.9 2.71-1.92 3.2-4.38 5.99-6.77 8.84-.17.2-.29.61-.75.38-1.96-.98-4.14-1.43-6.05-2.59-2.61-1.58-5.39-2.86-8.03-4.39-3.77-2.19-7.81-4-10.66-7.55-.46-.57-.65-1.04-.65-1.69.01-5.28.7-10.51 1.21-15.76.37-3.85.72-7.71 1.33-11.53 1.29-8.14 3.44-16.09 5.48-24.07 1.39-5.44 2.96-10.82 4.95-16.06 1.72-4.52 3.5-9.03 5.78-13.31 2.07-3.9 4.01-7.87 5.87-11.89 1.85-3.99 4.17-7.74 7.17-11 .62-.68 1.24-1.01 2.1-.22 3.63 3.32 7.99 5.5 12.32 7.7 4.22 2.14 8.22 4.71 12.66 6.42 4.58 1.76 9.14 3.6 13.9 4.84 4.22 1.1 8.47 2.08 12.71 3.12 4.47 1.1 9.03 1.72 13.55 2.54 4.02.73 8.08 1.2 12.06 2.16.8.19 1.6.42 2.41.47 3.74.25 7.48.44 11.22.65.51.03.89.15.93.77.06 1.01.25 2.03.23 3.04-.08 3.41-.22 6.82-.53 10.23-.47 5.28-1.77 10.42-2.62 15.64-.58 3.54-1.72 6.95-2.68 10.4-.82 2.93-1.59 5.91-2.54 8.77-1.28 3.86-2.85 7.65-4.43 11.42-1.7 4.06-3.41 8.11-5.56 11.96-1.81 3.23-3.83 6.34-5.34 9.74-.19.44-.23.92-.59 1.35-2.26 2.71-3.93 5.84-6.14 8.61-1.81 2.26-3.49 4.66-5.2 7.01-1.58 2.17-3.52 4.12-5.42 6.06-2.78 2.85-5.54 5.7-8.56 8.28-.42.36-.83.8-1.46.64-1.45-.37-2.96-.15-4.42-.39-4.37-.72-8.69-1.68-13.03-2.57-4.31-.89-8.32-2.52-12.24-4.46-.49-.24-.88-.44-.82-1.1.12-1.33.19-2.67.27-4.01.03-.56.15-.76.85-.62 2.57.54 5.18.72 7.81.63 1.18-.01 2.39.01 3.6-.02zm33.75-53.71c1.76-1.63 3.87-2.88 4.26-5.79.43-3.19 1.61-6.28 2.44-9.43.84-3.17 2.46-6.29 1.81-9.64-.67-3.42-1.38-6.89-5.14-8.75-3.36-1.66-6.79-3.05-10.26-4.43-3.91-1.55-7.97-2.48-11.99-3.55-2.75-.73-2.98-.21-4.44 1.7-2.31 3.03-3.58 6.62-4.86 10.18-1.25 3.46-2.4 6.94-3.66 10.4-.48 1.33-.58 2.77-1.33 4.02-.33.56.3 1.11.48 1.67 1.36 4.16 4.07 7.04 8.25 8.4 4.31 1.41 8.53 3.05 12.94 4.16 2.82.71 5.6 1.35 8.51 1.37 1.03 0 2.26.36 2.99-.31zm-64.95-18.96c.93 3.03 3.27 5.2 6.55 4.4 2.03-.49 3.99-1.34 5.64-2.62 2.54-1.98 5.21-3.75 7.86-5.56 3.88-2.66 7.36-5.81 10.77-9.03 1.04-.98 2.08-1.95 3.13-2.92.57-.52.88-1.02.25-1.75-.71-.84-1.03-.13-1.49.26-1.37 1.17-2.89 2.19-4.1 3.5-1.37 1.48-2.93 1.74-4.6 1.08-1.56-.62-3.2-.74-4.77-1.28-5.6-1.91-10.99-4.15-15.2-8.52-.21-.22-.35-.34-.26-.68.89-3.43 1.83-6.85 3.24-10.12.11-.25.19-.52.28-.78.24-.63.1-1.27-.45-1.53-.67-.31-1.04.26-1.36.82-1.82 3.2-2.62 6.78-3.52 10.28-.91 3.56-1.85 7.14-2.22 10.82-.22 2.25-.36 4.5-.5 6.33.11 2.74.07 5.08.75 7.3z" fill="#a37bb5" stroke="#111110" stroke-miterlimit="10" stroke-width=".25"/><path d="m144.57 122.07c.45-.17.17-.53.2-.81.44-.34 1.08-.48 1.16-1.17.94-.14.66-.6.19-.94-.77-.56-1.64-.99-2.4-1.56-3.05-2.29-6.45-4.01-9.76-5.86-3.83-2.14-8.05-3.47-12.09-5.16-.82-.34-.96-.63-.43-1.25 1.03-1.19 1.95-2.49 2.53-3.91.72-1.77 1.92-3.27 2.31-5.25.48-2.47 1.03-4.95 1.9-7.36 1.02-2.84 2.54-5.4 3.9-8.05.31-.6.46-1.32 1.34-1.7.84 1.79 1.55 3.63 1.62 5.63.07 2.03.47 4.02.58 6.04.04.69.61 1.03 1.05 1.13.51.12.45-.57.54-.94.1-.4.34-.72.42-1.15.53-2.72-.07-5.41-.17-8.11-.05-1.27-.23-2.53-.51-3.8.3.12.45.28.58.46.14.18.25.39.4.56 3.25 3.63 6.12 7.48 8.08 11.99.44 1.03 1.15 2.12 2.4 2.53 1.48.49 2.97.93 4.43 1.46 4.25 1.53 8.48 3.11 12.66 4.8 2.73 1.11 5.56 1.96 8.4 2.75.55.15.96.03 1.41-.29 2.03-1.42 4.04-2.89 6.16-4.17 1.44-.87 2.71-2.01 4.31-2.62.28-.11.71-.44.75.05.06.63.39 1.37-.29 1.91-3.12 2.52-4.26 6.25-5.93 9.66-.15.31.16.17.3.17.07.09.15.18.22.27.04.32.16.66.09.94-.13.48-.06.92.38 1.04.53.15.94-.36.99-.76.13-1.06.89-1.8 1.24-2.74.63-1.68 1.67-3.14 3.11-4.62-.28 1.83-.37 3.43-.79 4.95-.6 2.14-1.59 4.16-1.91 6.39-.04.28-.12.51.03.78 1.08 1.99.73 4.14.78 6.26.05 2.26-.91 4.33-.98 6.55-.06 1.86-.09 1.89-1.9 1.64-3.7-.52-7.39-1.04-11.14-1.14-.83-.02-1.6.01-2.63.57 1.27.16 2.21.3 3.15.4 3.78.4 7.56.79 11.34 1.16.53.05.76.21.7.76-.05.46-.06.93-.07 1.39-.02.8-.44 1.14-1.16.82-.57-.25-1.21-.18-1.74-.39-3.42-1.37-7.03-1.88-10.62-2.48-.83-.14-1.59-.07-2.36.59 2.73.61 5.32 1.19 7.92 1.77 2.12.47 4.24.95 6.36 1.41 1.4.3 1 1.38.75 2.13-.28.85-.94.19-1.43.02-4.17-1.42-8.33-2.86-12.66-3.72-.54-.11-.96-.12-1.1.45-.18.7.48.55.81.63 2.15.51 4.19 1.36 6.36 1.85 2.2.49 4.38 1.28 6.57 1.89 1.28.36 1.45.99 1.02 1.95-.5 1.11-.8 2.25-.98 3.43-.33 2.23-1.6 4.3-1.1 6.67.17.81-.4.53-.75.52-2.4-.08-4.8-.25-7.19-.51-4.87-.52-9.73-1-14.53-2.06-4.75-1.05-9.48-2.17-14.27-3.08-4.66-.89-9.12-2.65-13.49-4.43-6.79-2.75-13.58-5.55-19.99-9.14-1.69-.95-1.69-.95-.26-2.22.14-.12.3-.25.37-.41 1.08-2.39 2.9-4.39 3.62-6.98.52-1.84 2.27-6.75 4.13-6.47 2.99.46 14.59 4.49 17.58 4.99 5.26.92 8.65 3.86 9.49 3.89zm15.17 3.49c.68-.29.52-1.09.13-1.66-.38-.56-.94-.87-1.59-1.05-1.22-.33-2.32-.89-3.28-1.71-.6-.52-1.18-.47-1.7.09-.5.54-.64 1.21-.15 1.76.54.61.6 1.08.29 1.85-.35.85.76 1.99 2.25 2.07 1.09-.36 2.62-.74 4.05-1.35zm5.18-4.54c.46.95.95.96 1.72.49.89-.55 1.8-2.79 1.61-3.7-.12-.55-.52-.64-.72-.87-1.95.18-3.33 2.58-2.61 4.08zm-16.71-7.86c-.03.95-1.19 1.87-.12 2.88.72.68 1.79.58 2.27-.4.36-.73.63-1.54.81-2.34s-.47-.98-1.15-1.19c-.38.76-1.78.02-1.81 1.05zm-1.8 8.31c-.48-.27-.7.05-1.08.42.6.15.86-.02 1.08-.42z" fill="#eb6525" stroke="#030405" stroke-miterlimit="10" stroke-width=".25"/><path d="m203.92 86.05c-3.7-6.64-8.35-12.06-13.93-16.78-2.99-2.53-5.94-5.07-9.25-7.15-3.71-2.33-7.57-4.37-11.62-6.07-2.37-1-4.68-2.16-7.03-3.21-2.84-1.26-5.81-2.04-8.79-2.82-4.25-1.11-8.6-1.58-12.98-1.45-3.82.12-7.57.67-11.2 2.02-1.45.54-2.99.91-4.48 1.39-5.13 1.67-8.69 5.37-11.92 9.4-3.07 3.82-5.77 7.92-8.27 12.15-1.69 2.85-3.68 5.52-5.18 8.49-1.89 3.75-3.49 7.61-4.24 11.77-1.31 7.28-1.29 14.54.21 21.79.33 1.58 1.04 3.03 1.65 4.52.12.3.3.51.62.69 1.21.68 2.35 1.48 3.37 2.42.56.51.78.48 1.05-.38 1.74-5.63 2.85-11.42 4.56-17.05 2.18-7.2 4.54-14.34 6.94-21.46 2.21-6.55 3.82-13.27 5.21-20.04.16-.77.36-1.54.64-2.27.75-1.97 1.7-2.41 3.69-1.78 1.8.57 3.75.73 5.46 1.38 7.51 2.84 15.47 4.05 23.06 6.61 5.4 1.82 10.95 3.25 16.34 5.11 7.87 2.71 15.74 5.44 23.61 8.17 4.08 1.4 7.98 3.29 12.48 4.55z" fill="#fff"/><path d="m183.42 157.76c1.98-.4 4.16.07 6.16-.88 1.62-.77 2.67-4.13 1.71-5.59-.2-.3-.5-.22-.75-.17-3.29.66-6.55.28-9.86.02-3.04-.24-6.11-.31-9.14-.65-4.6-.52-9.22-.97-13.75-2.02-4.82-1.12-9.72-1.88-14.54-3.02-3.71-.88-7.27-2.31-10.88-3.52-5.74-1.93-11.21-4.5-16.77-6.86-6.15-2.61-11.53-6.45-16.84-10.42-1.1-.82-2.29-1.52-3.42-2.29-.3-.2-.67-.42-.81-.73-.18-.4-.38-.88-.78-.83-.27.04-.52.56-.67.91-1.22 2.88-.17 6.14 2.07 8.35 3.32 3.28 7.42 5.28 11.43 7.41 3.34 1.78 6.43 3.97 9.94 5.44 6.6 2.76 13.21 5.42 20.23 7 5.66 1.28 11.24 2.89 16.97 3.86 4.58.77 9.22 1.2 13.77 2.1 5.1 1.01 10.25 1.4 15.41 1.83.15.03.29.04.52.06z" fill="#fff"/><path d="m184.81 340.93c-1.28.3-2.47.88-3.81 1.05-3.83.51-7.57.14-11.09-1.32-1.44-.6-2.94-1.43-4.07-2.67-.47-.52-.84-.49-1.07.25-.15.48-.43.91-.6 1.38-.25.7-.33 1.25.37 1.91 1.19 1.12 1.81 2.71 2.89 3.99 1.86 2.21 4.19 2.63 6.85 2.62 4.12-.01 7.22-2.12 10.19-4.6.52-.43.79-1.02 1.07-1.59.48-.92.4-1-.73-1.02z" fill="#f2f2f2"/><path d="m144.77 121.26c.44-.34 1.08-.48 1.16-1.17-1.82-.5-3.28-1.7-4.88-2.61-3.14-1.78-6.08-3.86-9.37-5.44-3-1.45-6.1-2.61-9.11-4-.62-.28-1.3-.42-1.95-.63-.28-.09-.47-.13-.67.22-.72 1.23-1.49 2.44-2.26 3.64-.35.55-.21.82.4.97 3.02.76 6.04 1.54 9.06 2.3 5.51 1.39 10.95 3.02 16.04 5.61.57.3 1.06.74 1.58 1.11z" fill="#eb6525"/><path d="m189.32 312.72c-1.35 1.02-2.52 1.99-3.93 2.55-2.45.98-4.91 1.81-7.62 1.93-1.76.08-3.53.18-5.3.24-1.93.06-2.83 2.07-1.97 3.8.65 1.32 1.78 1.74 3.01 1.99 3.02.6 5.68-.69 8.29-1.9 2.59-1.2 4.63-3.17 6.49-5.31 1.13-1.32 1.15-1.3 1.03-3.3z" fill="#f2f2f2"/><path d="m60.38 240.88c.13 1.66-.01 3.19.44 4.51.27.81 1.45 1.32 2.22 1.96 4.38 3.61 9.47 5.94 14.66 8.09.85.35 1.75.55 2.61.88 2.3.88 2.55.81 3.8-1.13-8.03-4.38-16.76-7.59-23.73-14.31z" fill="#eb6525"/><path d="m188.74 325.49c-2.48 2.5-5.39 3.68-8.5 4.12-3.26.47-6.55.26-9.64-1.15-.5-.23-1.03-.38-1.51-.63-.28-.15-.53-.45-.84-.15-.25.24-.23.57-.09.9 1.09 2.45 2.5 4.61 5.3 5.31 3.26.82 6.32.27 9.31-1.27 1.68-.87 3.36-1.65 4.88-2.82 1.47-1.11 1.33-2.51 1.09-4.31z" fill="#f2f2f2"/><path d="m174.47 365.27c-2.55.21-4.96-.5-7.41-.4-4.52.2-9.04-3.38-10.01-7.9-.18-.84-.62-1.61-.99-2.54-.38.44-.68.82-1.02 1.16-1.03 1.03-1.12 2.1-.64 3.52 1.29 3.77 3.6 6.64 7.03 8.62 1.31.76 2.75.62 4.19.51 2.32-.18 4.45-1.11 6.67-1.67.8-.2 1.75-.09 2.18-1.3z" fill="#f2f2f2"/><path d="m133.13 276.74c-2.38.05-4.4-.2-6.34-.65-4.13-.96-8.39-1.29-12.45-2.69-3.13-1.08-6.31-1.98-9.06-3.93-.49-.35-.88-.28-.87.46.01.79-.13 1.61.04 2.36.21.92 1.26.73 1.91 1.03 6.01 2.74 12.34 4.27 18.87 5.11 1.58.2 3.14.13 4.7.22 1.34.08 2.13-.83 3.2-1.91z" fill="#eb6525"/><path d="m165.63 335.7c1.4-.16 2.22.79 3 1.53 1.32 1.25 2.92 1.78 4.56 2.19 3 .74 6.03.66 9.01-.27 1.63-.51 3.18-1.16 4.51-2.26 1.23-1.02.68-2.56 1.24-3.84-1.56 1.21-3.4 1.71-5.07 2.5-3.36 1.59-6.87 1.7-10.47.49-2.33-.78-3.85-2.3-5.1-4.47-.92 1.26-1.09 2.71-1.68 4.13z" fill="#eb6525"/><path d="m160.98 347.23c-.69.41-.41.92-.28 1.37.74 2.63 1.76 5.15 3.69 7.15 1.34 1.39 3.25 1.93 4.98 2.16 3.14.42 6.38.32 9.23-1.39.98-.59 2.13-1.13 2.98-2.55-4.15.84-7.96 1.48-11.79.15-3.74-1.29-6.69-3.57-8.81-6.89z" fill="#f2f2f2"/><path d="m188.96 304.31c-1.03.44-1.39 1.43-2.13 2.02-2.04 1.66-4.29 3.01-6.44 4.5-1.69 1.17-3.75 1.56-5.74 1.73-1.03.09-1.71-1.01-2.28-2.05-.64 1.2-.58 2.37-.81 3.46-.1.49.14.62.61.63 4.28.17 8.48-.25 12.58-1.56 1.5-.48 2.58-1.58 3.77-2.51 1.52-1.19.58-2.83.72-4.27.05-.59-.16-1.22-.28-1.95z" fill="#eb6525"/><path d="m189.27 318.07c-1.55 1.98-3.09 3.46-4.97 4.54-3.44 1.98-6.95 3.79-11.11 3.1-1.62-.27-2.54-1.57-3.33-2.93-1.18 1.62-1.16 2.19.48 3.19 1.54.94 3.1 1.86 5.06 1.78 2.04-.09 4.07.23 6.11-.5 1.9-.68 3.55-1.64 5.1-2.88.7-.56 1.13-1.53 2.24-1.46.29.02.24-.23.26-.38.12-1.35.29-2.7.16-4.46z" fill="#eb6525"/><path d="m178.55 359.87c-9.89 2.26-16.94.48-19.53-9.51-.38-.03-.36.36-.51.54-.62.74-1.23 1.42-.1 2.35 1.1.89.78 2.39.98 3.58.29 1.7 1.55 3.71 3.2 4.28 3.61 1.24 7.33 1.7 11.13 1.41.09-.01.19 0 .28-.01 2.95-.13 2.95-.13 4.55-2.64z" fill="#eb6525"/><path d="m188.35 298.65c-2 2.72-4.65 3.93-7.4 5.04-1.34.54-2.76.64-4.13.99-1.25.32-2.39.88-3.56 1.36-1.15.47-.86 1.54-.79 2.35.05.69 2.58 1.51 3.43 1.32 2.64-.6 4.74-2.21 6.89-3.71 1.94-1.35 3.66-2.94 5.12-4.81.51-.67.78-1.32.44-2.54z" fill="#f2f2f2"/><path d="m173.25 299.62c-.47 1.21-.23 2.38-.33 3.52-.05.61.3.63.82.48 3.65-1.11 7.32-2.14 10.56-4.29 1.22-.81 1.99-2.2 3.49-2.65.31-.09.12-.59.08-.89-.15-1.09-.32-2.18-.52-3.48-1.86 2.03-3.95 3.58-6.03 5.14-1.98 1.48-4.15 2.59-6.65 2.88-.58.05-1.25.2-1.42-.71z" fill="#eb6525"/><path d="m61.23 248.92v2.24c-.01 1-.14 2.07 1.46 1.78.33-.06.58.24.81.48 1.93 2.02 4.44 3.12 6.91 4.28 1.95.92 3.98 1.68 5.73 3.01 1.08.81 3.29.06 3.77-1.16.22-.56-.22-.63-.55-.75-.99-.36-2.01-.65-2.98-1.05-3.79-1.6-7.55-3.22-10.95-5.61-1.39-1-2.77-1.98-4.2-3.22z" fill="#f2f2f2"/><path d="m178.7 215.47c1.93-1.75 4.51-2.05 6.68-3.17 2.24-1.15 4.46-2.4 6.88-3.18.51-.16.49-.45.41-.83-.1-.5-.18-1-.31-1.49-.2-.72-.41-1.12-1.29-.49-2.51 1.79-5.47 2.88-8.42 2.81-2.18-.05-2.19 1-2.59 2.32-.41 1.37-.9 2.69-1.36 4.03z" fill="#f2f2f2"/><path d="m61.47 255.08c.12 1.51.08 2.82.37 4.05.32 1.35 1.74 1.66 2.8 2.2 1.19.6 2.52.95 3.69 1.54 1.2.6 2.51.77 3.68 1.36 2.03 1.03 2.86.72 4.15-1.54-2.89-.3-5.22-1.76-7.56-3.26-2.23-1.45-5-2.04-7.13-4.35z" fill="#eb6525"/><path d="m126.02 281.22c-7.45-.5-14.45-2.55-21.14-5.78-.39 2.12.1 2.91 1.97 3.6 5.08 1.89 10.39 2.77 15.68 3.75 1.42.27 2.26-1.07 3.49-1.57z" fill="#f2f2f2"/><path d="m186.74 186.81c-.34.65-3.02 12.2-3.12 13.52 1.16-.37 2.18-.98 3.25-1.47.83-.38 1.54-1.16 2.65-.84.46.13.76-.29.62-.8-.91-3.51-1.86-7-3.29-10.34-.01-.04-.07-.05-.11-.07z" fill="#a37bb5" stroke="#111110" stroke-miterlimit="10" stroke-width=".25"/><path d="m185.79 286.86c-1.49 2.29-3.54 3.7-5.79 4.85-.9.46-1.72 1.08-2.59 1.59-1.26.74-2.55 1.27-3.95 1.5-.81.13-.95.57-.69 1.15.35.75-.25 1.84.37 2.21.66.39 1.34-.58 2.08-.82 3.47-1.08 6.31-3.24 9.03-5.53 2.14-1.78 2.46-3.01 1.54-4.95z" fill="#f2f2f2"/><path d="m183.32 348.23c-9.93 5.4-15.69 2.99-20.12-5.23-.72.72-.99 1.32-.46 2.38 1.86 3.72 4.86 6.01 8.8 6.85 2.93.63 5.92.35 8.88-.53 1.81-.55 2.65-1.56 2.9-3.47z" fill="#eb6525"/><path d="m162.92 247.42c-2.07 3.76-4.81 6.95-7.22 10.37-.2.28-.64.61-.1.88.56.28.8 1.29 1.7.79 3.57-2.02 5.89-4.99 6.72-9.05.22-1.12-.09-2.11-1.1-2.99z" fill="#f2f2f2"/><path d="m190.65 199.79c-1.73.56-3.13 1.64-4.71 2.37-.95.44-1.81 1.13-2.93 1.1-.27-.01-.51.11-.53.32-.11 1.23-1.02 2.27-.9 3.61 2.93-.76 5.83-1.4 8.51-2.85 1.11-.6 1.48-1.19 1.05-2.37-.24-.67-.32-1.4-.49-2.18z" fill="#eb6525"/><path d="m167.91 275.45c1.14-.65 2.19-1.2 3.18-1.84 2.38-1.52 4.37-3.36 5.36-6.14.55-1.54.19-2.74-.87-3.96-1.1 3.33-3.45 5.66-5.83 7.96-.45.44-.89.96-1.6 1.05-.33.04-.5.26-.5.57.01.36.68 1.14-.48.66-.07-.03-.08.28.02.46.26.38.47.78.72 1.24z" fill="#eb6525"/><path d="m165.49 271.5c3.56-3.27 7.78-5.86 7.77-11.7-1.78 2.2-3.21 4.18-5.07 5.81-1.09.95-2.25 1.8-3.57 2.33-1.24.5-.82 1.09-.29 1.71.47.55 1.11.95 1.16 1.85z" fill="#f2f2f2"/><path d="m178.67 268.56c-1.35 2.96-3.47 5.11-6.27 6.58-1.11.58-2.01 1.61-3.38 1.7-.22.01-.48.2-.38.48.34.9.68 1.79 1.09 2.66.15.33.49.16.72.01 2.68-1.65 5.2-3.58 6.85-6.25.91-1.48 1.4-3.34 1.37-5.18z" fill="#f2f2f2"/><path d="m171.58 286.17c.28 2.54.55 2.74 2.53 1.35 2.79-1.95 5.51-4.02 7.8-6.58.62-.69.94-1.57 1.26-2.43.11-.28.1-.67-.24-.88-.33-.2-.54.03-.66.28-1.4 2.82-4.19 4.05-6.59 5.7-1.11.76-2.16 1.75-3.68 1.78-.41.02-.55.46-.42.78z" fill="#f2f2f2"/><path d="m184.45 281.93c-2.47 3.39-5.72 5.85-9.16 8.09-.7.46-1.45 1.28-2.44.43-.13-.11-.42-.09-.43.15-.02.54-.08 1.12.08 1.62.1.32.61.17.88.05 1.56-.68 3.12-1.36 4.65-2.11 2.37-1.16 4.52-2.56 6.1-4.81 1.16-1.63 1.36-1.89.32-3.42z" fill="#eb6525"/><path d="m167.38 253.29c0-.23.01-.46 0-.69-.03-.47-.37-.83-.74-.9-.49-.1-.49.47-.59.78-1.25 3.73-3.56 6.59-6.92 8.61-.27.17-.51.32-.3.61.32.45.71.86 1.1 1.25.7.7.94-.25 1.28-.47 2.88-1.93 5.16-4.33 5.99-7.87.09-.44.05-.89.18-1.32z" fill="#eb6525"/><path d="m169.41 255.25c-.86 4.32-3.54 7.25-6.81 9.78-.35.27-.96.33-.42 1.11.44.62.78.68 1.33.37 1.28-.72 2.44-1.61 3.55-2.59 1.61-1.41 2.59-3.26 3.58-5.08.98-1.79.9-1.84-1.23-3.59z" fill="#eb6525"/><path d="m168.82 370.27c-3.54 1.42-7.35 1.15-10.58-1.71-2.17-1.92-3.88-4.13-4.81-6.91-.1-.3-.23-.64-.46-.84-.4-.33-.36-1.51-1.09-.99-.6.43-1.24 1.53-.7 2.24 1.53 2.05 2.63 4.42 4.69 6.1 2.08 1.7 4.49 2.57 7 3.29.4.12.79.25 1.19.39 1.99.7 3.22.33 4.76-1.57z" fill="#eb6525"/><path d="m132.97 31.27c1.3-.04 3.01-2.17 2.95-3.68-.04-1.17-1.24-2.33-2.46-2.37-1.45-.05-3.63 2.49-3.61 4.18.02.78 1.91 1.91 3.12 1.87z" fill="#f2f2f2"/><path d="m180.8 218.62c.84.55 1.44.02 2.19-.36 2.24-1.14 4.57-2.11 6.85-3.17.96-.44 1.85-1.04 2.84-1.39 1.01-.35.73-1.11.53-1.63-.3-.79-.85-.12-1.24.04-3.15 1.25-5.99 3.18-9.26 4.23-.75.24-1.53 1.33-1.91 2.28z" fill="#eb6525"/><path d="m180.79 271.92c-1.52 4.7-4.58 7.67-8.21 10.17-.37.25-.75.55-1.25.53-.65-.03-.44.35-.37.73.08.45.21.75.7.47 3.98-2.33 8.17-4.44 9.81-9.27.17-.51-.1-.77-.24-1.14-.15-.37-.23-.76-.44-1.49z" fill="#eb6525"/><path d="m105.94 281.4c.11.68.38 1.11.97 1.33 3.03 1.14 6.21 1.81 9.23 2.99 1.11.43 2.17-.87 3.32-1.26-4.56-.85-9.02-1.9-13.52-3.06z" fill="#eb6525"/><g fill="#f2f2f2"><path d="m149.29 365.24c.87 5.19 7.06 9.59 11.59 8.43-2.23-.99-4.41-1.92-6.56-2.91-2.35-1.08-2.91-3.84-5.03-5.52z"/><path d="m71.87 266.27c-3.21-1.06-6.65-1.15-9.39-3.49-.13.91-.06 1.5.83 1.93 1.35.66 2.66 1.42 3.92 2.24 2.29 1.49 2.73 1.46 4.64-.68z"/><path d="m134.06 43.26c1.65.14 3.08-.71 4.61-1.08.41-.1.91-.47.48-1.04-.38-.5-.21-1.63-1.35-1.31-1.54.44-3.07.94-4.65 1.24-.98.19-.5 1.03-.59 1.6-.1.68.4.58.81.58.23.01.46.01.69.01z"/><path d="m132.7 38.22c1.5-.34 2.88-.6 4.23-1.16-.44-.79-.91-1.49-1.24-2.24-.29-.69-.55-.85-1.34-.59-2.09.71-2.21.87-1.65 3.99z"/><path d="m186.15 219.94c4.7.04 7.28-.58 7.36-3.41-2.39 1.11-4.73 2.19-7.36 3.41z"/></g><path d="m63.05 266.69c.51 1.12.86 1.82 1.15 2.54.13.32.22.59.65.53.74-.1 1.8.29 2.08-.55.21-.61-.86-.75-1.35-1.1-.66-.48-1.44-.81-2.53-1.42z" fill="#eb6525"/><path d="m137.85 45.58h3.81c-.71-1.51-.71-1.5-2.15-.89-.56.24-1.13.46-1.69.69.01.07.02.13.03.2z" fill="#f2f2f2"/><path d="m108.72 285.73c1.17 1.36 2.32 1.69 3.76 1.09-1.31-.46-2.61-.52-3.76-1.09z" fill="#f2f2f2"/><path d="m120.58 113.56c.16.07.32.13.47.2-.1-.21-.25-.27-.47-.2z" fill="#f2f2f2"/><path d="m129.22 116.09c.07.05.14.11.21.16-.07-.05-.14-.11-.21-.16z" fill="#f2f2f2"/><path d="m124.21 114.71c.03.08.09.13.18.15-.06-.05-.12-.1-.18-.15z" fill="#f2f2f2"/><path d="m180.82 107.4c.03-.09.07-.19.1-.28-.11 0-.22 0-.32.01.08.09.15.18.22.27z" fill="#fff"/><path d="m118.98 113.27c.17.06.34.11.51.17-.12-.2-.29-.27-.51-.17z" fill="#f2f2f2"/><path d="m121.11 113.79c.11.07.23.13.34.2-.11-.07-.22-.13-.34-.2z" fill="#eb6525"/><path d="m122.9 114.36c.15.07.31.14.46.21-.08-.24-.25-.28-.46-.21z" fill="#f2f2f2"/><path d="m136.74 118.88c.09.05.18.1.27.14-.09-.05-.18-.1-.27-.14z" fill="#f2f2f2"/><path d="m136.18 118.6c.08.05.16.1.23.15-.07-.05-.15-.1-.23-.15z" fill="#f2f2f2"/><path d="m139.52 207.16c-4.41-1.11-8.64-2.76-12.94-4.16-4.18-1.37-6.89-4.25-8.25-8.4-.18-.55-.81-1.1-.48-1.67.75-1.26.85-2.7 1.33-4.02 1.26-3.45 2.41-6.94 3.66-10.4 1.28-3.55 2.54-7.15 4.86-10.18 1.46-1.91 1.69-2.43 4.44-1.7 4.03 1.08 8.08 2 11.99 3.55 3.47 1.38 6.9 2.77 10.26 4.43 3.76 1.86 4.47 5.33 5.14 8.75.65 3.35-.97 6.46-1.81 9.64-.83 3.14-2.02 6.23-2.44 9.43-.39 2.9-2.49 4.16-4.26 5.79-.73.67-1.96.32-2.98.32-2.92-.03-5.7-.67-8.52-1.38zm12.01-5.02c.56-3.25 1.2-6.49 2.32-9.58.75-2.08 1.43-4.19 2.01-6.29.83-3.01-.01-4.8-3-5.99-2.61-1.04-5.34-1.63-8.03-2.35-2.19-.59-4.28-1.43-6.4-2.2-1.43-.52-2.84-1.03-4.35-1.3-1.3-.23-2.47.44-2.85 1.38-2.45 6.03-5.21 11.96-6.39 18.45-.25 1.38.79 2.55.25 3.89-.06.15.27.17.42.25 5.18 2.72 10.69 4.38 16.45 5.32 2.11.35 4.16 1.06 6.33 1.09 2.75-.02 2.79-.01 3.24-2.67z" fill="#121213"/><path d="m85.81 175.63c.37-3.68 1.31-7.26 2.22-10.82.9-3.5 1.69-7.07 3.52-10.28.32-.56.69-1.13 1.36-.82.55.26.69.9.45 1.53-.1.26-.18.52-.28.78-1.42 3.26-2.35 6.68-3.24 10.12-.09.34.05.46.26.68 4.22 4.37 9.6 6.61 15.2 8.52 1.57.53 3.21.66 4.77 1.28 1.67.66 3.23.41 4.6-1.08 1.21-1.31 2.74-2.33 4.1-3.5.46-.4.78-1.1 1.49-.26.63.74.32 1.23-.25 1.75-1.05.96-2.09 1.94-3.13 2.92-3.42 3.22-6.89 6.37-10.77 9.03-2.65 1.82-5.33 3.58-7.86 5.56-1.65 1.29-3.61 2.13-5.64 2.62-3.28.8-5.62-1.37-6.55-4.4-.68-2.21-.64-4.55-.74-7.29.13-1.84.27-4.1.49-6.34zm2.9-4.15c-.26.83.06 1.22.56 1.64 4.88 4.14 10.43 6.69 16.9 6.73 1.35.01 2.99.44 4.36-.89-7.65-2.21-15.06-4.56-21.27-9.92-.17.96-.33 1.73-.55 2.44zm-.46 3.31c-.53 4.28-.82 3.02 2.71 5.16 3.36 2.04 7.14 3.11 10.97 4.01 1.81.43 2.67-.87 4.16-1.73-7.01-.76-13.31-2.23-17.81-7.83-.01.11-.01.25-.03.39zm4.68 8.41c-1.24-.7-2.55-1.27-3.75-2.07-.39-.26-1.02-.92-1.36-.32-.28.51-.34 1.28.47 1.91 3.06 2.37 6.6 3.51 10.28 4.36.98.23 1.12-.8 2.11-1.15-2.86-.85-5.43-1.43-7.75-2.73zm-4.96 2.17c-.11.35.05.6.32.84 1.28 1.18 2.87 1.8 4.48 2.28.6.18 1.09.35 1.5.8.35.37.77.27 1.14.06.18-.1.43-.38.39-.52-.11-.44-.57-.37-.91-.45-2.18-.48-4.04-1.62-5.87-2.8-.23-.15-.48-.27-.76-.42-.11.08-.27.13-.29.21z" fill="#fff"/><path d="m155.68 126.91c1.1-.35 2.63-.73 4.06-1.35.68-.29.52-1.09.13-1.66-.38-.56-.94-.87-1.59-1.05-1.22-.33-2.32-.89-3.28-1.71-.6-.52-1.18-.47-1.7.09-.5.54-.64 1.21-.15 1.76.54.61.6 1.08.29 1.85-.36.84.75 1.98 2.24 2.07z" fill="#121213"/><path d="m167.53 116.93c-1.95.18-3.33 2.59-2.61 4.08.46.95.95.96 1.72.49.89-.55 1.8-2.79 1.61-3.7-.13-.55-.53-.64-.72-.87z" fill="#121213"/><path d="m150.02 112.12c-.38.75-1.78.01-1.81 1.04-.03.95-1.19 1.87-.12 2.88.72.68 1.79.58 2.27-.4.36-.73.63-1.54.81-2.34.18-.79-.47-.98-1.15-1.18z" fill="#121213"/><path d="m123.65 115.19c-.03.01-.06.03-.09.04.04.03.09.07.13.1.02-.03.05-.07.04-.09s-.06-.03-.08-.05z" fill="#eb6525"/><path d="m141.97 203.73c-5.76-.95-11.27-2.6-16.45-5.32-.15-.08-.48-.11-.42-.25.54-1.33-.5-2.5-.25-3.89 1.18-6.49 3.94-12.42 6.39-18.45.39-.95 1.55-1.61 2.85-1.38 1.5.26 2.92.78 4.35 1.3 2.12.77 4.21 1.61 6.4 2.2 2.69.72 5.42 1.32 8.03 2.35 2.99 1.19 3.83 2.98 3 5.99-.58 2.1-1.26 4.22-2.01 6.29-1.12 3.09-1.77 6.33-2.32 9.58-.45 2.65-.49 2.65-3.23 2.67-2.18-.03-4.23-.74-6.34-1.09zm4.74-16.47c-2.3-.01-5.15 2.04-5.2 3.73-.05 1.94 3.19 5.19 5.29 5.3 1.9.1 3.5-1.93 3.57-4.53.05-1.53-2.36-4.49-3.66-4.5zm-7.44.48c.09-1.13-.32-2.04-1.41-2.37-.68-.2-2.25 1.6-2.22 2.53.03.8.01 1.68.77 2.25.47.36.84.85 1.63.55.86-.33 1.29-.82 1.27-1.72 0-.28 0-.55 0-.83-.01 0-.02 0-.02 0-.01-.14-.03-.28-.02-.41zm-8.92.07c.03.37.13.73.58.83.43.09.85.06 1.17-.26.95-.94.91-3.84.02-4.86-.46-.53-.66-.59-1.09.04-.64.94-.69.91-.69 2.86 0 .47-.02.93.01 1.39z" fill="#fff"/><path d="m89.26 169.03c-.18.97-.33 1.74-.56 2.45-.26.83.06 1.22.56 1.64 4.88 4.14 10.43 6.69 16.9 6.73 1.35.01 2.99.44 4.36-.89-7.64-2.22-15.05-4.57-21.26-9.93z" fill="#eb6525"/><path d="m88.28 174.4c-.01.11-.02.24-.03.38-.53 4.28-.82 3.02 2.71 5.16 3.36 2.04 7.14 3.11 10.97 4.01 1.81.43 2.67-.87 4.16-1.73-7.01-.74-13.31-2.21-17.81-7.82z" fill="#f2f2f2"/><path d="m100.68 185.94c-2.86-.87-5.43-1.44-7.75-2.74-1.24-.7-2.55-1.27-3.75-2.07-.39-.26-1.02-.92-1.36-.32-.28.51-.34 1.28.47 1.91 3.06 2.37 6.6 3.51 10.28 4.36.98.24 1.13-.79 2.11-1.14z" fill="#eb6525"/><path d="m88.25 185.17c-.1.07-.26.12-.29.21-.11.35.05.6.32.84 1.28 1.18 2.87 1.8 4.48 2.28.6.18 1.09.35 1.5.8.35.37.77.27 1.14.06.18-.1.43-.38.39-.52-.11-.44-.57-.37-.91-.45-2.18-.48-4.04-1.62-5.87-2.8-.23-.15-.48-.27-.76-.42z" fill="#f2f2f2"/><path d="m146.81 196.29c-2.1-.11-5.35-3.36-5.29-5.3.05-1.7 2.9-3.74 5.2-3.73 1.3.01 3.71 2.97 3.67 4.5-.08 2.6-1.68 4.64-3.58 4.53zm.78-5.47c.02-.72-.6-.76-1.04-.88-.49-.13-.46.42-.61.71-.1.2-.13.43-.19.65-.14.49-.27 1.06.07 1.42.32.34.88.18 1.31.06.72-.19.35-.84.45-1.12.01-.38 0-.61.01-.84z" fill="#121213"/><path d="m139.29 188.15c-.01-.14-.03-.28-.02-.41.09-1.13-.32-2.04-1.41-2.37-.68-.2-2.25 1.6-2.22 2.53.03.8.01 1.68.77 2.25.47.36.84.85 1.63.55.86-.33 1.29-.82 1.27-1.72 0-.28 0-.55 0-.83-.01 0-.02 0-.02 0z" fill="#121213"/><path d="m130.34 186.42c0 .46-.03.93.01 1.39.03.37.13.73.58.83.43.09.85.06 1.17-.26.95-.94.91-3.84.02-4.86-.46-.53-.66-.59-1.09.04-.63.95-.68.91-.69 2.86z" fill="#121213"/><path d="m147.59 191.66c0-.38-.01-.61 0-.84.02-.72-.6-.76-1.04-.88-.49-.13-.46.42-.61.71-.1.2-.13.43-.19.65-.14.49-.27 1.06.07 1.42.32.34.88.18 1.31.06.72-.19.35-.83.46-1.12z" fill="#f2f2f2"/><path d="m142.12 123.55s-26.15-7.9-27.07-7.01c-.91.89 23.98 2.19 27.07 7.01z" fill="#121213"/></svg>