<svg enable-background="new 0 0 165.71 296.89" viewBox="0 0 165.71 296.89" xmlns="http://www.w3.org/2000/svg"><path d="m40.72 276.85c-1.55-1.48-3.31-2.73-4.69-4.39-2.25-2.7-4.01-5.67-4.84-9.09-.25-1.04-.76-1.97-.94-3.02-.21-1.17-.44-2.33-.67-3.49-.23-1.14-.5-2.28-.7-3.43-.74-4.26-1.46-8.56-1.14-12.89.23-3.06.57-6.14.97-9.2.58-4.33 1.61-8.53 2.93-12.68 1.07-3.37 2.39-6.66 3.9-9.86 1.59-3.36 3.4-6.57 5.87-9.37.57-.64.37-1.61.93-2.26.1-.12.17-.42.21-.41.89.19 1-.74 1.5-1 .85-.44 1.23-1.26 1.82-1.87 1.83-1.89 3.72-3.72 5.65-5.51 1.4-1.29 2.9-2.45 4.51-3.46 1.22-.76 1.33-.9.74-2.24-1.57-3.57-2.8-7.27-3.96-10.99-.65-2.1-1.15-4.25-1.6-6.4-.35-1.7-.29-1.65-1.93-1.21-2.46.67-4.95.81-7.48.31-.99-.2-1.94-.44-2.82-.93-1.7-.94-2.48-3.43-1.78-5.28.65-1.73 1.12-3.53 1.77-5.26.61-1.61 1.3-3.2 2.05-4.75 1.15-2.4 2.25-4.84 3.66-7.11.82-1.33 1.36-2.87 2.27-4.08.98-1.31.77-2.65.87-3.99.27-3.77.47-7.54 1.52-11.2.17-.59.83-1.16.55-1.74s-1.15-.4-1.7-.69c-1.31-.68-2.61-2.47-2.22-4.64.23-1.28.43-2.62 1.63-3.51.41-.3.41-.74.06-1.29-2.43-3.84-5.08-7.55-6.98-11.69-1.05-2.28-1.66-4.68-1.7-7.25-.03-2.29-.33-4.57-.32-6.87 0-.95.26-1.85.32-2.78.24-3.51 1.48-6.73 2.74-9.97 1.28-3.27 3.13-6.18 5.22-8.95 2.24-2.97 5.1-5.28 8.07-7.49 1.81-1.34 3.73-2.5 5.66-3.6 2.36-1.34 4.85-2.46 7.43-3.39 3.17-1.15 6.44-1.92 9.63-2.98 4.39-1.45 8.93-1.77 13.47-2.15.13-.01.28-.02.4.02 1.69.56 2.71-.16 3.72-1.54 1.71-2.34 3.64-4.51 5.5-6.74.29-.35.28-.58.14-1.04-.73-2.46.08-4.48 2.37-5.51 1.4-.63 4.1.84 4.52 2.41.4 1.5.63 3.03.04 4.53-.26.66-.87 1.09-1.4 1.53-.34.29-.47.55-.52.99-.26 2.37-.54 4.73-.88 7.09-.1.69.1.99.7 1.3 1.89.99 3.87 1.82 5.57 3.15 2.54 1.99 4.2 4.72 5.66 7.48 2.89 5.44 5.26 11.13 7.32 16.94.81 2.28 1.33 4.68 1.45 7.13.02.5.14.73.79.67 1.34-.14 2.23.51 3.13 1.6 1.56 1.9 2.05 4.15 2.61 6.37.31 1.24.53 2.57.52 3.9-.01.67.06 1.36.22 2.01.14.59.82.72 1.27.84 2.65.72 4.12 2.48 4.78 5.07.39 1.55.95 3.05 1.31 4.6.3 1.31.46 2.66.6 4 .14 1.37.76 2.63.86 4.01.17 2.39 1.08 4.63 1.4 7 .56 4.18 1.28 8.34 1.82 12.53.28 2.13.5 4.27.57 6.44.1 3.28-.13 6.5-.45 9.75-.22 2.17-.56 4.32-1.34 6.35-.91 2.38-2.62 4.24-4.45 5.95-1.19 1.1-2.19 2.45-3.78 3.06-.3.11-.37.33-.34.64.36 3.32-.03 6.64-.14 9.96-.1 3.24-.49 6.47-.69 9.71-.14 2.32-.65 4.57-.94 6.87-.23 1.79-.99 3.43-1.32 5.2-.35 1.86-.83 3.69-1.25 5.54-.86 3.78-2.02 7.43-4.21 10.69-1.2 1.8-3.01 1.91-4.93.36-4.25-3.43-7.14-7.95-10.19-12.36-.66-.96-1.2-2.01-1.77-3.03-.28-.49-.41-.61-1.09-.32-2.58 1.09-5.07 2.42-7.79 3.2-.26.07-.49.23-.75.29-.87.17-1.02.68-1.13 1.54-.63 5.23-1.15 10.49-3.98 15.15-.74 1.21-1.53 2.35-2.71 3.18-2.07 1.45-4.04.68-5.91-.39-3.53-2.03-6.89-4.34-9.97-6.99-2.61-2.25-4.79-4.92-6.82-7.73-1.68-2.33-3.39-4.64-4.91-7.08-.55-.88-1.1-1.77-1.5-2.73s-.9-.86-1.59-.41c-1.76 1.16-3.38 2.48-4.87 3.97-2.55 2.55-4.9 5.29-6.76 8.39-1.01 1.68-1.87 3.44-2.31 5.39-.3 1.33-.91 2.6-1.11 3.94-.23 1.57-.82 3.06-.79 4.69.03 1.77.03 3.56-.21 5.3-.27 1.95-.04 3.86.08 5.77.22 3.34.47 6.69.9 10.01.23 1.76.48 3.52.91 5.26.53 2.2.87 4.44 1.62 6.58.77 2.19 1.85 4.21 2.94 6.25 1 1.87 1.88 3.8 2.63 5.8.07.19.15.37.23.55 1.91 3.84 2 7.07.28 11.1-.04.08-.01.19-.02.29-.53-.09-1.06-.17-1.59-.26.21-.62.81-1.06.86-1.82-1.18.32-2.07 1.21-3.25 1.43-.93-.15-1.86-.3-2.79-.46-.1-.36.16-.33.38-.35.68-.05 1.44 0 1.99-.41 1.24-.92 2.47-1.84 3.8-2.64.11-.06.19-.32.15-.45-.17-.6.12-1.26-.28-1.84-.32.15-.56.31-.76.67-.81 1.43-1.98 2.56-3.32 3.5-1.07.74-2.41.71-3.55 1.25-2.05-.37-4.11-.71-6.16-1.04zm62.37-182.49c-.09.03-.18.07-.27.1-.37-.11-.73-.09-1.07.09-.15-.07-.27-.07-.35.09-.21 0-.42 0-.62.01-.05.03-.1.06-.15.09-.09 0-.18.01-.26.01-.74-.27-1.41.01-2.09.25-.14-.01-.27-.02-.41-.04-.09.02-.17.04-.26.07-.19-.06-.39-.09-.58.02-.06.03-.11.06-.17.09-.08 0-.16 0-.24 0-1.38.01-2.69.42-4.02.74-.31-.14-.55.15-.84.15-.06.03-.12.05-.18.08-.08.02-.16.03-.25.05-.07.02-.14.05-.21.07-.14.01-.27.02-.41.03-.15-.06-.29-.14-.42.03-.14.04-.29.08-.43.12-.27.03-.54.07-.81.1h-.01c-.84.03-1.62.27-2.36.66-.16-.05-.33-.12-.45.08-.26.19-.63-.01-.86.27-.3-.18-.06-.4-.05-.6.42-.2.82-.46 1.26-.6 3.94-1.25 8.02-1.78 12.12-2.13 2.25-.19 4.5-.4 6.74-.59.46-.04.59-.22.4-.65-.41-.95-.82-1.9-1.19-2.87-.1-.27-.25-.26-.45-.23-.49.07-1 .09-1.47.22-2.31.64-4.67 1.11-6.98 1.79-2.53.75-4.88 1.89-7.33 2.79-1.25.46-2.43 1.15-3.79 1.29-.65-.21-.4-.51-.02-.7.61-.31 1.29-.51 1.9-.83 2.45-1.28 5.08-2.11 7.66-3.05 2.99-1.08 6.16-1.54 9.24-2.27.63-.15.76-.34.45-.84-.59-.97-1.1-2.01-1.35-3.09-.31-1.35-.99-2.56-1.03-4.02-.06-1.82-.16-3.66-.49-5.48-.39-2.15-1.18-4.15-1.85-6.21-.15-.47-.18-1-.76-1.37-.81 1.18-1.53 2.41-1.81 3.83-.29 1.44-.8 2.82-1.12 4.25-.11.49-.56.66-.88.68-.38.02-.26-.46-.28-.73-.02-.3-.16-.55-.17-.87-.06-2.01.68-3.86 1.07-5.78.18-.9.46-1.78.81-2.66-.23.05-.35.15-.47.26s-.22.25-.35.35c-2.74 2.21-5.25 4.63-7.18 7.62-.44.68-1.07 1.38-2.01 1.53-1.11.18-2.23.32-3.33.52-3.21.59-6.42 1.23-9.61 1.95-2.08.47-4.2.75-6.32.98-.41.05-.69-.09-.97-.37-1.29-1.25-2.55-2.54-3.91-3.7-.93-.79-1.7-1.75-2.77-2.37-.19-.11-.45-.4-.54-.05-.12.44-.44.93-.02 1.4 1.93 2.16 2.31 4.97 3.11 7.6.07.24-.14.1-.23.09-.08-.01-.15-.03-.23-.04.01.07.03.14.04.21-.06.22-.19.45-.17.66.04.36-.06.66-.39.7-.4.04-.63-.37-.62-.66.03-.77-.42-1.39-.57-2.1-.25-1.28-.82-2.44-1.68-3.67-.01 1.34-.14 2.5-.01 3.63.18 1.6.65 3.16.61 4.79 0 .2.03.38-.11.55-1 1.29-1.01 2.87-1.29 4.38-.3 1.61.14 3.2-.07 4.79-.18 1.34-.16 1.36 1.17 1.39 2.7.06 5.41.12 8.09.49.59.08 1.14.19 1.82.71-.93-.03-1.61-.04-2.3-.08-2.75-.16-5.49-.32-8.24-.5-.38-.02-.57.06-.59.46-.02.33-.06.67-.11 1-.08.57.18.86.74.73.44-.11.88.02 1.29-.08 2.6-.58 5.24-.52 7.88-.53.61 0 1.15.13 1.62.7-2.02.12-3.94.23-5.86.34-1.57.09-3.14.18-4.71.26-1.04.05-.87.87-.79 1.43.1.64.65.25 1.02.18 3.14-.53 6.28-1.07 9.48-1.17.4-.01.7.02.74.45.04.52-.41.34-.65.35-1.6.11-3.15.49-4.76.58-1.63.09-3.28.4-4.92.58-.96.11-1.15.54-.96 1.27.23.85.31 1.7.3 2.57-.02 1.63.64 3.26.01 4.89-.22.56.22.43.47.46 1.73.23 3.46.38 5.19.48 3.54.2 7.07.43 10.62.23 3.52-.2 7.03-.44 10.55-.53 3.43-.09 6.82-.83 10.16-1.58 5.17-1.17 10.35-2.38 15.35-4.19 1.32-.48 1.32-.48.45-1.56-.08-.1-.19-.21-.22-.34-.49-1.84-1.56-3.48-1.77-5.41-.15-1.37-.44-1.61-1.8-1.62-2.19-.02-4.38-.03-6.57-.02-3.86.02-14.38-.82-14.24-.91l2.09-.85c.18-.07 1.36 2.05 1.62 1.87.13 0 .26-.01.4-.01.1.05.19.04.23-.08h-.01c.22.01.46.13.64-.11h.39c.08-.03.16-.05.25-.08h-.01c.5.07 1 .13 1.44-.21.22.01.44.03.67.04.15.1.28.08.4-.04l.09.03.08-.05c.16.05.31.06.43-.09.42.13.82 0 1.23-.06.3.17.57.03.85-.06.08 0 .16 0 .24-.01.14.1.28.08.39-.05.33.02.66.04.98.06.08-.02.15-.05.23-.07h.6c.2-.01.41-.02.61-.03.2.02.4.04.6.06.44-.05.89.08 1.31-.14.21.01.42.02.64.03.25.14.51.15.76.01.32.03.65.07.97.1.41 0 .82 0 1.23-.01h1.22c.07 0 .15-.01.22-.01.09-.05.17-.1.26-.14l.03.05h.09c.21.01.49.2.61-.04.13-.25-.12-.47-.26-.68.03-.07.03-.13-.02-.19-.12-.4-.29-.8-.35-1.21-.12-.93-.57-1.15-1.38-.73-.14 0-.28.01-.42.01-.15-.09-.27-.07-.38.06-.26-.01-.53-.03-.79-.04-.15-.07-.27-.04-.36.09-.06.04-.1.06-.1.06zm-11.98 106.73c-.86-.14-1.73-.27-2.59-.43-.56-.11-.93-.45-.83-1.05.16-.98.74-1.52 1.4-1.26.67.26 1.36.31 2.04.43 2.5.43 5.04.83 7.55.37 3.22-.59 6.2-1.98 9.22-3.21.42-.17.48-.37.24-.84-.7-1.36-1.31-2.78-1.92-4.18-.32-.74-.45-1.53-.48-2.34-.02-.47.37-.5.62-.67.15-.1.32.01.36.21.17.81.75 1.42 1.04 2.16 1 2.51 2.43 4.8 3.8 7.11.1.16.13.47.49.36 1.52-.47 3.12-.54 4.63-1.14 2.05-.82 4.19-1.41 6.25-2.2 2.95-1.13 6.05-1.95 8.5-4.15.4-.36.59-.67.66-1.13.61-3.78.73-7.59.98-11.4.18-2.79.38-5.59.4-8.39.03-5.97-.57-11.9-1.1-17.84-.36-4.05-.85-8.08-1.66-12.05-.7-3.43-1.45-6.86-2.57-10.19-1.02-3.03-1.94-6.09-2.8-9.18-.85-3.07-2.07-6.02-3.84-8.7-.37-.56-.77-.87-1.48-.4-2.98 1.95-6.35 2.99-9.7 4.06-3.26 1.04-6.42 2.41-9.8 3.11-3.48.72-6.95 1.5-10.5 1.83-3.15.29-6.3.49-9.45.74-3.32.26-6.65.17-9.98.23-2.96.05-5.91-.09-8.87.13-.59.04-1.19.11-1.78.05-2.7-.26-5.39-.56-8.09-.85-.37-.04-.66 0-.76.44-.16.72-.42 1.42-.52 2.14-.34 2.45-.64 4.9-.82 7.37-.28 3.83.04 7.65.04 11.48 0 2.59.42 5.17.7 7.74.24 2.19.44 4.41.79 6.56.46 2.91 1.14 5.8 1.83 8.68.74 3.1 1.49 6.19 2.58 9.2.92 2.52 2 4.98 2.68 7.58.09.34.06.68.26 1.03 1.3 2.2 2.12 4.63 3.38 6.87 1.03 1.83 1.95 3.74 2.9 5.62.88 1.73 2.03 3.35 3.16 4.97 1.65 2.36 3.29 4.72 5.15 6.92.26.3.5.67.97.63 1.08-.1 2.13.24 3.21.24 3.21-.01 6.41-.18 9.61-.31 3.18-.13 6.24-.83 9.27-1.75.38-.12.68-.21.71-.69.07-.97.18-1.93.28-2.9.04-.41-.02-.56-.53-.54-1.87.08-3.76-.1-5.63-.47zm-43.95-136.23c3.36-.38 6.37-1.27 9.45-1.8 5.94-1.03 11.88-2.06 17.83-3.07 4.07-.7 8.2-1.07 12.28-1.74 5.72-.94 11.55-.87 17.25-2.03 1.3-.26 2.71-.15 4.06-.34 1.49-.22 2.12.21 2.43 1.71.11.56.17 1.13.19 1.69.2 5 .57 9.99 1.38 14.93.88 5.37 1.73 10.75 2.45 16.15.56 4.23.68 8.49 1.26 12.72.09.65.25.7.71.4.85-.55 1.75-.99 2.69-1.34.25-.09.4-.22.52-.42.61-.99 1.29-1.95 1.71-3.04 1.91-5 2.78-10.19 2.69-15.55-.05-3.06-.74-6-1.65-8.91-.72-2.3-1.83-4.44-2.71-6.67-1.29-3.31-2.74-6.56-4.49-9.65-1.84-3.26-3.95-6.32-7.42-8.11-1.01-.52-2.07-.96-3.04-1.52-2.44-1.39-5.05-2.22-7.77-2.75-3.12-.61-6.28-.78-9.45-.48-2.21.21-4.43.42-6.61.99-1.81.47-3.59 1.04-5.4 1.47-3.09.74-6.09 1.75-9.01 2.98-2.61 1.1-5.02 2.57-7.45 4.03-4.52 2.7-8.48 6.04-11.9 10.35zm6.26 53.63c.17.01.27.02.37.03 3.74.29 7.46.62 11.23.49 3.36-.11 6.72.12 10.09.11 4.21-.02 8.39-.52 12.58-.77 5.2-.31 10.24-1.44 15.27-2.64 2.68-.64 5.15-1.85 7.74-2.73 3.12-1.06 6.27-2 9.03-3.96 1.86-1.32 2.99-3.52 2.45-5.72-.07-.27-.19-.67-.38-.73-.28-.09-.47.24-.65.5-.14.2-.42.31-.66.43-.9.42-1.83.78-2.71 1.24-4.26 2.21-8.55 4.33-13.25 5.47-4.25 1.04-8.45 2.23-12.78 2.94-2.73.45-5.44 1.05-8.19 1.24-3.57.25-7.17.22-10.74.46-3.37.22-6.71 0-10.06-.16-2.21-.11-4.41-.42-6.61-.6-2.39-.2-4.77-.31-7.04-1.17-.17-.07-.38-.16-.55.03-.85.93-.5 3.45.57 4.19 1.31.92 2.93.84 4.29 1.35zm-22.41 130.72c-.81-.12-.87-.07-.65.64.14.44.26.89.58 1.26 1.83 2.12 3.8 3.99 6.74 4.48 1.9.32 3.61.29 5.2-1.07.92-.79 1.55-1.85 2.53-2.51.58-.39.59-.79.49-1.32-.07-.36-.21-.7-.26-1.06-.08-.56-.34-.62-.73-.3-.95.76-2.12 1.17-3.22 1.43-2.68.64-5.4.46-8.08-.35-.94-.28-1.72-.83-2.6-1.2zm.08-20.68c-.32 1.41-.31 1.4.35 2.47 1.08 1.75 2.31 3.39 4.02 4.56 1.72 1.17 3.47 2.4 5.7 2.33.91-.03 1.77-.2 2.38-1.07.81-1.14.41-2.68-.97-2.95-1.26-.24-2.51-.53-3.76-.79-1.93-.4-3.58-1.28-5.22-2.27-.93-.57-1.65-1.39-2.5-2.28zm100.53-36.25c-5.77 3.98-12.38 5.26-18.63 7.45.66 1.53.84 1.62 2.58 1.25.65-.14 1.32-.17 1.97-.33 3.96-.93 7.87-1.99 11.42-4.06.63-.37 1.53-.59 1.82-1.14.47-.89.55-2 .84-3.17zm-101.61 45.44c-.39 1.25-.65 2.24.27 3.21.95 1.01 2.06 1.77 3.16 2.58 1.96 1.46 4.08 2.2 6.5 2 2.09-.17 3.34-1.55 4.41-3.17.14-.22.19-.45.04-.66-.18-.25-.4-.06-.62.01-.38.12-.77.17-1.16.28-2.37.64-4.75.41-7.02-.31-2.15-.68-4.1-1.86-5.58-3.94zm5.54 30.09c.17.92.85.95 1.41 1.19 1.52.66 2.93 1.57 4.57 1.97 1.01.25 2.03.51 3.05.12 2.68-1.01 4.67-2.79 6.03-5.34.51-.95.57-1.73-.05-2.59-.2-.28-.37-.59-.59-.95-.37.62-.78 1.12-1.01 1.7-1.23 3.12-4.87 5.14-8.08 4.47-1.73-.35-3.53-.12-5.33-.57zm39.89-58.42c.64.9 1.1 1.64 2.05 1.74 1.13.12 2.24.35 3.39.39 4.77.16 9.47-.19 14.08-1.44.5-.14 1.23.13 1.49-.51.21-.52.2-1.12.31-1.68.1-.53-.18-.62-.57-.43-2.19 1.07-4.57 1.34-6.93 1.75-3.06.53-6.14.26-9.21.46-1.44.09-2.91.04-4.61-.28zm-30.11 38.33c-.25-1.09-.2-2.15-.71-3.14-1.15 1.4-2.41 2.31-4.17 2.59-2.71.44-5.21-.05-7.43-1.57-1.1-.76-2.36-1.33-3.33-2.38.25.97-.32 2.02.44 2.89.82.94 1.85 1.59 2.96 2.14 2.02 1.01 4.17 1.42 6.41 1.24 1.22-.1 2.42-.29 3.51-1.03.64-.43 1.34-1.01 2.32-.74zm1.98 8.79c-1.91 2.12-4.28 3.4-7.11 3.9-2.89.51-5.54-.4-8.41-1.48.44 1.11 1.2 1.63 1.83 2.17 1.84 1.55 4.15 2 6.44 2.07 1.26.04 2.69-.13 3.81-.96 1.62-1.21 2.64-2.89 3.48-4.68.14-.32.4-.65-.04-1.02zm-14.98-33.95c-.16.51-.4.94-.42 1.38-.07 1.04-.93 2.1.01 3.13.74.81 1.38 1.72 2.4 2.24 2.78 1.41 5.73 2.2 8.81 2.58.34.04.52-.02.51-.38-.03-.81.15-1.64-.17-2.57-.53.67-1.14 1.38-1.87 1.2-1.41-.36-2.83-.87-3.9-1.91-1.36-1.32-2.81-2.54-4.08-3.97-.46-.52-.61-1.27-1.29-1.7zm-1.83 9.8c-.29 1.24-.33 2.22-.39 3.2-.01.11-.07.28.14.3.8.08.99.83 1.43 1.31.96 1.06 2.03 1.95 3.31 2.65 1.37.76 2.86.77 4.3 1.07 1.39.29 2.62-.19 3.83-.68 1.28-.52 1.37-.93.71-2.22-.72.88-1.53 1.7-2.72 1.7-3.06.01-5.35-1.7-7.58-3.51-1.23-.99-2.16-2.23-3.03-3.82zm2.77 31.12c.85 1.98.85 1.98 2.94 2.42.07.01.13.02.2.04 2.69.65 5.39.76 8.12.3 1.25-.21 2.39-1.5 2.79-2.68.28-.83.22-1.94 1.12-2.45.92-.53.56-1.09.21-1.69-.09-.15-.03-.42-.3-.45-3.03 6.83-8.28 7.28-15.08 4.51zm.16-44.89c-.39.83-.27 1.32.03 1.86.82 1.51 1.87 2.85 3.09 4.04 1.36 1.32 2.67 2.71 4.49 3.45.58.24 2.49-.05 2.61-.54.14-.57.47-1.3-.29-1.77-.78-.48-1.53-1.01-2.39-1.39-.94-.41-1.94-.64-2.84-1.19-1.84-1.11-3.59-2.28-4.7-4.46zm10.67 2.46c-.23.63-.69.44-1.09.33-1.75-.5-3.17-1.55-4.41-2.84-1.3-1.35-2.61-2.71-3.71-4.38-.29.91-.54 1.66-.78 2.43-.07.21-.26.55-.05.65 1.02.5 1.4 1.58 2.18 2.3 2.06 1.92 4.56 3.09 7.04 4.3.35.17.61.2.64-.24.07-.83.38-1.63.18-2.55zm85.98-23.13c-1.17.72-2.27 1.26-3.37 1.79-2.7 1.31-5.59 2.03-8.48 2.73-.74.18-1.5.26-2.25.41-.25.05-.57.05-.48.47.2.93 1.69 1.72 2.56 1.27 1.41-.74 2.94-1.05 4.45-1.48 1.9-.54 3.82-1.03 5.44-2.25.19-.14.4-.33.63-.25 1.1.39 1.14-.39 1.25-1.1.06-.49.15-.98.25-1.59zm-80.03-37.64c-.17-1.01-.36-2.02-.5-3.03-.13-.99-.01-1.74-1.58-1.96-2.12-.3-4.11-1.42-5.69-2.99-.56-.55-.75-.29-.98.2-.15.33-.27.68-.4 1.03-.1.27-.15.47.2.64 1.64.84 3.08 1.99 4.55 3.07 1.41 1.05 3.22 1.57 4.4 3.04zm79.13 42.01c-1.79 1.4-3.84 1.5-5.61 2.27-1.84.8-3.68 1.57-5.78 1.45.66 1.77 1.21 2.08 2.78 1.59.91-.29 1.87-.25 2.79-.54.91-.28 1.9-.38 2.82-.67.82-.26 1.87-.31 2.26-1.24.36-.85.48-1.79.74-2.86zm-49.18 11.14c.82.5 1.27 1.55 2.31 1.53 3.89-.08 7.79-.08 11.64-.84 1.41-.28 1.86-.79 1.83-2.34-5.15 1.51-10.4 2.16-15.78 1.65zm-32.34-74.57c-.03.01-.08.01-.09.03-1.41 2.22-2.5 4.61-3.56 7-.16.35.01.69.35.65.83-.1 1.25.54 1.8.91.71.47 1.36 1.03 2.15 1.43.08-.95-.48-9.51-.65-10.02zm-11.02 71.61c-.88 1.27-.8 2.19.51 3.72 1.68 1.95 3.46 3.83 5.8 5 .51.25.88 1.03 1.39.83.49-.19.19-1.04.53-1.54.26-.38.21-.71-.36-.9-.98-.33-1.84-.86-2.65-1.53-.56-.47-1.07-1-1.66-1.44-1.47-1.09-2.77-2.33-3.56-4.14zm-5.42 44.13c-.05 1.4.44 2.22 1.67 2.82 2.01.98 4.11 1.53 6.28 1.42 2.91-.14 5.33-1.43 7.09-3.87.5-.7.38-1.15-.05-1.75-4.13 5.35-8.53 6.4-14.99 1.38zm26.37-69.64c-.83.51-1.16 1.18-1.13 2 .12 3 1.43 5.39 3.74 7.25.58.47.87-.23 1.3-.36.42-.13.14-.42.03-.64-1.32-2.73-2.9-5.32-3.94-8.25zm-14.24-37.28c-.21.53-.35 1.05-.61 1.5-.44.79-.25 1.26.48 1.81 1.74 1.35 3.74 2.15 5.75 3.03.24-.94-.28-1.79-.22-2.68.01-.16-.15-.27-.34-.29-.8-.11-1.33-.7-1.96-1.13-1.06-.7-1.94-1.64-3.1-2.24zm7.4 56.72c.23-.3.43-.56.65-.81.1-.11.12-.34.07-.33-.89.2-.31-.28-.27-.53.04-.22-.06-.4-.29-.46-.49-.14-.74-.57-1.02-.93-1.44-1.92-2.84-3.86-3.24-6.37-.89.75-1.29 1.57-1.08 2.73.38 2.1 1.6 3.65 3.11 5.01.65.57 1.33 1.09 2.07 1.69zm2.19-2.54c.14-.64.65-.85 1.05-1.19.45-.38.82-.75-.01-1.25-.88-.53-1.61-1.28-2.27-2.08-1.14-1.38-1.93-2.96-2.95-4.74-.7 4.17 2.02 6.51 4.18 9.26zm-9.08-3.64c-.24 1.31-.11 2.7.37 3.86.87 2.1 2.44 3.77 4.16 5.27.15.13.37.29.52.07.39-.57.74-1.17 1.09-1.78.11-.19-.06-.35-.21-.38-.97-.23-1.49-1.06-2.22-1.61-1.82-1.37-3.09-3.15-3.71-5.43zm3.01 13.42c.13-.22.09-.54-.21-.6-1.08-.2-1.71-1.03-2.42-1.7-1.52-1.46-3.37-2.67-4.04-4.84-.06-.19-.18-.38-.44-.28-.26.11-.31.38-.27.6.13.65.25 1.31.61 1.88 1.34 2.1 3.04 3.89 4.8 5.61 1.25 1.22 1.47 1.1 1.97-.67zm-8.7-4.54c-.92.97-.81 1.18-.18 2.49.87 1.79 2.24 3.04 3.8 4.15 1 .71 2.04 1.38 3.08 2.05.18.11.53.29.64.07.17-.34.2-.76.25-1.15.02-.17-.18-.22-.29-.16-.81.49-1.25-.19-1.7-.6-2.2-2-4.23-4.14-5.6-6.85zm15.54-18.47c.04.32-.04.63-.02.97.17 2.62 1.52 4.61 3.36 6.32.21.2.27.9.86.48.33-.23.65-.48.93-.76.18-.18.03-.32-.14-.47-2.16-1.84-3.48-4.16-3.94-6.96-.04-.23.03-.64-.33-.62-.28.01-.56.22-.63.56-.04.15-.06.32-.09.48zm-1.67 1.16c-1.73 1-1.79 1.03-1.3 2.42.5 1.42.98 2.85 1.97 4.05.68.83 1.4 1.6 2.23 2.26.35.28.61.28.99-.11.48-.49.05-.6-.17-.84-2.04-2.18-3.61-4.59-3.72-7.78zm-13.03 82.26c.88 1.54 1.71 1.95 3.22 1.68.3-.05.59-.1.89-.14 1.88-.22 3.7-.56 5.38-1.53 1.67-.96 2.73-2.52 4.06-3.81.47-.45.14-1.31-.24-1.69-.47-.46-.57.39-.9.58-.18.11-.32.34-.42.54-.99 1.88-2.47 3.26-4.24 4.38-2.63 1.66-5.39 1.41-7.75-.01zm65.26-238.04c.86.17 2.34-.42 2.44-.97.22-1.21-1.05-3.27-2.09-3.41-.87-.11-1.87.57-2.03 1.4-.22 1.08.75 2.8 1.68 2.98zm-56.09 128.28c-.16-.73-.59-1.6-1.09-1.85-2.22-1.13-4.02-2.84-6.12-4.1-.27-.16-.58-.7-.88-.17-.2.35-.49.86.19 1.23.67.36 1.24.89 1.87 1.32 1.51 1.02 3.05 1.99 4.52 3.07.48.35.85.8 1.51.5zm-6.22 38.08c-.23.5-.34.77-.48 1.01-.14.25-.37.4-.3.78.6 3.65 3.35 5.64 5.92 7.77.32.26.44.06.55-.25.09-.27.29-.51-.18-.57-.37-.04-.6-.3-.83-.52-2.31-2.2-4.15-4.68-4.68-8.22zm52.37 15.53c-3.35.31-6.66.54-10.02.6.77.42 1.38 1.47 2.23 1.29 2.3-.49 4.65-.6 6.95-1.05.44-.09.68-.37.84-.84zm-40.78 54.84c-1.71.95-2.43 2.86-4.24 3.35-1.66.45-3.32.87-5.03 1.31 3.1 1.36 8.04-1.05 9.27-4.66zm66.89-61.67c1.11 1.76 1.42 1.83 3.24 1.02 1-.44 2.02-.83 3.06-1.14.68-.2.8-.62.82-1.28-2.23 1.36-4.7 1.02-7.12 1.4zm-18.36-166.62c.17.03.33.06.5.08.29.04.64.18.65-.32 0-.42.44-.97-.24-1.22-1.1-.4-2.13-.93-3.18-1.43-.78-.37-.79.46-1.12.77-.38.36-.06.68.22.8 1.06.45 1.97 1.23 3.17 1.32zm1.57-3.44c.76-2.17.7-2.3-.72-3.04-.53-.28-.73-.19-1.02.26-.32.5-.74.95-1.15 1.46.9.55 1.85.9 2.89 1.32zm-59.45 123.59c-1.73-1.18-3.28-2.22-4.86-3.3-.28 2.03 1.5 2.78 4.86 3.3zm82.5 47.81c-.85.3-1.45.45-1.98.72-.39.2-1.17.17-1.09.63.1.63.91.48 1.42.63.3.09.4-.09.53-.3.29-.48.62-.94 1.12-1.68zm-27.6-166.75c.02-.04.03-.09.05-.13-.38-.23-.76-.45-1.13-.69-.96-.61-.96-.61-1.64.38.93.15 1.83.3 2.72.44zm-7.26 175.01c-.89.27-1.83.16-2.82.34.96.6 1.82.5 2.82-.34z" fill="#fff" stroke="#020304" stroke-miterlimit="10" stroke-width=".25"/><path d="m46.89 277.86c1.14-.54 2.48-.51 3.55-1.25 1.35-.94 2.51-2.07 3.32-3.5.2-.36.44-.51.76-.67.4.58.11 1.24.28 1.84.04.13-.05.38-.15.45-1.33.79-2.56 1.72-3.8 2.64-.55.41-1.31.36-1.99.41-.22.02-.48-.02-.38.35-.53-.1-1.06-.19-1.59-.27z" fill="#ec6424"/><path d="m51.27 278.57c1.18-.22 2.07-1.11 3.25-1.43-.05.77-.65 1.2-.86 1.82-.8-.13-1.6-.26-2.39-.39z" fill="#f2f2f2"/><path d="m124.23 32.2c-.65-.17-1.29-.36-1.89-.68-1.26-.68-2.19-.35-2.6 1.02-.25.82-.75 1.48-1.17 2.18-.49.83-1.18.66-1.85.06-1.73-1.55-2.78-3.74-4.76-5.04-.18-.12-.36-.31-.22-.49.26-.35.59-.69 1.08-.6.46.08.91.28 1.23.62.65.69 1.51 1.08 2.25 1.64.5.38.82.27 1.18-.15.6-.67 1.23-1.31 1.83-1.99.28-.32.52-.35.93-.17 1.49.64 2.99 1.3 4.54 1.77.88.27 1.16 1 1.03 1.52-.09.44-.98.47-1.58.31z" fill="#121213"/><path d="m90.59 15.21c.53.24.78.79.8 1.4.02.79.63 1.31.84 2.01.11.36.65.26.97.08.7-.39 1.39-.8 2.06-1.24.97-.63 1.33-.54 1.48.61.14 1.09.15 2.18.43 3.27.12.49-.42.95-.89 1.11-.52.18-.52-.36-.62-.69-.11-.38-.35-.78-.31-1.14.14-1.04-.24-1.13-1-.65-.55.35-1.18.57-1.63 1.09-.31.36-1.43.05-1.61-.52-.41-1.3-.86-2.57-1.48-3.8-.28-.54.41-1.62.96-1.53z" fill="#121213"/><path d="m91.11 201.09c1.87.37 3.75.55 5.65.46.52-.02.58.13.53.54-.1.97-.21 1.93-.28 2.9-.03.48-.33.57-.71.69-3.03.93-6.08 1.62-9.27 1.75-3.2.13-6.4.31-9.61.31-1.08 0-2.12-.33-3.21-.24-.47.04-.71-.33-.97-.63-1.86-2.2-3.5-4.56-5.15-6.92-1.13-1.61-2.29-3.23-3.16-4.97-.95-1.88-1.87-3.79-2.9-5.62-1.26-2.23-2.08-4.67-3.38-6.87-.21-.35-.18-.7-.26-1.03-.68-2.61-1.76-5.06-2.68-7.58-1.09-3-1.84-6.1-2.58-9.2-.68-2.88-1.36-5.77-1.83-8.68-.34-2.16-.55-4.37-.79-6.56-.28-2.58-.7-5.15-.7-7.74 0-3.83-.33-7.65-.04-11.48.18-2.47.48-4.92.82-7.37.1-.72.36-1.43.52-2.14.1-.44.39-.48.76-.44 2.7.29 5.39.59 8.09.85.59.06 1.19-.01 1.78-.05 2.95-.22 5.91-.08 8.87-.13 3.33-.06 6.66.03 9.98-.23 3.15-.25 6.3-.45 9.45-.74 3.55-.33 7.02-1.11 10.5-1.83 3.37-.7 6.53-2.07 9.8-3.11 3.35-1.06 6.72-2.11 9.7-4.06.71-.46 1.11-.15 1.48.4 1.76 2.69 2.98 5.63 3.84 8.7.86 3.09 1.78 6.15 2.8 9.18 1.13 3.33 1.88 6.76 2.57 10.19.81 3.98 1.3 8 1.66 12.05.53 5.94 1.13 11.87 1.1 17.84-.01 2.8-.21 5.6-.4 8.39-.25 3.81-.36 7.63-.98 11.4-.08.47-.27.78-.66 1.13-2.45 2.2-5.55 3.02-8.5 4.15-2.06.79-4.2 1.38-6.25 2.2-1.5.6-3.11.67-4.63 1.14-.36.11-.4-.2-.49-.36-1.38-2.31-2.8-4.59-3.8-7.11-.3-.74-.87-1.35-1.04-2.16-.04-.21-.21-.31-.36-.21-.25.16-.64.2-.62.67.03.81.16 1.6.48 2.34.61 1.41 1.22 2.82 1.92 4.18.24.47.18.67-.24.84-3.02 1.23-6 2.62-9.22 3.21-2.51.46-5.05.06-7.55-.37-.68-.12-1.37-.17-2.04-.43s-1.24.29-1.4 1.26c-.1.6.27.94.83 1.05.85.17 1.71.3 2.57.44zm-18.33-42.19c2.08.33 4.14.2 6.24.02 3.28-.28 6.49-.96 9.74-1.46 3.15-.49 5.42-2.23 6.88-5.04.19-.37.71-.69.54-1.14-.39-.99-.29-2.02-.48-3.03-.49-2.61-.91-5.24-1.4-7.86-.5-2.69-.98-5.4-2.28-7.84-.82-1.53-.92-1.94-2.97-1.73-3 .3-6.01.49-8.98 1.14-2.64.58-5.25 1.17-7.85 1.96-2.91.89-3.82 3.29-4.7 5.65-.86 2.31-.06 4.73.17 7.1.23 2.34.71 4.69.64 7.02-.06 2.12 1.3 3.26 2.36 4.63.44.57 1.36.47 2.09.58zm47.92-11.64c.11-1.33.28-2.95.38-4.58.17-2.67-.08-5.34-.32-7.99-.23-2.61-.38-5.25-1.31-7.75-.16-.44-.36-.89-.87-.74-.42.12-.6.56-.5 1.04.04.2.06.39.11.59.63 2.5.9 5.05 1.13 7.61.02.25-.09.32-.27.45-3.52 2.63-7.63 3.6-11.86 4.31-1.18.2-2.37.1-3.56.35-1.27.28-2.36-.09-3.16-1.31-.71-1.08-1.68-1.99-2.52-2.98-.28-.34-.43-.88-1.04-.36-.54.45-.37.84-.03 1.28.64.81 1.27 1.63 1.9 2.45 2.07 2.7 4.18 5.36 6.64 7.71 1.68 1.61 3.39 3.18 4.97 4.89 1.03 1.11 2.33 1.94 3.72 2.53 2.25.95 4.17-.32 5.19-2.38.76-1.5 1.01-3.18 1.4-5.12z" fill="#47b69d" stroke="#141414" stroke-miterlimit="10" stroke-width=".25"/><path d="m92.59 95.89c2.19-.01 10.95-1.53 13.14-1.51 1.36.01 2.04 3.73 2.2 5.1.22 1.93 1.28 3.58 1.77 5.41.03.12.14.23.22.34.87 1.07.87 1.08-.45 1.56-5 1.82-10.18 3.02-15.35 4.19-3.33.76-6.73 1.49-10.16 1.58-3.53.09-7.04.34-10.55.53-3.55.2-7.08-.03-10.62-.23-1.74-.1-3.47-.25-5.19-.48-.25-.03-.69.1-.47-.46.63-1.63-.03-3.26-.01-4.89.01-.87-.07-1.72-.3-2.57-.2-.74 0-1.17.96-1.27 1.64-.18 3.29-.49 4.92-.58 1.61-.09 3.17-.46 4.76-.58.24-.02.7.17.65-.35-.04-.42-.34-.46-.74-.45-3.2.1-6.34.64-9.48 1.17-.37.06-.92.46-1.02-.18-.09-.56-.25-1.38.79-1.43 1.57-.08 3.14-.17 4.71-.26 1.92-.11 3.84-.22 5.86-.34-.47-.56-1-.7-1.62-.7-2.64.01-5.27-.04-7.88.53-.41.09-.85-.03-1.29.08-.56.14-.81-.15-.74-.73.04-.33.09-.67.11-1 .02-.4.21-.48.59-.46 2.75.18 5.49.34 8.24.5.69.04 1.37.05 2.3.08-.67-.52-1.22-.63-1.82-.71-2.69-.37-5.39-.43-8.09-.49-1.32-.03-1.34-.06-1.17-1.39.21-1.59-.23-3.19.07-4.79.28-1.51.28-3.09 1.29-4.38.14-.18.11-.35.11-.55.03-1.63-.44-3.19-.61-4.79-.13-1.13 0-2.29.01-3.63.86 1.23 1.42 2.39 1.68 3.67.14.71.6 1.33.57 2.1-.01.29.22.7.62.66.33-.04.43-.34.39-.7-.02-.21.11-.44.17-.66.06-.06.13-.11.19-.17.1.02.31.16.23-.09-.8-2.63-1.17-5.43-3.11-7.6-.42-.47-.1-.96.02-1.4.09-.35.36-.06.54.05 1.07.62 1.85 1.59 2.77 2.37 1.36 1.16 2.63 2.45 3.91 3.7.29.28.56.42.97.37 2.12-.24 4.24-.51 6.32-.98 3.19-.72 6.4-1.36 9.61-1.95 1.11-.2 2.22-.35 3.33-.52.94-.15 1.57-.85 2.01-1.53 1.93-3 4.43-5.41 7.18-7.62.13-.1.23-.24.35-.35.11-.11.24-.21.47-.26-.35.87-.63 1.75-.81 2.66-.39 1.92-1.13 3.77-1.07 5.78.01.32.15.57.17.87.02.27-.1.76.28.73.33-.02.78-.19.88-.68.32-1.43.84-2.81 1.12-4.25.28-1.42 1-2.65 1.81-3.83.58.37.61.9.76 1.37.66 2.05 1.45 4.06 1.85 6.21.33 1.82.44 3.66.49 5.48.04 1.46.73 2.68 1.03 4.02.25 1.08.76 2.12 1.35 3.09.31.5.17.69-.45.84-3.09.74-6.26 1.19-9.24 2.27-2.58.94-5.21 1.77-7.66 3.05-.61.32-1.28.52-1.9.83-.38.19-.63.49.02.7-.02.5.42.68.69.97-.01.2-.25.42.05.6.64.05 3.41-1.65 7.27-1.67zm-15.74 3.8c1.08.12 2-.57 1.85-1.22-.13-.58-.04-.92.42-1.29.41-.33.39-.83.1-1.27-.31-.46-.72-.56-1.21-.26-.78.48-1.64.74-2.54.84-.48.05-.92.21-1.26.56-.34.37-.55.92-.1 1.2.95.61 2 1.06 2.74 1.44zm-7.29-8.51c-.17.14-.47.16-.61.54-.25.63.14 2.34.71 2.83.49.42.85.47 1.28-.15.69-.98-.01-2.86-1.38-3.22zm13.07-1.39c-.51.06-1 .12-.96.71s.13 1.2.3 1.76c.23.76.98.96 1.58.55.89-.6.16-1.39.25-2.07.1-.74-.99-.37-1.17-.95zm2.21 7.53c-.23-.31-.35-.57-.72-.43.11.31.27.46.72.43z" fill="#ffcf02" stroke="#020304" stroke-miterlimit="10" stroke-width=".25"/><path d="m47.16 64.86c3.42-4.31 7.38-7.64 11.91-10.36 2.43-1.46 4.84-2.93 7.45-4.03 2.92-1.23 5.92-2.24 9.01-2.98 1.81-.43 3.59-1 5.4-1.47 2.17-.57 4.39-.78 6.61-.99 3.16-.3 6.33-.12 9.45.48 2.72.53 5.33 1.36 7.77 2.75.97.56 2.03 1 3.04 1.52 3.47 1.79 5.58 4.86 7.42 8.11 1.75 3.09 3.19 6.33 4.49 9.65.87 2.24 1.98 4.38 2.71 6.67.91 2.9 1.6 5.84 1.65 8.91.09 5.35-.78 10.54-2.69 15.55-.42 1.09-1.1 2.04-1.71 3.04-.12.2-.27.33-.52.42-.95.34-1.85.78-2.69 1.34-.46.3-.62.25-.71-.4-.58-4.22-.7-8.49-1.26-12.72-.72-5.4-1.57-10.77-2.45-16.15-.81-4.94-1.18-9.93-1.38-14.93-.02-.57-.08-1.14-.19-1.69-.3-1.49-.93-1.92-2.43-1.71-1.35.2-2.76.08-4.06.34-5.7 1.15-11.53 1.09-17.25 2.03-4.07.67-8.2 1.04-12.28 1.74-5.94 1.02-11.89 2.05-17.83 3.07-3.09.54-6.1 1.43-9.46 1.81z" fill="#fff"/><path d="m53.42 118.49c-1.37-.52-2.98-.43-4.3-1.35-1.07-.74-1.42-3.26-.57-4.19.18-.19.38-.1.55-.03 2.27.85 4.65.97 7.04 1.17 2.2.18 4.4.5 6.61.6 3.35.16 6.7.38 10.06.16 3.57-.23 7.17-.21 10.74-.46 2.75-.19 5.46-.8 8.19-1.24 4.33-.71 8.54-1.9 12.78-2.94 4.7-1.15 8.99-3.26 13.25-5.47.88-.46 1.81-.82 2.71-1.24.24-.11.53-.23.66-.43.18-.26.37-.59.65-.5.19.06.31.46.38.73.54 2.2-.6 4.41-2.45 5.72-2.76 1.96-5.92 2.9-9.03 3.96-2.59.88-5.06 2.09-7.74 2.73-5.04 1.2-10.08 2.33-15.27 2.64-4.19.25-8.37.75-12.58.77-3.36.01-6.73-.22-10.09-.11-3.76.12-7.49-.2-11.23-.49-.09-.01-.19-.01-.36-.03z" fill="#fefefe"/><path d="m31.01 249.21c.88.36 1.66.92 2.6 1.2 2.68.81 5.39.99 8.08.35 1.1-.26 2.27-.67 3.22-1.43.39-.31.65-.25.73.3.05.36.2.7.26 1.06.1.53.09.93-.49 1.32-.98.66-1.61 1.73-2.53 2.51-1.59 1.36-3.3 1.39-5.2 1.07-2.94-.49-4.91-2.36-6.74-4.48-.32-.37-.45-.82-.58-1.26-.22-.7-.16-.76.65-.64z" fill="#f2f2f2"/><path d="m85.31 96.94c-.28-.29-.71-.47-.69-.97 1.36-.15 2.54-.83 3.79-1.29 2.45-.9 4.8-2.04 7.33-2.79 2.31-.68 4.66-1.15 6.98-1.79.47-.13.98-.15 1.47-.22.21-.03.35-.04.45.23.37.97.78 1.92 1.19 2.87.19.43.06.61-.4.65-2.25.19-4.5.39-6.74.59-4.1.35-8.18.88-12.12 2.13-.44.12-.84.38-1.26.59z" fill="#ffcf02" stroke="#020304" stroke-miterlimit="10" stroke-width=".25"/><path d="m31.09 228.53c.85.89 1.57 1.71 2.51 2.28 1.64.99 3.29 1.87 5.22 2.27 1.25.26 2.5.54 3.76.79 1.37.27 1.78 1.81.97 2.95-.62.87-1.48 1.04-2.38 1.07-2.23.08-3.98-1.16-5.7-2.33-1.71-1.16-2.94-2.8-4.02-4.56-.66-1.07-.68-1.06-.36-2.47z" fill="#f2f2f2"/><path d="m131.62 192.28c-.28 1.17-.36 2.28-.84 3.17-.29.55-1.19.77-1.82 1.14-3.55 2.07-7.46 3.14-11.42 4.06-.65.15-1.32.19-1.97.33-1.75.36-1.92.28-2.58-1.25 6.25-2.19 12.86-3.47 18.63-7.45z" fill="#ffcf02" stroke="#020304" stroke-miterlimit="10" stroke-width=".25"/><path d="m30.01 237.72c1.48 2.08 3.42 3.26 5.59 3.94 2.27.71 4.65.95 7.02.31.38-.1.78-.15 1.16-.28.22-.07.43-.26.62-.01.15.2.1.44-.04.66-1.07 1.62-2.32 3-4.41 3.17-2.42.2-4.55-.54-6.5-2-1.1-.82-2.21-1.58-3.16-2.58-.92-.97-.67-1.95-.28-3.21z" fill="#f2f2f2"/><path d="m35.55 267.81c1.8.45 3.6.22 5.34.58 3.2.67 6.85-1.36 8.08-4.47.23-.58.63-1.08 1.01-1.7.22.36.39.67.59.95.62.86.56 1.64.05 2.59-1.36 2.55-3.35 4.32-6.03 5.34-1.02.39-2.04.12-3.05-.12-1.64-.4-3.05-1.31-4.57-1.97-.56-.25-1.25-.28-1.42-1.2z" fill="#f2f2f2"/><g fill="#ffcf02" stroke="#020304" stroke-miterlimit="10" stroke-width=".25"><path d="m75.44 209.39c1.69.31 3.16.37 4.61.28 3.07-.2 6.15.06 9.21-.46 2.36-.41 4.74-.67 6.93-1.75.39-.19.66-.1.57.43-.1.56-.1 1.16-.31 1.68-.26.64-.98.37-1.49.51-4.61 1.25-9.31 1.61-14.08 1.44-1.15-.04-2.26-.27-3.39-.39-.95-.1-1.41-.84-2.05-1.74z"/><path d="m45.33 247.72c-.98-.28-1.68.31-2.32.74-1.09.74-2.3.93-3.51 1.03-2.23.18-4.38-.23-6.41-1.24-1.11-.55-2.13-1.2-2.96-2.14-.76-.87-.19-1.91-.44-2.89.97 1.05 2.23 1.62 3.33 2.38 2.22 1.53 4.71 2.02 7.43 1.57 1.76-.29 3.02-1.2 4.17-2.59.5 1 .45 2.05.71 3.14z"/><path d="m47.31 256.51c.45.38.19.71.04 1.01-.84 1.8-1.86 3.47-3.48 4.68-1.12.84-2.55 1-3.81.96-2.29-.07-4.6-.52-6.44-2.07-.63-.54-1.39-1.06-1.83-2.17 2.87 1.08 5.51 1.99 8.41 1.48 2.83-.49 5.2-1.78 7.11-3.89z"/><path d="m32.33 222.56c.68.43.83 1.18 1.28 1.69 1.26 1.43 2.72 2.65 4.08 3.97 1.07 1.04 2.49 1.55 3.9 1.91.73.18 1.34-.52 1.87-1.2.32.93.14 1.76.17 2.57.01.36-.17.42-.51.38-3.08-.38-6.03-1.17-8.81-2.58-1.02-.52-1.66-1.43-2.4-2.24-.95-1.03-.08-2.09-.01-3.13.03-.44.26-.86.43-1.37z"/><path d="m30.5 232.36c.88 1.59 1.81 2.83 3.02 3.83 2.23 1.81 4.52 3.52 7.58 3.51 1.19 0 2-.82 2.72-1.7.66 1.3.57 1.7-.71 2.22-1.21.49-2.43.97-3.83.68-1.45-.3-2.93-.31-4.3-1.07-1.28-.71-2.35-1.59-3.31-2.65-.43-.48-.63-1.22-1.43-1.31-.21-.02-.15-.19-.14-.3.06-.99.1-1.97.4-3.21z"/><path d="m33.27 263.48c6.8 2.78 12.05 2.32 15.06-4.51.28.02.22.3.3.45.36.6.71 1.16-.21 1.69-.89.51-.83 1.61-1.12 2.45-.4 1.18-1.54 2.47-2.79 2.68-2.73.47-5.43.36-8.12-.3-.07-.02-.13-.02-.2-.04-2.07-.44-2.07-.44-2.92-2.42z"/></g><path d="m33.43 218.59c1.11 2.17 2.87 3.35 4.7 4.47.9.55 1.9.78 2.84 1.19.86.38 1.6.91 2.39 1.39.77.47.43 1.2.29 1.77-.12.49-2.02.78-2.61.54-1.82-.74-3.12-2.14-4.49-3.45-1.23-1.19-2.27-2.53-3.09-4.04-.3-.55-.42-1.04-.03-1.87z" fill="#f2f2f2"/><path d="m44.1 221.05c.2.92-.11 1.72-.17 2.55-.03.44-.29.42-.64.24-2.48-1.22-4.98-2.39-7.04-4.3-.78-.72-1.16-1.8-2.18-2.3-.21-.1-.02-.43.05-.65.24-.76.49-1.52.78-2.43 1.09 1.67 2.4 3.02 3.71 4.38 1.24 1.29 2.66 2.33 4.41 2.84.39.11.85.3 1.08-.33z" fill="#ffcf02" stroke="#020304" stroke-miterlimit="10" stroke-width=".25"/><path d="m130.08 197.92c-.1.61-.18 1.1-.26 1.6-.11.71-.14 1.49-1.25 1.1-.23-.08-.45.11-.63.25-1.62 1.22-3.54 1.71-5.44 2.25-1.5.43-3.04.74-4.45 1.48-.86.45-2.36-.34-2.56-1.27-.09-.42.23-.42.48-.47.75-.14 1.51-.23 2.25-.41 2.89-.7 5.77-1.42 8.48-2.73 1.11-.54 2.21-1.08 3.38-1.8z" fill="#f2f2f2"/><path d="m50.05 160.28c-1.17-1.48-2.98-1.99-4.4-3.04-1.47-1.09-2.91-2.24-4.55-3.07-.35-.18-.3-.38-.2-.64.13-.34.24-.69.4-1.03.23-.49.42-.75.98-.2 1.58 1.57 3.57 2.7 5.69 2.99 1.56.22 1.45.97 1.58 1.96.13 1.02.33 2.02.5 3.03z" fill="#f2f2f2"/><path d="m129.18 202.29c-.26 1.07-.39 2.01-.74 2.85-.39.93-1.43.98-2.26 1.24-.92.29-1.91.39-2.82.67-.93.29-1.88.25-2.79.54-1.57.5-2.13.18-2.78-1.59 2.1.13 3.94-.65 5.78-1.45 1.78-.75 3.82-.85 5.61-2.26z" fill="#ffcf02" stroke="#020304" stroke-miterlimit="10" stroke-width=".25"/><path d="m80 213.43c5.38.52 10.62-.13 15.78-1.66.03 1.56-.41 2.07-1.83 2.34-3.85.76-7.75.77-11.64.84-1.04.03-1.48-1.03-2.31-1.52z" fill="#f2f2f2"/><path d="m47.66 138.86c.17.5.73 9.07.65 10.02-.79-.4-1.44-.96-2.15-1.43-.55-.37-.97-1.01-1.8-.91-.35.04-.51-.29-.35-.65 1.06-2.4 2.15-4.79 3.56-7 .01-.01.06-.02.09-.03z" fill="#47b69d" stroke="#141414" stroke-miterlimit="10" stroke-width=".25"/><path d="m36.64 210.47c.79 1.81 2.1 3.06 3.57 4.15.59.44 1.1.97 1.66 1.44.81.67 1.67 1.21 2.65 1.53.57.19.61.52.36.9-.34.49-.04 1.35-.53 1.54-.52.2-.89-.57-1.39-.83-2.35-1.18-4.13-3.05-5.8-5-1.33-1.54-1.41-2.46-.52-3.73z" fill="#f2f2f2"/><path d="m31.22 254.6c6.46 5.02 10.86 3.97 14.99-1.38.43.6.55 1.06.05 1.75-1.76 2.44-4.18 3.72-7.09 3.87-2.17.1-4.27-.44-6.28-1.42-1.23-.6-1.71-1.42-1.67-2.82z" fill="#ffcf02" stroke="#020304" stroke-miterlimit="10" stroke-width=".25"/><path d="m57.59 184.96c1.04 2.93 2.62 5.53 3.95 8.25.11.22.39.51-.03.64-.43.13-.72.83-1.3.36-2.31-1.86-3.62-4.26-3.74-7.25-.04-.82.3-1.49 1.12-2z" fill="#f2f2f2"/><path d="m43.35 147.68c1.17.6 2.04 1.54 3.09 2.24.63.42 1.16 1.02 1.96 1.13.2.03.35.14.34.29-.06.9.46 1.74.22 2.68-2-.88-4-1.68-5.75-3.03-.72-.56-.92-1.02-.48-1.81.26-.45.41-.96.62-1.5z" fill="#ffcf02" stroke="#020304" stroke-miterlimit="10" stroke-width=".25"/><path d="m50.75 204.4c-.73-.6-1.42-1.12-2.06-1.69-1.52-1.37-2.73-2.91-3.11-5.01-.21-1.16.19-1.98 1.08-2.73.4 2.51 1.8 4.45 3.24 6.37.27.37.52.79 1.02.93.23.07.33.25.29.46-.05.26-.62.73.27.53.05-.01.03.21-.07.33-.23.25-.43.52-.66.81z" fill="#ffcf02" stroke="#020304" stroke-miterlimit="10" stroke-width=".25"/><path d="m52.94 201.86c-2.16-2.75-4.88-5.1-4.18-9.27 1.01 1.78 1.81 3.37 2.95 4.74.67.81 1.4 1.55 2.27 2.08.83.5.46.87.01 1.25-.41.35-.92.57-1.05 1.2z" fill="#f2f2f2"/><path d="m43.86 198.22c.62 2.27 1.88 4.05 3.71 5.43.73.55 1.25 1.38 2.22 1.61.16.04.32.2.21.38-.35.6-.7 1.2-1.09 1.78-.15.22-.37.06-.52-.07-1.72-1.49-3.29-3.17-4.16-5.27-.47-1.16-.6-2.55-.37-3.86z" fill="#f2f2f2"/><path d="m46.87 211.64c-.5 1.78-.71 1.9-1.97.67-1.77-1.72-3.47-3.52-4.8-5.61-.36-.57-.49-1.23-.61-1.88-.04-.21.01-.49.27-.6s.38.08.44.28c.67 2.18 2.52 3.38 4.04 4.84.7.68 1.34 1.5 2.42 1.7.29.05.34.38.21.6z" fill="#f2f2f2"/><path d="m38.17 207.1c1.37 2.71 3.4 4.85 5.6 6.85.45.41.89 1.08 1.7.6.1-.06.31-.01.29.16-.05.39-.08.81-.25 1.15-.11.22-.46.05-.64-.07-1.04-.67-2.07-1.34-3.08-2.05-1.56-1.11-2.93-2.36-3.8-4.15-.63-1.31-.74-1.52.18-2.49z" fill="#ffcf02" stroke="#020304" stroke-miterlimit="10" stroke-width=".25"/><path d="m53.71 188.63c.03-.16.04-.33.08-.49.08-.33.36-.55.63-.56.36-.01.3.39.33.62.46 2.81 1.77 5.13 3.94 6.96.18.15.33.29.14.47-.28.28-.6.53-.93.76-.58.42-.65-.29-.86-.48-1.83-1.72-3.18-3.7-3.36-6.32 0-.32.08-.64.03-.96z" fill="#ffcf02" stroke="#020304" stroke-miterlimit="10" stroke-width=".25"/><path d="m52.04 189.79c.11 3.19 1.68 5.6 3.72 7.78.22.24.65.35.17.84-.38.39-.64.4-.99.11-.83-.67-1.55-1.44-2.23-2.26-.98-1.2-1.47-2.63-1.97-4.05-.49-1.39-.43-1.41 1.3-2.42z" fill="#ec6424"/><path d="m39.01 272.05c2.36 1.43 5.12 1.68 7.76.01 1.78-1.12 3.26-2.5 4.24-4.38.11-.2.24-.43.42-.54.32-.19.43-1.04.9-.58.38.37.7 1.24.24 1.69-1.33 1.29-2.4 2.85-4.06 3.81-1.69.97-3.51 1.31-5.38 1.53-.3.04-.6.09-.89.14-1.52.26-2.35-.15-3.23-1.68z" fill="#ec6424"/><path d="m104.27 34.01c-.92-.18-1.89-1.9-1.68-2.97.17-.83 1.16-1.52 2.03-1.4 1.04.14 2.31 2.2 2.09 3.41-.1.54-1.58 1.13-2.44.96z" fill="#f2f2f2"/><path d="m48.18 162.29c-.67.3-1.03-.15-1.52-.51-1.47-1.07-3.02-2.04-4.52-3.07-.63-.43-1.2-.96-1.87-1.32-.68-.37-.39-.88-.19-1.23.3-.53.62.01.88.17 2.11 1.26 3.91 2.97 6.12 4.1.51.26.94 1.13 1.1 1.86z" fill="#ec6424"/><path d="m41.96 200.37c.54 3.54 2.38 6.02 4.68 8.23.24.23.47.48.83.52.47.06.27.3.18.57-.11.31-.24.51-.55.25-2.58-2.13-5.32-4.13-5.92-7.77-.06-.39.16-.54.3-.78.14-.25.24-.52.48-1.02z" fill="#ec6424"/><path d="m94.33 215.9c-.16.47-.4.75-.85.84-2.3.46-4.65.57-6.95 1.05-.84.18-1.45-.88-2.23-1.29 3.37-.07 6.68-.3 10.03-.6z" fill="#ec6424"/><path d="m53.55 270.74c-1.23 3.61-6.16 6.03-9.27 4.67 1.71-.44 3.38-.86 5.03-1.31 1.8-.5 2.53-2.41 4.24-3.36z" fill="#f2f2f2"/><path d="m120.44 209.07c2.42-.38 4.88-.04 7.12-1.4-.01.66-.13 1.08-.82 1.28-1.04.31-2.07.7-3.06 1.14-1.81.81-2.12.74-3.24-1.02z" fill="#f2f2f2"/><path d="m102.08 42.45c-1.2-.09-2.12-.87-3.17-1.31-.28-.12-.6-.44-.22-.8.33-.31.34-1.14 1.12-.77 1.05.5 2.08 1.03 3.18 1.43.68.25.24.8.24 1.22 0 .5-.36.37-.65.32-.17-.03-.33-.06-.5-.09z" fill="#f2f2f2"/><path d="m103.65 39.01c-1.04-.42-1.99-.77-2.89-1.32.41-.51.82-.96 1.15-1.46.29-.46.49-.54 1.02-.26 1.41.74 1.48.87.72 3.04z" fill="#f2f2f2"/><path d="m44.2 162.6c-3.36-.52-5.14-1.27-4.86-3.3 1.59 1.08 3.13 2.12 4.86 3.3z" fill="#f2f2f2"/><path d="m126.7 210.41c-.5.74-.83 1.2-1.12 1.68-.13.21-.23.39-.53.3-.52-.16-1.32 0-1.42-.63-.08-.46.7-.43 1.09-.63.53-.27 1.12-.42 1.98-.72z" fill="#ec6424"/><path d="m99.1 43.66c-.9-.15-1.79-.29-2.72-.45.69-.99.68-.99 1.64-.38.37.24.75.46 1.13.69-.01.05-.03.1-.05.14z" fill="#f2f2f2"/><path d="m91.84 218.67c-1 .84-1.86.94-2.82.34.99-.17 1.92-.07 2.82-.34z" fill="#f2f2f2"/><path d="m103.5 94.26c-.12.03-.24.06-.36.09.09-.14.21-.17.36-.09z" fill="#f2f2f2"/><path d="m97.03 95.06c-.06.03-.11.06-.17.09.05-.03.11-.06.17-.09z" fill="#f2f2f2"/><path d="m100.77 94.66c-.03.06-.08.09-.15.09.05-.03.1-.06.15-.09z" fill="#f2f2f2"/><path d="m61.17 82.82c-.01-.07-.03-.14-.04-.21.08.01.15.03.23.04-.06.05-.13.11-.19.17z" fill="#fefefe"/><path d="m104.67 94.24c-.13.02-.26.04-.38.06.11-.13.24-.16.38-.06z" fill="#f2f2f2"/><path d="m103.09 94.36c-.09.03-.18.07-.27.1.09-.03.18-.06.27-.1z" fill="#ec6424"/><path d="m101.75 94.56c-.12.03-.24.06-.35.09.08-.16.2-.17.35-.09z" fill="#f2f2f2"/><path d="m91.33 96.17c-.07.02-.14.05-.21.07.07-.02.14-.05.21-.07z" fill="#f2f2f2"/><path d="m91.76 96.04c-.06.03-.12.05-.18.08.05-.03.12-.06.18-.08z" fill="#f2f2f2"/><path d="m72.78 158.9c-.73-.12-1.65-.01-2.09-.57-1.07-1.37-2.43-2.51-2.36-4.63.07-2.33-.42-4.68-.64-7.02-.23-2.37-1.03-4.78-.17-7.1.88-2.37 1.79-4.76 4.7-5.65 2.59-.79 5.21-1.39 7.85-1.96 2.98-.65 5.98-.84 8.98-1.14 2.05-.2 2.16.2 2.97 1.73 1.3 2.44 1.78 5.15 2.28 7.84.49 2.61.9 5.24 1.4 7.86.19 1 .09 2.04.48 3.03.17.44-.34.76-.54 1.14-1.46 2.81-3.73 4.55-6.88 5.04-3.24.5-6.45 1.18-9.74 1.46-2.1.17-4.16.3-6.24-.03zm.24-2.67c1.55.23 3.1-.04 4.65-.04 4.23 0 8.36-.54 12.38-1.88.12-.04.36-.02.33-.13-.23-1.02.65-1.73.63-2.75-.08-4.78-1.36-9.34-2.41-13.93-.16-.72-.92-1.33-1.88-1.32-1.1.01-2.18.22-3.26.42-1.6.3-3.19.66-4.83.82-2.01.2-4.03.31-6.01.74-2.28.5-3.09 1.68-2.85 3.93.17 1.57.41 3.16.7 4.73.44 2.34.52 4.73.54 7.12.03 1.95.05 1.95 2.01 2.29z" fill="#121213"/><path d="m120.7 147.26c-.39 1.94-.64 3.62-1.38 5.12-1.02 2.06-2.94 3.33-5.19 2.38-1.39-.59-2.7-1.42-3.72-2.53-1.58-1.71-3.29-3.29-4.97-4.89-2.46-2.36-4.58-5.01-6.64-7.71-.63-.82-1.26-1.64-1.9-2.45-.35-.44-.51-.83.03-1.28.61-.51.75.02 1.04.36.84 1 1.81 1.9 2.52 2.98.8 1.22 1.89 1.58 3.16 1.31 1.18-.26 2.37-.16 3.56-.35 4.22-.71 8.34-1.68 11.86-4.31.18-.13.29-.2.27-.45-.23-2.56-.5-5.11-1.13-7.61-.05-.19-.07-.39-.11-.59-.1-.48.08-.92.5-1.04.51-.15.71.31.87.74.93 2.5 1.08 5.15 1.31 7.75.24 2.65.49 5.32.32 7.99-.12 1.63-.29 3.25-.4 4.58zm-1.31-9.7c-5.06 3.11-10.63 3.92-16.36 4.6.83 1.12 2.05 1 3.01 1.15 4.63.73 8.89-.44 12.86-2.83.41-.24.69-.48.59-1.11-.07-.53-.09-1.1-.1-1.81zm.07 3.95c-3.87 3.48-8.55 3.79-13.64 3.51.96.79 1.43 1.81 2.77 1.72 2.84-.2 5.67-.52 8.3-1.59 2.77-1.12 2.42-.25 2.54-3.37.01-.09.02-.19.03-.27zm-10.21 6.8c.67.36.65 1.12 1.37 1.07 2.73-.18 5.39-.58 7.85-1.92.65-.35.7-.91.56-1.31-.17-.47-.7-.07-1.01.07-.95.43-1.95.69-2.92 1.04-1.8.65-3.71.76-5.85 1.05zm8.97.89c-.22.08-.41.13-.59.21-1.45.63-2.91 1.23-4.52 1.32-.25.01-.57-.09-.7.21-.04.09.1.32.22.42.24.19.53.31.82.09.35-.27.72-.34 1.17-.4 1.21-.15 2.42-.41 3.47-1.11.22-.14.36-.3.32-.57-.02-.05-.12-.1-.19-.17z" fill="#fff"/><path d="m76.85 99.69c-.74-.38-1.79-.83-2.74-1.44-.45-.29-.24-.84.1-1.2.33-.36.78-.51 1.26-.56.91-.1 1.76-.36 2.54-.84.49-.3.9-.2 1.21.26.3.44.32.94-.1 1.27-.46.37-.56.7-.42 1.29.15.65-.77 1.34-1.85 1.22z" fill="#121213"/><path d="m69.56 91.18c1.37.36 2.07 2.24 1.39 3.22-.44.63-.79.58-1.28.15-.57-.49-.96-2.2-.71-2.83.13-.38.43-.4.6-.54z" fill="#121213"/><path d="m82.63 89.79c.18.58 1.27.21 1.17.96-.09.68.64 1.47-.25 2.07-.59.4-1.34.2-1.58-.55-.17-.57-.27-1.17-.3-1.76-.04-.6.45-.66.96-.72z" fill="#121213"/><path d="m101.11 95.07c.02.01.04.03.06.04-.04.02-.07.04-.11.06-.01-.02-.03-.05-.02-.07.02-.02.05-.02.07-.03z" fill="#ec6424"/><path d="m73.02 156.23c-1.96-.34-1.98-.34-2-2.29-.02-2.39-.1-4.78-.54-7.12-.29-1.57-.53-3.16-.7-4.73-.24-2.25.57-3.43 2.85-3.93 1.98-.44 4-.54 6.01-.74 1.64-.16 3.23-.52 4.83-.82 1.08-.2 2.15-.4 3.26-.42.96-.01 1.71.6 1.88 1.32 1.05 4.6 2.33 9.16 2.41 13.93.02 1.02-.87 1.73-.63 2.75.03.11-.21.09-.33.13-4.02 1.34-8.15 1.88-12.38 1.88-1.56 0-3.11.27-4.66.04zm.04-9.58c-.26 1.86.65 3.5 2.02 3.66 1.51.17 4.21-1.78 4.4-3.17.17-1.22-1.63-3.01-3.28-3.27-.92-.15-2.99 1.68-3.14 2.78zm8.35-1.28c-.01 0-.01 0-.02 0-.03.2-.06.39-.1.59-.11.64.13 1.04.71 1.38.53.31.85 0 1.23-.2.61-.32.7-.95.81-1.52.13-.65-.78-2.13-1.29-2.06-.82.11-1.22.71-1.28 1.53-.01.09-.04.18-.06.28zm6.59-.19c.22-1.4.18-1.38-.16-2.12-.23-.5-.38-.48-.77-.16-.75.63-1.13 2.7-.55 3.48.19.26.49.34.81.32.34-.02.45-.26.51-.53.07-.32.1-.66.16-.99z" fill="#fefefe"/><path d="m119.39 137.56c.01.71.03 1.28.11 1.81.09.62-.19.86-.59 1.11-3.97 2.39-8.24 3.56-12.86 2.83-.96-.15-2.19-.03-3.01-1.15 5.71-.69 11.28-1.5 16.35-4.6z" fill="#ffcf02" stroke="#020304" stroke-miterlimit="10" stroke-width=".25"/><path d="m119.46 141.51c-.01.08-.02.18-.02.28-.12 3.12.23 2.25-2.54 3.37-2.64 1.06-5.47 1.39-8.3 1.59-1.34.09-1.81-.93-2.77-1.72 5.08.27 9.76-.04 13.63-3.52z" fill="#f2f2f2"/><path d="m109.25 148.31c2.15-.28 4.05-.39 5.86-1.05.97-.35 1.97-.61 2.92-1.04.31-.14.84-.54 1.01-.07.14.4.09.96-.56 1.31-2.46 1.33-5.12 1.73-7.85 1.92-.73.04-.72-.71-1.38-1.07z" fill="#ec6424"/><path d="m118.22 149.2c.06.06.17.12.18.18.04.26-.11.42-.32.57-1.05.7-2.26.95-3.47 1.11-.45.06-.82.13-1.17.4-.29.22-.58.11-.82-.09-.12-.09-.26-.32-.22-.42.13-.3.45-.2.7-.21 1.61-.09 3.07-.68 4.52-1.32.19-.08.38-.14.6-.22z" fill="#f2f2f2"/><path d="m73.06 146.65c.15-1.1 2.22-2.94 3.15-2.79 1.64.26 3.44 2.06 3.28 3.27-.19 1.39-2.89 3.34-4.4 3.17-1.38-.14-2.29-1.78-2.03-3.65zm2 .26c.04.22-.3.63.19.86.3.13.68.32.94.11.29-.22.26-.64.22-1.01-.02-.16-.01-.34-.06-.49-.07-.22.02-.61-.35-.57-.32.03-.77-.01-.84.5-.02.16-.05.32-.1.6z" fill="#121213"/><path d="m81.41 145.37c.02-.1.05-.19.06-.29.07-.82.47-1.42 1.28-1.53.51-.07 1.42 1.41 1.29 2.06-.11.57-.21 1.2-.81 1.52-.38.2-.7.51-1.23.2-.58-.34-.82-.74-.71-1.38.04-.2.06-.39.1-.59.01.01.01.01.02.01z" fill="#121213"/><path d="m88 145.18c-.05.33-.09.67-.17.99-.06.26-.18.51-.51.53-.32.02-.62-.06-.81-.32-.57-.78-.2-2.85.55-3.48.39-.33.54-.35.77.16.35.75.39.73.17 2.12z" fill="#121213"/><path d="m75.06 146.91c.05-.28.08-.44.1-.6.07-.52.52-.47.84-.5.37-.03.28.35.35.57.05.15.04.33.06.49.04.36.07.79-.22 1.01-.27.21-.65.02-.94-.11-.48-.23-.14-.64-.19-.86z" fill="#f2f2f2"/><path d="m86.94 98.88s19.61-2.59 20.16-1.84c.55.74-17.39-1.24-20.16 1.84z" fill="#121213"/></svg>