<?xml version="1.0" encoding="utf-8"?>
<!-- Generator: Adobe Illustrator 24.1.2, SVG Export Plug-In . SVG Version: 6.00 Build 0)  -->
<svg version="1.1" id="Слой_1" xmlns="http://www.w3.org/2000/svg" xmlns:xlink="http://www.w3.org/1999/xlink" x="0px" y="0px"
	 viewBox="0 0 249.06 402.88" style="enable-background:new 0 0 249.06 402.88;" xml:space="preserve">
<style type="text/css">
	.st0{fill:#FFFFFF;stroke:#030405;stroke-width:0.25;stroke-miterlimit:10;}
	.st1{fill:#EB6525;}
	.st2{fill:#F2F2F2;}
	.st3{fill:#121213;}
	.st4{fill:#A37BB5;stroke:#111110;stroke-width:0.25;stroke-miterlimit:10;}
	.st5{fill:#EB6525;stroke:#030405;stroke-width:0.25;stroke-miterlimit:10;}
	.st6{fill:#FFFFFF;}
</style>
<g>
	<path class="st0" d="M156.78,376.43c-1.43-0.99-3.27-1.25-4.56-2.5c-1.63-1.58-2.96-3.38-3.75-5.51c-0.2-0.53-0.48-0.8-0.89-1.08
		c-0.67,0.7-0.43,1.67-0.79,2.44c-0.08,0.17-0.02,0.53,0.11,0.64c1.63,1.38,3.11,2.91,4.59,4.44c0.66,0.68,1.7,0.78,2.62,1
		c0.29,0.07,0.66,0.08,0.44,0.56c-1.3,0-2.6,0-3.9,0c-1.55-0.57-2.58-1.98-4.11-2.68c-0.11,1.06,0.62,1.78,0.77,2.68
		c-0.74,0-1.49,0-2.23,0c0.02-0.13,0.07-0.28,0.04-0.4c-1.44-5.87-0.61-10.26,2.86-15.06c0.16-0.22,0.3-0.46,0.44-0.69
		c1.46-2.55,3.09-4.98,4.87-7.31c1.94-2.53,3.87-5.05,5.4-7.86c1.5-2.75,2.46-5.73,3.68-8.61c0.96-2.27,1.71-4.63,2.41-6.97
		c1.32-4.43,2.42-8.94,3.46-13.44c0.6-2.58,1.34-5.14,1.4-7.85c0.06-2.43,0.46-4.87,0.89-7.27c0.4-2.21-0.07-4.38-0.03-6.56
		c0.03-1.87-0.52-3.74-0.63-5.61c-0.17-2.75-0.95-5.35-1.95-7.86c-1.84-4.65-4.42-8.89-7.34-12.94c-1.7-2.36-3.62-4.53-5.76-6.5
		c-0.83-0.77-1.5-1.01-2.26,0.2c-0.75,1.21-1.71,2.31-2.65,3.38c-2.62,2.98-5.46,5.75-8.27,8.55c-3.38,3.37-6.95,6.53-11.02,9.01
		c-4.79,2.92-9.88,5.34-15.15,7.31c-2.8,1.05-5.65,1.65-8.15-0.79c-1.42-1.38-2.25-3.11-2.98-4.93c-2.82-6.98-2.35-14.28-2.04-21.54
		c0.05-1.21-0.04-1.93-1.19-2.36c-0.34-0.13-0.63-0.4-0.96-0.56c-3.52-1.66-6.62-4.03-9.9-6.1c-0.86-0.54-1.08-0.41-1.56,0.19
		c-1.01,1.26-1.97,2.58-3.09,3.74c-5.13,5.32-10.09,10.85-16.64,14.57c-2.95,1.68-5.39,1.12-6.63-1.59
		c-2.25-4.94-3.02-10.17-3.35-15.51c-0.16-2.61-0.41-5.22-0.47-7.83c-0.06-2.48-0.73-4.89-0.64-7.38c0.11-3.19-0.07-6.38,0.25-9.57
		c0.45-4.46,0.64-8.95,1.22-13.39c0.6-4.54,0.8-9.15,2.04-13.6c0.12-0.42,0.06-0.73-0.32-0.95c-2.03-1.19-3.1-3.25-4.47-5.02
		c-2.12-2.74-4.03-5.65-4.75-9.1c-0.61-2.95-0.59-5.95-0.41-8.96c0.28-4.49,0.69-8.95,1.56-13.39c0.57-2.94,1.36-5.81,2.21-8.65
		c1.68-5.58,3.58-11.09,5.28-16.67c0.96-3.16,2.7-6.01,3.47-9.23c0.44-1.87,1.57-3.44,2.07-5.28c0.49-1.8,1.01-3.6,1.71-5.32
		c0.83-2.04,1.93-3.96,2.81-5.98c1.47-3.39,3.86-5.45,7.64-5.84c0.64-0.07,1.59-0.08,1.92-0.86c0.36-0.85,0.6-1.77,0.74-2.69
		c0.28-1.81,0.88-3.57,1.58-5.19c1.26-2.9,2.43-5.86,4.98-8.1c1.47-1.29,2.82-1.97,4.62-1.48c0.87,0.24,1.08-0.06,1.22-0.73
		c0.71-3.31,1.96-6.46,3.57-9.39c4.1-7.45,8.6-14.68,13.75-21.45c2.61-3.43,5.48-6.78,9.39-8.93c2.61-1.43,5.5-2.11,8.29-3.05
		c0.88-0.3,1.23-0.66,1.24-1.62c0.06-3.29,0.2-6.58,0.38-9.86c0.03-0.61-0.09-1-0.49-1.46c-0.62-0.72-1.36-1.44-1.57-2.39
		c-0.46-2.18,0.19-4.21,1.07-6.17c0.92-2.04,4.93-3.44,6.7-2.27c2.88,1.92,3.54,4.85,2,8.04c-0.29,0.59-0.35,0.91-0.03,1.45
		c2.03,3.45,4.19,6.84,5.99,10.41c1.06,2.1,2.3,3.31,4.73,2.92c0.18-0.03,0.37,0.02,0.55,0.06c6.11,1.54,12.23,2.99,17.89,5.94
		c4.11,2.15,8.4,3.94,12.46,6.2c3.3,1.84,6.45,3.93,9.37,6.28c2.39,1.92,4.75,3.93,6.91,6.17c3.56,3.68,6.94,7.46,9.33,12.01
		c2.23,4.24,4.1,8.62,5.11,13.36c1,4.7,1.98,9.36,1.52,14.2c-0.12,1.28,0.02,2.57-0.18,3.86c-0.5,3.14-1.41,6.18-1.97,9.29
		c-0.63,3.5-2,6.63-3.94,9.5c-3.52,5.22-7.96,9.69-12.13,14.38c-0.6,0.68-0.69,1.27-0.2,1.78c1.44,1.48,1.42,3.35,1.44,5.15
		c0.04,3.05-2.13,5.21-4.07,5.83c-0.82,0.27-1.97-0.17-2.48,0.56c-0.51,0.74,0.26,1.65,0.36,2.5c0.62,5.22,0.04,10.41-0.42,15.61
		c-0.17,1.85-0.75,3.63,0.29,5.63c0.96,1.86,1.36,4.07,2.18,6.07c1.41,3.42,2.36,6.98,3.4,10.51c0.67,2.29,1.26,4.6,1.73,6.94
		c0.5,2.5,0.73,5.06,1.24,7.56c0.54,2.67-1.08,5.89-3.61,6.8c-1.31,0.47-2.66,0.59-4.05,0.64c-3.56,0.13-6.93-0.63-10.13-2.09
		c-2.13-0.97-2.04-1.02-2.9,1.22c-1.09,2.83-2.25,5.66-3.61,8.37c-2.41,4.81-4.91,9.57-7.85,14.1c-1.09,1.69-0.98,1.9,0.51,3.21
		c1.97,1.73,3.76,3.64,5.38,5.72c2.24,2.87,4.4,5.78,6.47,8.77c0.67,0.97,1.01,2.17,2.07,2.96c0.63,0.47,0.57,1.76,1.83,1.7
		c0.05,0,0.08,0.43,0.2,0.61c0.62,1.02,0.13,2.29,0.76,3.29c2.75,4.37,4.5,9.16,5.91,14.09c1.35,4.7,2.41,9.47,3.12,14.31
		c0.87,5.94,1.34,11.91,1.16,17.93c-0.12,4.26-0.35,8.52-0.72,12.75c-0.52,5.97-2.46,11.66-4.43,17.31
		c-0.53,1.52-1.15,3.01-1.71,4.52c-0.57,1.53-1.15,3.07-1.69,4.61c-0.48,1.38-1.38,2.55-1.96,3.9c-1.9,4.48-4.96,8.14-8.63,11.31
		c-2.26,1.95-4.93,3.26-7.38,4.94C162.54,376.43,159.66,376.43,156.78,376.43z M121.06,113.76c-0.1-0.2-0.26-0.27-0.47-0.2
		c-0.36-0.04-0.73-0.08-1.09-0.12c-0.12-0.2-0.29-0.26-0.51-0.17c-0.19-0.04-0.38-0.07-0.57-0.11c-1.01-0.76-1.67-0.56-2.05,0.68
		c-0.17,0.55-0.49,1.05-0.75,1.57c-0.07,0.07-0.1,0.15-0.07,0.25c-0.23,0.26-0.62,0.51-0.5,0.87c0.11,0.36,0.54,0.16,0.83,0.19
		l0.13,0.02l0.05-0.06c0.11,0.08,0.21,0.17,0.32,0.25c0.1,0.02,0.2,0.04,0.3,0.06c0.55,0.09,1.11,0.18,1.66,0.27
		c0.56,0.09,1.12,0.19,1.68,0.28c0.45,0.02,0.9,0.05,1.35,0.07c0.32,0.24,0.67,0.29,1.04,0.16c0.29,0.03,0.58,0.07,0.87,0.1
		c0.52,0.39,1.17,0.31,1.75,0.48c0.28,0.02,0.55,0.04,0.83,0.05c0.28,0.06,0.55,0.12,0.83,0.18c0.27,0.04,0.55,0.09,0.82,0.13
		c0.1,0.05,0.19,0.1,0.29,0.15c0.45,0.05,0.9,0.1,1.35,0.14c0.13,0.2,0.31,0.25,0.53,0.15c0.11,0.02,0.22,0.04,0.33,0.06
		c0.36,0.19,0.7,0.44,1.15,0.27c0.54,0.17,1.06,0.44,1.66,0.35c0.13,0.23,0.34,0.24,0.57,0.21l0.09,0.08l0.12-0.02
		c0.14,0.2,0.32,0.25,0.54,0.15c0.31,0.03,0.61,0.06,0.92,0.09c0.52,0.57,1.22,0.6,1.92,0.61l-0.01-0.01
		c0.11,0.05,0.21,0.11,0.32,0.16c0.18,0.03,0.35,0.06,0.53,0.09c0.19,0.36,0.55,0.25,0.85,0.29l-0.01-0.01
		c0.03,0.18,0.15,0.21,0.3,0.17c0.18,0.04,0.36,0.07,0.54,0.11c0.31,0.31,2.4-2.31,2.63-2.18l2.66,1.63
		c0.16,0.15-14.36-1.06-19.62-1.94c-2.98-0.5-5.97-0.99-8.96-1.44c-1.86-0.28-2.3-0.03-2.82,1.81c-0.73,2.59-2.54,4.59-3.62,6.98
		c-0.07,0.16-0.24,0.29-0.37,0.41c-1.43,1.27-1.43,1.27,0.26,2.22c6.41,3.59,13.2,6.39,19.99,9.14c4.38,1.78,8.84,3.54,13.49,4.43
		c4.78,0.91,9.52,2.03,14.27,3.08c4.79,1.06,9.66,1.53,14.53,2.06c2.39,0.26,4.78,0.43,7.19,0.51c0.35,0.01,0.92,0.28,0.75-0.52
		c-0.5-2.36,0.77-4.44,1.1-6.67c0.18-1.18,0.48-2.33,0.98-3.43c0.43-0.96,0.26-1.59-1.02-1.95c-2.19-0.61-4.37-1.4-6.57-1.89
		c-2.18-0.48-4.21-1.34-6.36-1.85c-0.33-0.08-0.99,0.07-0.81-0.63c0.14-0.57,0.57-0.55,1.1-0.45c4.34,0.85,8.5,2.29,12.66,3.72
		c0.49,0.17,1.15,0.83,1.43-0.02c0.24-0.74,0.65-1.82-0.75-2.13c-2.12-0.46-4.24-0.94-6.36-1.41c-2.59-0.58-5.19-1.16-7.92-1.77
		c0.77-0.66,1.53-0.73,2.36-0.59c3.59,0.61,7.2,1.12,10.62,2.48c0.54,0.21,1.17,0.14,1.74,0.39c0.73,0.31,1.14-0.03,1.16-0.82
		c0.01-0.46,0.02-0.93,0.07-1.39c0.06-0.55-0.17-0.71-0.7-0.76c-3.78-0.37-7.56-0.76-11.34-1.16c-0.94-0.1-1.88-0.24-3.15-0.4
		c1.03-0.56,1.81-0.59,2.63-0.57c3.74,0.09,7.44,0.62,11.14,1.14c1.81,0.25,1.84,0.22,1.9-1.64c0.07-2.22,1.02-4.29,0.98-6.55
		c-0.04-2.12,0.3-4.27-0.78-6.26c-0.15-0.27-0.07-0.5-0.03-0.78c0.32-2.23,1.31-4.25,1.91-6.39c0.42-1.52,0.51-3.12,0.79-4.95
		c-1.44,1.48-2.47,2.94-3.11,4.62c-0.35,0.94-1.11,1.68-1.24,2.74c-0.05,0.4-0.46,0.91-0.99,0.76c-0.44-0.12-0.51-0.56-0.38-1.04
		c0.08-0.29-0.05-0.63-0.09-0.94c0.03-0.09,0.07-0.19,0.1-0.28c-0.11,0-0.22,0-0.32,0.01c-0.14,0-0.45,0.14-0.3-0.17
		c1.67-3.41,2.81-7.14,5.93-9.66c0.67-0.54,0.35-1.29,0.29-1.91c-0.05-0.49-0.47-0.16-0.75-0.05c-1.59,0.61-2.87,1.75-4.31,2.62
		c-2.12,1.28-4.13,2.75-6.16,4.17c-0.46,0.32-0.86,0.45-1.41,0.29c-2.84-0.8-5.67-1.65-8.4-2.75c-4.19-1.7-8.41-3.28-12.66-4.8
		c-1.46-0.53-2.95-0.97-4.43-1.46c-1.25-0.41-1.95-1.5-2.4-2.53c-1.96-4.51-4.84-8.37-8.08-11.99c-0.15-0.17-0.26-0.38-0.4-0.56
		c-0.13-0.17-0.28-0.33-0.58-0.46c0.28,1.27,0.46,2.53,0.51,3.8c0.1,2.7,0.7,5.39,0.17,8.11c-0.08,0.43-0.33,0.75-0.42,1.15
		c-0.09,0.37-0.03,1.05-0.54,0.94c-0.44-0.1-1.01-0.44-1.05-1.13c-0.11-2.02-0.51-4.01-0.58-6.04c-0.07-2-0.77-3.84-1.62-5.63
		c-0.88,0.37-1.03,1.09-1.34,1.7c-1.36,2.65-2.89,5.21-3.9,8.05c-0.86,2.4-1.41,4.89-1.9,7.36c-0.39,1.99-1.59,3.49-2.31,5.25
		c-0.58,1.42-1.5,2.72-2.53,3.91c-0.53,0.62-0.39,0.9,0.43,1.25c4.04,1.69,8.26,3.02,12.09,5.16c3.31,1.85,6.71,3.57,9.76,5.86
		c0.76,0.57,1.63,1,2.4,1.56c0.47,0.34,0.75,0.8-0.19,0.94c-1.82-0.5-3.28-1.7-4.88-2.61c-3.14-1.78-6.08-3.86-9.37-5.44
		c-3-1.45-6.1-2.61-9.11-4c-0.62-0.28-1.3-0.42-1.95-0.63c-0.28-0.09-0.47-0.13-0.67,0.22c-0.72,1.23-1.49,2.44-2.26,3.64
		c-0.35,0.55-0.21,0.82,0.4,0.97c3.02,0.76,6.04,1.54,9.06,2.3c5.51,1.39,10.95,3.02,16.04,5.61c0.57,0.29,1.05,0.73,1.58,1.1
		c-0.03,0.28,0.24,0.63-0.2,0.81c-0.25-0.43-0.81-0.24-1.12-0.56c-0.12-0.3-0.36-0.25-0.59-0.21c-0.92-0.7-1.94-1.2-3.07-1.43h-0.01
		c-0.36-0.1-0.72-0.21-1.09-0.31c-0.19-0.09-0.37-0.18-0.56-0.27c-0.14-0.26-0.36-0.19-0.57-0.13c-0.18-0.04-0.36-0.09-0.55-0.13
		c-0.09-0.05-0.18-0.1-0.27-0.14c-0.11-0.04-0.22-0.08-0.32-0.12c-0.08-0.05-0.16-0.1-0.23-0.15c-0.39-0.06-0.65-0.51-1.11-0.39
		c-1.74-0.73-3.44-1.58-5.32-1.9c-0.11-0.02-0.22-0.04-0.33-0.06c-0.07-0.05-0.14-0.11-0.21-0.16c-0.23-0.19-0.5-0.2-0.78-0.16
		c-0.11-0.05-0.23-0.1-0.34-0.15c-0.19-0.01-0.37-0.03-0.56-0.04c-0.87-0.47-1.73-1-2.8-0.81c-0.12-0.02-0.24-0.05-0.36-0.07
		c-0.06-0.05-0.12-0.1-0.18-0.15c-0.28-0.05-0.56-0.1-0.85-0.15c-0.08-0.24-0.25-0.27-0.46-0.21c-0.43-0.33-0.91-0.44-1.44-0.37
		c-0.11-0.07-0.23-0.13-0.34-0.2C121.11,113.79,121.06,113.76,121.06,113.76z M105.82,261.3c-0.7-0.15-0.81,0.05-0.85,0.62
		c-0.08,1.34-0.15,2.68-0.27,4.01c-0.06,0.66,0.32,0.86,0.82,1.1c3.92,1.94,7.93,3.57,12.24,4.46c4.34,0.89,8.66,1.85,13.03,2.57
		c1.47,0.24,2.97,0.02,4.42,0.39c0.63,0.16,1.04-0.29,1.46-0.64c3.03-2.58,5.79-5.43,8.56-8.28c1.9-1.95,3.84-3.89,5.42-6.06
		c1.71-2.35,3.39-4.75,5.2-7.01c2.21-2.77,3.87-5.9,6.14-8.61c0.36-0.43,0.4-0.91,0.59-1.35c1.51-3.4,3.53-6.51,5.34-9.74
		c2.16-3.85,3.87-7.9,5.56-11.96c1.58-3.77,3.15-7.56,4.43-11.42c0.95-2.86,1.72-5.84,2.54-8.77c0.96-3.45,2.1-6.86,2.68-10.4
		c0.85-5.21,2.15-10.35,2.62-15.64c0.3-3.41,0.45-6.82,0.53-10.23c0.02-1.01-0.17-2.02-0.23-3.04c-0.04-0.63-0.42-0.75-0.93-0.77
		c-3.74-0.21-7.48-0.4-11.22-0.65c-0.81-0.05-1.62-0.28-2.41-0.47c-3.98-0.96-8.04-1.43-12.06-2.16c-4.52-0.82-9.08-1.44-13.55-2.54
		c-4.24-1.04-8.49-2.02-12.71-3.12c-4.76-1.24-9.32-3.07-13.9-4.84c-4.44-1.71-8.44-4.28-12.66-6.42c-4.33-2.2-8.69-4.38-12.32-7.7
		c-0.86-0.79-1.48-0.46-2.1,0.22c-3,3.27-5.32,7.01-7.17,11c-1.86,4.01-3.8,7.98-5.87,11.89c-2.28,4.29-4.07,8.79-5.78,13.31
		c-1.99,5.24-3.56,10.62-4.95,16.06c-2.04,7.98-4.18,15.93-5.48,24.07c-0.61,3.82-0.96,7.68-1.33,11.53
		c-0.51,5.24-1.21,10.47-1.21,15.76c0,0.65,0.19,1.12,0.65,1.69c2.85,3.54,6.89,5.35,10.66,7.55c2.64,1.53,5.42,2.82,8.03,4.39
		c1.92,1.16,4.09,1.61,6.05,2.59c0.47,0.23,0.58-0.18,0.75-0.38c2.39-2.84,4.84-5.64,6.77-8.84c0.57-0.95,1.49-1.65,1.9-2.71
		c0.1-0.27,0.36-0.38,0.54-0.21c0.31,0.28,0.83,0.41,0.7,1.05c-0.22,1.1-0.57,2.15-1.18,3.08c-1.15,1.78-2.29,3.57-3.55,5.27
		c-0.43,0.58-0.39,0.87,0.14,1.2c3.84,2.35,7.59,4.91,11.85,6.43c3.32,1.18,6.87,1.21,10.37,1.18c0.95-0.01,1.91,0.07,2.88-0.13
		c0.97-0.2,1.63,0.67,1.63,2.03c0,0.84-0.58,1.23-1.36,1.25c-1.21,0.03-2.41,0.01-3.62,0.01C111,262.01,108.39,261.84,105.82,261.3z
		 M190,69.27c-2.99-2.53-5.94-5.07-9.25-7.15c-3.71-2.33-7.57-4.37-11.62-6.07c-2.37-1-4.68-2.16-7.03-3.21
		c-2.84-1.26-5.81-2.04-8.79-2.82c-4.25-1.11-8.6-1.58-12.98-1.45c-3.82,0.12-7.57,0.67-11.2,2.02c-1.45,0.54-2.99,0.91-4.48,1.39
		c-5.13,1.67-8.69,5.37-11.92,9.4c-3.07,3.82-5.77,7.92-8.27,12.15c-1.69,2.85-3.68,5.52-5.18,8.49c-1.89,3.75-3.49,7.61-4.24,11.77
		c-1.31,7.28-1.29,14.54,0.21,21.79c0.33,1.58,1.04,3.03,1.65,4.52c0.12,0.3,0.3,0.51,0.62,0.69c1.21,0.68,2.35,1.48,3.37,2.42
		c0.56,0.51,0.78,0.48,1.05-0.38c1.74-5.63,2.85-11.42,4.56-17.05c2.18-7.2,4.54-14.34,6.94-21.46c2.21-6.55,3.82-13.27,5.21-20.04
		c0.16-0.77,0.36-1.54,0.64-2.27c0.75-1.97,1.7-2.41,3.69-1.78c1.8,0.57,3.75,0.73,5.46,1.38c7.51,2.84,15.47,4.05,23.06,6.61
		c5.4,1.82,10.95,3.25,16.34,5.11c7.87,2.71,15.74,5.44,23.61,8.17c4.08,1.41,7.99,3.3,12.48,4.57
		C200.22,79.41,195.57,73.99,190,69.27z M189.58,156.88c1.62-0.77,2.67-4.13,1.71-5.59c-0.2-0.3-0.5-0.22-0.75-0.17
		c-3.29,0.66-6.55,0.28-9.86,0.02c-3.04-0.24-6.11-0.31-9.14-0.65c-4.6-0.52-9.22-0.97-13.75-2.02c-4.82-1.12-9.72-1.88-14.54-3.02
		c-3.71-0.88-7.27-2.31-10.88-3.52c-5.74-1.93-11.21-4.5-16.77-6.86c-6.15-2.61-11.53-6.45-16.84-10.42
		c-1.1-0.82-2.29-1.52-3.42-2.29c-0.3-0.2-0.67-0.42-0.81-0.73c-0.18-0.4-0.38-0.88-0.78-0.83c-0.27,0.04-0.52,0.56-0.67,0.91
		c-1.22,2.88-0.17,6.14,2.07,8.35c3.32,3.28,7.42,5.28,11.43,7.41c3.34,1.78,6.43,3.97,9.94,5.44c6.6,2.76,13.21,5.42,20.23,7
		c5.66,1.28,11.24,2.89,16.97,3.86c4.58,0.77,9.22,1.2,13.77,2.1c5.1,1.01,10.25,1.4,15.41,1.83c0.14,0.01,0.28,0.02,0.51,0.04
		C185.4,157.36,187.58,157.84,189.58,156.88z M181.01,341.98c-3.83,0.51-7.57,0.14-11.09-1.32c-1.44-0.6-2.94-1.43-4.07-2.67
		c-0.47-0.52-0.84-0.49-1.07,0.25c-0.15,0.48-0.43,0.91-0.6,1.38c-0.25,0.7-0.33,1.25,0.37,1.91c1.19,1.12,1.81,2.71,2.89,3.99
		c1.86,2.21,4.19,2.63,6.85,2.62c4.12-0.01,7.22-2.12,10.19-4.6c0.52-0.43,0.79-1.02,1.07-1.59c0.46-0.92,0.38-1.01-0.75-1.02
		C183.53,341.23,182.34,341.81,181.01,341.98z M185.39,315.27c-2.45,0.98-4.91,1.81-7.62,1.93c-1.76,0.08-3.53,0.18-5.3,0.24
		c-1.93,0.06-2.83,2.07-1.97,3.8c0.65,1.32,1.78,1.74,3.01,1.99c3.02,0.6,5.68-0.69,8.29-1.9c2.59-1.2,4.63-3.17,6.49-5.31
		c1.14-1.31,1.16-1.29,1.03-3.29C187.96,313.74,186.8,314.7,185.39,315.27z M60.82,245.4c0.27,0.81,1.45,1.32,2.22,1.96
		c4.38,3.61,9.47,5.94,14.66,8.09c0.85,0.35,1.75,0.55,2.61,0.88c2.3,0.88,2.55,0.81,3.8-1.13c-8.03-4.38-16.76-7.6-23.73-14.31
		C60.51,242.55,60.37,244.07,60.82,245.4z M180.24,329.62c-3.26,0.47-6.55,0.26-9.64-1.15c-0.5-0.23-1.03-0.38-1.51-0.63
		c-0.28-0.15-0.53-0.45-0.84-0.15c-0.25,0.24-0.23,0.57-0.09,0.9c1.09,2.45,2.5,4.61,5.3,5.31c3.26,0.82,6.32,0.27,9.31-1.27
		c1.68-0.87,3.36-1.65,4.88-2.82c1.47-1.12,1.33-2.52,1.09-4.32C186.26,327.99,183.34,329.17,180.24,329.62z M167.06,364.87
		c-4.52,0.2-9.04-3.38-10.01-7.9c-0.18-0.84-0.62-1.61-0.99-2.54c-0.38,0.44-0.68,0.82-1.02,1.16c-1.03,1.03-1.12,2.1-0.64,3.52
		c1.29,3.77,3.6,6.64,7.03,8.62c1.31,0.76,2.75,0.62,4.19,0.51c2.32-0.18,4.45-1.11,6.67-1.67c0.81-0.2,1.76-0.1,2.19-1.31
		C171.92,365.48,169.51,364.76,167.06,364.87z M126.8,276.09c-4.13-0.96-8.39-1.29-12.45-2.69c-3.13-1.08-6.31-1.98-9.06-3.93
		c-0.49-0.35-0.88-0.28-0.87,0.46c0.01,0.79-0.13,1.61,0.04,2.36c0.21,0.92,1.26,0.73,1.91,1.03c6.01,2.74,12.34,4.27,18.87,5.11
		c1.58,0.2,3.14,0.13,4.7,0.22c1.32,0.08,2.12-0.83,3.19-1.91C130.76,276.79,128.74,276.54,126.8,276.09z M168.63,337.24
		c1.32,1.25,2.92,1.78,4.56,2.19c3,0.74,6.03,0.66,9.01-0.27c1.63-0.51,3.18-1.16,4.51-2.26c1.23-1.02,0.68-2.56,1.24-3.84
		c-1.56,1.21-3.4,1.71-5.07,2.5c-3.36,1.59-6.87,1.7-10.47,0.49c-2.33-0.78-3.85-2.3-5.1-4.47c-0.91,1.24-1.08,2.7-1.66,4.12
		C167.03,335.55,167.85,336.5,168.63,337.24z M160.69,348.6c0.74,2.63,1.76,5.15,3.69,7.15c1.34,1.39,3.25,1.93,4.98,2.16
		c3.14,0.42,6.38,0.32,9.23-1.39c0.98-0.59,2.13-1.13,2.98-2.55c-4.15,0.84-7.96,1.48-11.79,0.15c-3.74-1.3-6.69-3.58-8.82-6.9
		C160.28,347.65,160.57,348.16,160.69,348.6z M186.84,306.33c-2.04,1.66-4.29,3.01-6.44,4.5c-1.69,1.17-3.75,1.56-5.74,1.73
		c-1.03,0.09-1.71-1.01-2.28-2.05c-0.64,1.2-0.58,2.37-0.81,3.46c-0.1,0.49,0.14,0.62,0.61,0.63c4.28,0.17,8.48-0.25,12.58-1.56
		c1.5-0.48,2.58-1.58,3.77-2.51c1.52-1.19,0.58-2.83,0.72-4.27c0.06-0.6-0.16-1.23-0.27-1.97
		C187.94,304.74,187.57,305.73,186.84,306.33z M184.3,322.61c-3.44,1.98-6.95,3.79-11.11,3.1c-1.62-0.27-2.54-1.57-3.33-2.93
		c-1.18,1.62-1.16,2.19,0.48,3.19c1.54,0.94,3.1,1.86,5.06,1.78c2.04-0.09,4.07,0.23,6.11-0.5c1.9-0.68,3.55-1.64,5.1-2.88
		c0.7-0.56,1.13-1.53,2.24-1.46c0.29,0.02,0.24-0.23,0.26-0.38c0.14-1.35,0.31-2.7,0.18-4.45
		C187.73,320.05,186.18,321.53,184.3,322.61z M159.03,350.36c-0.38-0.03-0.36,0.36-0.51,0.54c-0.62,0.74-1.23,1.42-0.1,2.35
		c1.1,0.89,0.78,2.39,0.98,3.58c0.29,1.7,1.55,3.71,3.2,4.28c3.61,1.24,7.33,1.7,11.13,1.41c0.09-0.01,0.19,0,0.28-0.01
		c2.94-0.12,2.94-0.12,4.54-2.64C168.66,362.13,161.61,360.35,159.03,350.36z M180.95,303.7c-1.34,0.54-2.76,0.64-4.13,0.99
		c-1.25,0.32-2.39,0.88-3.56,1.36c-1.15,0.47-0.86,1.54-0.79,2.35c0.05,0.69,2.58,1.51,3.43,1.32c2.64-0.6,4.74-2.21,6.89-3.71
		c1.94-1.35,3.66-2.94,5.12-4.81c0.52-0.67,0.79-1.32,0.45-2.54C186.35,301.37,183.69,302.58,180.95,303.7z M172.92,303.14
		c-0.05,0.61,0.3,0.63,0.82,0.48c3.65-1.11,7.32-2.14,10.56-4.29c1.22-0.81,1.99-2.2,3.49-2.65c0.31-0.09,0.12-0.59,0.08-0.89
		c-0.15-1.09-0.32-2.18-0.52-3.48c-1.86,2.03-3.95,3.58-6.03,5.14c-1.98,1.48-4.15,2.59-6.65,2.88c-0.57,0.07-1.24,0.22-1.42-0.69
		C172.77,300.83,173.02,301.99,172.92,303.14z M61.22,251.15c-0.01,1-0.14,2.07,1.46,1.78c0.33-0.06,0.58,0.24,0.81,0.48
		c1.93,2.02,4.44,3.12,6.91,4.28c1.95,0.92,3.98,1.68,5.73,3.01c1.08,0.81,3.29,0.06,3.77-1.16c0.22-0.56-0.22-0.63-0.55-0.75
		c-0.99-0.36-2.01-0.65-2.98-1.05c-3.79-1.6-7.55-3.22-10.95-5.61c-1.39-0.98-2.77-1.95-4.2-3.2
		C61.23,249.77,61.23,250.46,61.22,251.15z M185.38,212.31c2.24-1.15,4.46-2.4,6.88-3.18c0.51-0.16,0.49-0.45,0.41-0.83
		c-0.1-0.5-0.18-1-0.31-1.49c-0.2-0.72-0.41-1.12-1.29-0.49c-2.51,1.79-5.47,2.88-8.42,2.81c-2.18-0.05-2.19,1-2.59,2.32
		c-0.41,1.35-0.9,2.68-1.35,4.02C180.63,213.72,183.22,213.42,185.38,212.31z M61.84,259.13c0.32,1.35,1.74,1.66,2.8,2.2
		c1.19,0.6,2.52,0.95,3.69,1.54c1.2,0.6,2.51,0.77,3.68,1.36c2.03,1.03,2.86,0.72,4.15-1.54c-2.89-0.3-5.22-1.76-7.56-3.26
		c-2.25-1.44-5.01-2.03-7.14-4.35C61.59,256.59,61.55,257.9,61.84,259.13z M104.89,275.45c-0.39,2.12,0.1,2.91,1.97,3.6
		c5.08,1.89,10.39,2.77,15.68,3.75c1.42,0.26,2.26-1.08,3.49-1.57C118.57,280.73,111.57,278.67,104.89,275.45z M183.61,200.33
		c1.16-0.37,2.18-0.98,3.25-1.47c0.83-0.38,1.54-1.16,2.65-0.84c0.46,0.13,0.76-0.29,0.62-0.8c-0.91-3.51-1.86-7-3.29-10.34
		c-0.01-0.03-0.08-0.04-0.12-0.07C186.4,187.46,183.72,199.01,183.61,200.33z M180,291.72c-0.9,0.46-1.72,1.08-2.59,1.59
		c-1.26,0.74-2.55,1.27-3.95,1.5c-0.81,0.13-0.95,0.57-0.69,1.15c0.35,0.75-0.25,1.84,0.37,2.21c0.66,0.39,1.34-0.58,2.08-0.82
		c3.47-1.08,6.31-3.24,9.03-5.53c2.13-1.79,2.45-3.02,1.53-4.96C184.3,289.16,182.25,290.56,180,291.72z M163.2,343
		c-0.72,0.72-0.99,1.32-0.46,2.38c1.86,3.72,4.86,6.01,8.8,6.85c2.93,0.63,5.92,0.35,8.88-0.53c1.81-0.55,2.65-1.56,2.9-3.47
		C173.39,353.63,167.64,351.22,163.2,343z M155.69,257.79c-0.2,0.28-0.64,0.61-0.1,0.88c0.56,0.28,0.8,1.29,1.7,0.79
		c3.57-2.02,5.89-4.99,6.72-9.05c0.23-1.11-0.08-2.1-1.09-2.98C160.85,251.18,158.11,254.37,155.69,257.79z M185.94,202.16
		c-0.95,0.44-1.81,1.13-2.93,1.1c-0.27-0.01-0.51,0.11-0.53,0.32c-0.11,1.23-1.02,2.27-0.9,3.61c2.93-0.76,5.83-1.4,8.51-2.85
		c1.11-0.6,1.48-1.19,1.05-2.37c-0.24-0.67-0.32-1.41-0.49-2.18C188.92,200.35,187.52,201.44,185.94,202.16z M171.09,273.61
		c2.38-1.52,4.37-3.36,5.36-6.14c0.55-1.54,0.19-2.74-0.87-3.96c-1.1,3.33-3.45,5.66-5.83,7.96c-0.45,0.44-0.89,0.96-1.6,1.05
		c-0.33,0.04-0.5,0.26-0.5,0.57c0.01,0.36,0.68,1.14-0.48,0.66c-0.07-0.03-0.08,0.28,0.02,0.46c0.24,0.39,0.45,0.79,0.7,1.25
		C169.04,274.8,170.09,274.24,171.09,273.61z M173.26,259.8c-1.78,2.2-3.21,4.18-5.07,5.81c-1.09,0.95-2.25,1.8-3.57,2.33
		c-1.24,0.5-0.82,1.09-0.29,1.71c0.47,0.55,1.12,0.96,1.16,1.86C169.05,268.23,173.27,265.64,173.26,259.8z M172.4,275.14
		c-1.11,0.58-2.01,1.61-3.38,1.7c-0.22,0.01-0.48,0.2-0.38,0.48c0.34,0.9,0.68,1.79,1.09,2.66c0.15,0.33,0.49,0.16,0.72,0.01
		c2.68-1.65,5.2-3.58,6.85-6.25c0.91-1.48,1.4-3.34,1.37-5.18C177.32,271.52,175.2,273.67,172.4,275.14z M174.11,287.53
		c2.79-1.95,5.51-4.02,7.8-6.58c0.62-0.69,0.94-1.57,1.26-2.43c0.11-0.28,0.1-0.67-0.24-0.88c-0.33-0.2-0.54,0.03-0.66,0.28
		c-1.4,2.82-4.19,4.05-6.59,5.7c-1.11,0.76-2.16,1.75-3.68,1.78c-0.42,0.01-0.56,0.44-0.43,0.77
		C171.86,288.71,172.13,288.92,174.11,287.53z M175.29,290.02c-0.7,0.46-1.45,1.28-2.44,0.43c-0.13-0.11-0.42-0.09-0.43,0.15
		c-0.02,0.54-0.08,1.12,0.08,1.62c0.1,0.32,0.61,0.17,0.88,0.05c1.56-0.68,3.12-1.36,4.65-2.11c2.37-1.16,4.52-2.56,6.1-4.81
		c1.16-1.65,1.36-1.9,0.31-3.43C181.98,285.32,178.73,287.78,175.29,290.02z M167.38,252.6c-0.03-0.47-0.37-0.83-0.74-0.9
		c-0.49-0.1-0.49,0.47-0.59,0.78c-1.25,3.73-3.56,6.59-6.92,8.61c-0.27,0.17-0.51,0.32-0.3,0.61c0.32,0.45,0.71,0.86,1.1,1.25
		c0.7,0.7,0.94-0.25,1.28-0.47c2.88-1.93,5.16-4.33,5.99-7.87c0.1-0.45,0.06-0.89,0.19-1.32
		C167.38,253.06,167.4,252.83,167.38,252.6z M162.6,265.03c-0.35,0.27-0.96,0.33-0.42,1.11c0.44,0.62,0.78,0.68,1.33,0.37
		c1.28-0.72,2.44-1.61,3.55-2.59c1.61-1.41,2.59-3.26,3.58-5.08c0.98-1.79,0.9-1.84-1.23-3.59
		C168.55,259.57,165.86,262.5,162.6,265.03z M158.24,368.55c-2.17-1.92-3.88-4.13-4.81-6.91c-0.1-0.3-0.23-0.64-0.46-0.84
		c-0.4-0.33-0.36-1.51-1.09-0.99c-0.6,0.43-1.24,1.53-0.7,2.24c1.53,2.05,2.63,4.42,4.69,6.1c2.08,1.7,4.49,2.57,7,3.29
		c0.4,0.12,0.79,0.25,1.19,0.39c2.01,0.7,3.23,0.33,4.77-1.57C165.28,371.69,161.47,371.41,158.24,368.55z M135.92,27.59
		c-0.04-1.17-1.24-2.33-2.46-2.37c-1.45-0.05-3.63,2.49-3.61,4.18c0.01,0.76,1.91,1.9,3.11,1.86
		C134.27,31.23,135.97,29.11,135.92,27.59z M182.98,218.27c2.24-1.14,4.57-2.11,6.85-3.17c0.96-0.44,1.85-1.04,2.84-1.39
		c1.01-0.35,0.73-1.11,0.53-1.63c-0.3-0.79-0.85-0.12-1.24,0.04c-3.15,1.25-5.99,3.18-9.26,4.23c-0.74,0.24-1.52,1.33-1.9,2.28
		C181.64,219.18,182.24,218.64,182.98,218.27z M172.57,282.09c-0.37,0.25-0.75,0.55-1.25,0.53c-0.65-0.03-0.44,0.35-0.37,0.73
		c0.08,0.45,0.21,0.75,0.7,0.47c3.98-2.33,8.17-4.44,9.81-9.27c0.17-0.51-0.1-0.77-0.24-1.14c-0.14-0.37-0.22-0.76-0.43-1.49
		C179.27,276.62,176.2,279.59,172.57,282.09z M106.91,282.73c3.03,1.14,6.21,1.81,9.23,2.99c1.11,0.43,2.17-0.87,3.32-1.26
		c-4.57-0.84-9.03-1.89-13.52-3.05C106.05,282.08,106.32,282.51,106.91,282.73z M160.89,373.67c-2.23-0.99-4.41-1.92-6.56-2.91
		c-2.35-1.08-2.91-3.84-5.03-5.52C150.16,370.43,156.35,374.83,160.89,373.67z M62.48,262.78c-0.13,0.91-0.06,1.5,0.83,1.93
		c1.35,0.66,2.66,1.42,3.92,2.24c2.3,1.5,2.74,1.47,4.65-0.67C68.66,265.21,65.22,265.12,62.48,262.78z M138.68,42.18
		c0.41-0.1,0.91-0.47,0.48-1.04c-0.38-0.5-0.21-1.63-1.35-1.31c-1.54,0.44-3.07,0.94-4.65,1.24c-0.98,0.19-0.5,1.03-0.59,1.6
		c-0.1,0.68,0.4,0.58,0.81,0.58c0.23,0,0.46,0,0.7,0C135.72,43.4,137.14,42.55,138.68,42.18z M136.93,37.06
		c-0.44-0.79-0.91-1.49-1.24-2.24c-0.29-0.69-0.55-0.85-1.34-0.59c-2.1,0.7-2.22,0.86-1.66,3.99
		C134.2,37.88,135.58,37.62,136.93,37.06z M193.51,216.52c-2.4,1.11-4.73,2.2-7.36,3.41C190.85,219.98,193.44,219.35,193.51,216.52z
		 M64.2,269.23c0.13,0.32,0.22,0.59,0.65,0.53c0.74-0.1,1.8,0.29,2.08-0.55c0.21-0.61-0.86-0.75-1.35-1.1
		c-0.67-0.49-1.44-0.82-2.54-1.43C63.56,267.81,63.9,268.52,64.2,269.23z M141.66,45.58c-0.71-1.51-0.71-1.5-2.15-0.89
		c-0.56,0.24-1.13,0.46-1.69,0.69c0.01,0.06,0.03,0.13,0.04,0.19C139.11,45.58,140.36,45.58,141.66,45.58z M112.48,286.82
		c-1.31-0.46-2.6-0.53-3.76-1.09C109.89,287.1,111.04,287.42,112.48,286.82z"/>
	<path class="st1" d="M156.78,376.43c-1.43-0.99-3.27-1.25-4.56-2.5c-1.63-1.58-2.96-3.38-3.75-5.51c-0.2-0.53-0.48-0.8-0.89-1.08
		c-0.67,0.7-0.43,1.67-0.79,2.44c-0.08,0.17-0.02,0.53,0.11,0.64c1.63,1.38,3.11,2.91,4.59,4.44c0.66,0.68,1.7,0.78,2.62,1
		c0.29,0.07,0.66,0.08,0.44,0.56C155.3,376.43,156.04,376.43,156.78,376.43z"/>
	<path class="st2" d="M150.66,376.43c-1.55-0.57-2.58-1.98-4.11-2.68c-0.11,1.06,0.62,1.78,0.77,2.68
		C148.43,376.43,149.54,376.43,150.66,376.43z"/>
	<path class="st3" d="M106.16,24.35c0.93-0.08,1.84-0.2,2.72-0.5c1.87-0.65,3.06,0.01,3.32,1.97c0.15,1.17,0.7,2.18,1.11,3.24
		c0.48,1.24,1.46,1.16,2.51,0.49c2.7-1.73,4.62-4.48,7.61-5.81c0.26-0.12,0.56-0.35,0.42-0.62c-0.28-0.53-0.66-1.07-1.34-1.06
		c-0.64,0.01-1.3,0.17-1.82,0.57c-1.04,0.8-2.3,1.14-3.44,1.73c-0.77,0.4-1.17,0.18-1.58-0.46c-0.66-1.05-1.39-2.06-2.05-3.11
		c-0.32-0.5-0.63-0.59-1.24-0.44c-2.18,0.54-4.37,1.1-6.59,1.41c-1.25,0.17-1.8,1.11-1.75,1.84
		C104.1,24.2,105.31,24.43,106.16,24.35z"/>
	<path class="st3" d="M155.8,8.7c-0.77,0.21-1.24,0.9-1.4,1.72c-0.21,1.08-1.15,1.64-1.59,2.56c-0.23,0.47-0.95,0.21-1.34-0.11
		c-0.87-0.68-1.71-1.4-2.53-2.15c-1.18-1.08-1.69-1.03-2.15,0.5c-0.43,1.45-0.7,2.94-1.31,4.36c-0.28,0.64,0.36,1.38,0.97,1.71
		c0.67,0.36,0.79-0.37,1-0.8c0.24-0.49,0.66-0.99,0.67-1.49c0.04-1.45,0.58-1.48,1.51-0.66c0.67,0.6,1.48,1.04,1.97,1.85
		c0.34,0.56,1.94,0.39,2.31-0.35c0.85-1.68,1.75-3.32,2.87-4.84C157.27,10.32,156.57,8.7,155.8,8.7z"/>
	<path class="st4" d="M117.25,261.92c0.79-0.02,1.37-0.4,1.36-1.25c0-1.37-0.67-2.23-1.63-2.03c-0.97,0.2-1.93,0.12-2.88,0.13
		c-3.5,0.03-7.05,0-10.37-1.18c-4.26-1.52-8.01-4.09-11.85-6.43c-0.53-0.32-0.57-0.61-0.14-1.2c1.26-1.7,2.4-3.49,3.55-5.27
		c0.61-0.94,0.96-1.98,1.18-3.08c0.13-0.63-0.39-0.77-0.7-1.05c-0.18-0.17-0.44-0.06-0.54,0.21c-0.41,1.06-1.33,1.76-1.9,2.71
		c-1.92,3.2-4.38,5.99-6.77,8.84c-0.17,0.2-0.29,0.61-0.75,0.38c-1.96-0.98-4.14-1.43-6.05-2.59c-2.61-1.58-5.39-2.86-8.03-4.39
		c-3.77-2.19-7.81-4-10.66-7.55c-0.46-0.57-0.65-1.04-0.65-1.69c0.01-5.28,0.7-10.51,1.21-15.76c0.37-3.85,0.72-7.71,1.33-11.53
		c1.29-8.14,3.44-16.09,5.48-24.07c1.39-5.44,2.96-10.82,4.95-16.06c1.72-4.52,3.5-9.03,5.78-13.31c2.07-3.9,4.01-7.87,5.87-11.89
		c1.85-3.99,4.17-7.74,7.17-11c0.62-0.68,1.24-1.01,2.1-0.22c3.63,3.32,7.99,5.5,12.32,7.7c4.22,2.14,8.22,4.71,12.66,6.42
		c4.58,1.76,9.14,3.6,13.9,4.84c4.22,1.1,8.47,2.08,12.71,3.12c4.47,1.1,9.03,1.72,13.55,2.54c4.02,0.73,8.08,1.2,12.06,2.16
		c0.8,0.19,1.6,0.42,2.41,0.47c3.74,0.25,7.48,0.44,11.22,0.65c0.51,0.03,0.89,0.15,0.93,0.77c0.06,1.01,0.25,2.03,0.23,3.04
		c-0.08,3.41-0.22,6.82-0.53,10.23c-0.47,5.28-1.77,10.42-2.62,15.64c-0.58,3.54-1.72,6.95-2.68,10.4
		c-0.82,2.93-1.59,5.91-2.54,8.77c-1.28,3.86-2.85,7.65-4.43,11.42c-1.7,4.06-3.41,8.11-5.56,11.96c-1.81,3.23-3.83,6.34-5.34,9.74
		c-0.19,0.44-0.23,0.92-0.59,1.35c-2.26,2.71-3.93,5.84-6.14,8.61c-1.81,2.26-3.49,4.66-5.2,7.01c-1.58,2.17-3.52,4.12-5.42,6.06
		c-2.78,2.85-5.54,5.7-8.56,8.28c-0.42,0.36-0.83,0.8-1.46,0.64c-1.45-0.37-2.96-0.15-4.42-0.39c-4.37-0.72-8.69-1.68-13.03-2.57
		c-4.31-0.89-8.32-2.52-12.24-4.46c-0.49-0.24-0.88-0.44-0.82-1.1c0.12-1.33,0.19-2.67,0.27-4.01c0.03-0.56,0.15-0.76,0.85-0.62
		c2.57,0.54,5.18,0.72,7.81,0.63C114.83,261.93,116.04,261.95,117.25,261.92z M151,208.21c1.76-1.63,3.87-2.88,4.26-5.79
		c0.43-3.19,1.61-6.28,2.44-9.43c0.84-3.17,2.46-6.29,1.81-9.64c-0.67-3.42-1.38-6.89-5.14-8.75c-3.36-1.66-6.79-3.05-10.26-4.43
		c-3.91-1.55-7.97-2.48-11.99-3.55c-2.75-0.73-2.98-0.21-4.44,1.7c-2.31,3.03-3.58,6.62-4.86,10.18c-1.25,3.46-2.4,6.94-3.66,10.4
		c-0.48,1.33-0.58,2.77-1.33,4.02c-0.33,0.56,0.3,1.11,0.48,1.67c1.36,4.16,4.07,7.04,8.25,8.4c4.31,1.41,8.53,3.05,12.94,4.16
		c2.82,0.71,5.6,1.35,8.51,1.37C149.04,208.52,150.27,208.88,151,208.21z M86.05,189.25c0.93,3.03,3.27,5.2,6.55,4.4
		c2.03-0.49,3.99-1.34,5.64-2.62c2.54-1.98,5.21-3.75,7.86-5.56c3.88-2.66,7.36-5.81,10.77-9.03c1.04-0.98,2.08-1.95,3.13-2.92
		c0.57-0.52,0.88-1.02,0.25-1.75c-0.71-0.84-1.03-0.13-1.49,0.26c-1.37,1.17-2.89,2.19-4.1,3.5c-1.37,1.48-2.93,1.74-4.6,1.08
		c-1.56-0.62-3.2-0.74-4.77-1.28c-5.6-1.91-10.99-4.15-15.2-8.52c-0.21-0.22-0.35-0.34-0.26-0.68c0.89-3.43,1.83-6.85,3.24-10.12
		c0.11-0.25,0.19-0.52,0.28-0.78c0.24-0.63,0.1-1.27-0.45-1.53c-0.67-0.31-1.04,0.26-1.36,0.82c-1.82,3.2-2.62,6.78-3.52,10.28
		c-0.91,3.56-1.85,7.14-2.22,10.82c-0.22,2.25-0.36,4.5-0.5,6.33C85.41,184.69,85.37,187.03,86.05,189.25z"/>
	<path class="st5" d="M144.57,122.07c0.45-0.17,0.17-0.53,0.2-0.81c0.44-0.34,1.08-0.48,1.16-1.17c0.94-0.14,0.66-0.6,0.19-0.94
		c-0.77-0.56-1.64-0.99-2.4-1.56c-3.05-2.29-6.45-4.01-9.76-5.86c-3.83-2.14-8.05-3.47-12.09-5.16c-0.82-0.34-0.96-0.63-0.43-1.25
		c1.03-1.19,1.95-2.49,2.53-3.91c0.72-1.77,1.92-3.27,2.31-5.25c0.48-2.47,1.03-4.95,1.9-7.36c1.02-2.84,2.54-5.4,3.9-8.05
		c0.31-0.6,0.46-1.32,1.34-1.7c0.84,1.79,1.55,3.63,1.62,5.63c0.07,2.03,0.47,4.02,0.58,6.04c0.04,0.69,0.61,1.03,1.05,1.13
		c0.51,0.12,0.45-0.57,0.54-0.94c0.1-0.4,0.34-0.72,0.42-1.15c0.53-2.72-0.07-5.41-0.17-8.11c-0.05-1.27-0.23-2.53-0.51-3.8
		c0.3,0.12,0.45,0.28,0.58,0.46c0.14,0.18,0.25,0.39,0.4,0.56c3.25,3.63,6.12,7.48,8.08,11.99c0.44,1.03,1.15,2.12,2.4,2.53
		c1.48,0.49,2.97,0.93,4.43,1.46c4.25,1.53,8.48,3.11,12.66,4.8c2.73,1.11,5.56,1.96,8.4,2.75c0.55,0.15,0.96,0.03,1.41-0.29
		c2.03-1.42,4.04-2.89,6.16-4.17c1.44-0.87,2.71-2.01,4.31-2.62c0.28-0.11,0.71-0.44,0.75,0.05c0.06,0.63,0.39,1.37-0.29,1.91
		c-3.12,2.52-4.26,6.25-5.93,9.66c-0.15,0.31,0.16,0.17,0.3,0.17c0.07,0.09,0.15,0.18,0.22,0.27c0.04,0.32,0.16,0.66,0.09,0.94
		c-0.13,0.48-0.06,0.92,0.38,1.04c0.53,0.15,0.94-0.36,0.99-0.76c0.13-1.06,0.89-1.8,1.24-2.74c0.63-1.68,1.67-3.14,3.11-4.62
		c-0.28,1.83-0.37,3.43-0.79,4.95c-0.6,2.14-1.59,4.16-1.91,6.39c-0.04,0.28-0.12,0.51,0.03,0.78c1.08,1.99,0.73,4.14,0.78,6.26
		c0.05,2.26-0.91,4.33-0.98,6.55c-0.06,1.86-0.09,1.89-1.9,1.64c-3.7-0.52-7.39-1.04-11.14-1.14c-0.83-0.02-1.6,0.01-2.63,0.57
		c1.27,0.16,2.21,0.3,3.15,0.4c3.78,0.4,7.56,0.79,11.34,1.16c0.53,0.05,0.76,0.21,0.7,0.76c-0.05,0.46-0.06,0.93-0.07,1.39
		c-0.02,0.8-0.44,1.14-1.16,0.82c-0.57-0.25-1.21-0.18-1.74-0.39c-3.42-1.37-7.03-1.88-10.62-2.48c-0.83-0.14-1.59-0.07-2.36,0.59
		c2.73,0.61,5.32,1.19,7.92,1.77c2.12,0.47,4.24,0.95,6.36,1.41c1.4,0.3,1,1.38,0.75,2.13c-0.28,0.85-0.94,0.19-1.43,0.02
		c-4.17-1.42-8.33-2.86-12.66-3.72c-0.54-0.11-0.96-0.12-1.1,0.45c-0.18,0.7,0.48,0.55,0.81,0.63c2.15,0.51,4.19,1.36,6.36,1.85
		c2.2,0.49,4.38,1.28,6.57,1.89c1.28,0.36,1.45,0.99,1.02,1.95c-0.5,1.11-0.8,2.25-0.98,3.43c-0.33,2.23-1.6,4.3-1.1,6.67
		c0.17,0.81-0.4,0.53-0.75,0.52c-2.4-0.08-4.8-0.25-7.19-0.51c-4.87-0.52-9.73-1-14.53-2.06c-4.75-1.05-9.48-2.17-14.27-3.08
		c-4.66-0.89-9.12-2.65-13.49-4.43c-6.79-2.75-13.58-5.55-19.99-9.14c-1.69-0.95-1.69-0.95-0.26-2.22c0.14-0.12,0.3-0.25,0.37-0.41
		c1.08-2.39,2.9-4.39,3.62-6.98c0.52-1.84,2.27-6.75,4.13-6.47c2.99,0.46,14.59,4.49,17.58,4.99
		C140.34,119.1,143.73,122.04,144.57,122.07z M159.74,125.56c0.68-0.29,0.52-1.09,0.13-1.66c-0.38-0.56-0.94-0.87-1.59-1.05
		c-1.22-0.33-2.32-0.89-3.28-1.71c-0.6-0.52-1.18-0.47-1.7,0.09c-0.5,0.54-0.64,1.21-0.15,1.76c0.54,0.61,0.6,1.08,0.29,1.85
		c-0.35,0.85,0.76,1.99,2.25,2.07C156.78,126.55,158.31,126.17,159.74,125.56z M164.92,121.02c0.46,0.95,0.95,0.96,1.72,0.49
		c0.89-0.55,1.8-2.79,1.61-3.7c-0.12-0.55-0.52-0.64-0.72-0.87C165.58,117.12,164.2,119.52,164.92,121.02z M148.21,113.16
		c-0.03,0.95-1.19,1.87-0.12,2.88c0.72,0.68,1.79,0.58,2.27-0.4c0.36-0.73,0.63-1.54,0.81-2.34c0.18-0.8-0.47-0.98-1.15-1.19
		C149.64,112.87,148.24,112.13,148.21,113.16z M146.41,121.47c-0.48-0.27-0.7,0.05-1.08,0.42
		C145.93,122.04,146.19,121.87,146.41,121.47z"/>
	<path class="st6" d="M203.92,86.05c-3.7-6.64-8.35-12.06-13.93-16.78c-2.99-2.53-5.94-5.07-9.25-7.15
		c-3.71-2.33-7.57-4.37-11.62-6.07c-2.37-1-4.68-2.16-7.03-3.21c-2.84-1.26-5.81-2.04-8.79-2.82c-4.25-1.11-8.6-1.58-12.98-1.45
		c-3.82,0.12-7.57,0.67-11.2,2.02c-1.45,0.54-2.99,0.91-4.48,1.39c-5.13,1.67-8.69,5.37-11.92,9.4c-3.07,3.82-5.77,7.92-8.27,12.15
		c-1.69,2.85-3.68,5.52-5.18,8.49c-1.89,3.75-3.49,7.61-4.24,11.77c-1.31,7.28-1.29,14.54,0.21,21.79c0.33,1.58,1.04,3.03,1.65,4.52
		c0.12,0.3,0.3,0.51,0.62,0.69c1.21,0.68,2.35,1.48,3.37,2.42c0.56,0.51,0.78,0.48,1.05-0.38c1.74-5.63,2.85-11.42,4.56-17.05
		c2.18-7.2,4.54-14.34,6.94-21.46c2.21-6.55,3.82-13.27,5.21-20.04c0.16-0.77,0.36-1.54,0.64-2.27c0.75-1.97,1.7-2.41,3.69-1.78
		c1.8,0.57,3.75,0.73,5.46,1.38c7.51,2.84,15.47,4.05,23.06,6.61c5.4,1.82,10.95,3.25,16.34,5.11c7.87,2.71,15.74,5.44,23.61,8.17
		C195.52,82.9,199.42,84.79,203.92,86.05z"/>
	<path class="st6" d="M183.42,157.76c1.98-0.4,4.16,0.07,6.16-0.88c1.62-0.77,2.67-4.13,1.71-5.59c-0.2-0.3-0.5-0.22-0.75-0.17
		c-3.29,0.66-6.55,0.28-9.86,0.02c-3.04-0.24-6.11-0.31-9.14-0.65c-4.6-0.52-9.22-0.97-13.75-2.02c-4.82-1.12-9.72-1.88-14.54-3.02
		c-3.71-0.88-7.27-2.31-10.88-3.52c-5.74-1.93-11.21-4.5-16.77-6.86c-6.15-2.61-11.53-6.45-16.84-10.42
		c-1.1-0.82-2.29-1.52-3.42-2.29c-0.3-0.2-0.67-0.42-0.81-0.73c-0.18-0.4-0.38-0.88-0.78-0.83c-0.27,0.04-0.52,0.56-0.67,0.91
		c-1.22,2.88-0.17,6.14,2.07,8.35c3.32,3.28,7.42,5.28,11.43,7.41c3.34,1.78,6.43,3.97,9.94,5.44c6.6,2.76,13.21,5.42,20.23,7
		c5.66,1.28,11.24,2.89,16.97,3.86c4.58,0.77,9.22,1.2,13.77,2.1c5.1,1.01,10.25,1.4,15.41,1.83
		C183.05,157.73,183.19,157.74,183.42,157.76z"/>
	<path class="st2" d="M184.81,340.93c-1.28,0.3-2.47,0.88-3.81,1.05c-3.83,0.51-7.57,0.14-11.09-1.32c-1.44-0.6-2.94-1.43-4.07-2.67
		c-0.47-0.52-0.84-0.49-1.07,0.25c-0.15,0.48-0.43,0.91-0.6,1.38c-0.25,0.7-0.33,1.25,0.37,1.91c1.19,1.12,1.81,2.71,2.89,3.99
		c1.86,2.21,4.19,2.63,6.85,2.62c4.12-0.01,7.22-2.12,10.19-4.6c0.52-0.43,0.79-1.02,1.07-1.59
		C186.02,341.03,185.94,340.95,184.81,340.93z"/>
	<path class="st1" d="M144.77,121.26c0.44-0.34,1.08-0.48,1.16-1.17c-1.82-0.5-3.28-1.7-4.88-2.61c-3.14-1.78-6.08-3.86-9.37-5.44
		c-3-1.45-6.1-2.61-9.11-4c-0.62-0.28-1.3-0.42-1.95-0.63c-0.28-0.09-0.47-0.13-0.67,0.22c-0.72,1.23-1.49,2.44-2.26,3.64
		c-0.35,0.55-0.21,0.82,0.4,0.97c3.02,0.76,6.04,1.54,9.06,2.3c5.51,1.39,10.95,3.02,16.04,5.61
		C143.76,120.45,144.25,120.89,144.77,121.26z"/>
	<path class="st2" d="M189.32,312.72c-1.35,1.02-2.52,1.99-3.93,2.55c-2.45,0.98-4.91,1.81-7.62,1.93c-1.76,0.08-3.53,0.18-5.3,0.24
		c-1.93,0.06-2.83,2.07-1.97,3.8c0.65,1.32,1.78,1.74,3.01,1.99c3.02,0.6,5.68-0.69,8.29-1.9c2.59-1.2,4.63-3.17,6.49-5.31
		C189.42,314.7,189.44,314.72,189.32,312.72z"/>
	<path class="st1" d="M60.38,240.88c0.13,1.66-0.01,3.19,0.44,4.51c0.27,0.81,1.45,1.32,2.22,1.96c4.38,3.61,9.47,5.94,14.66,8.09
		c0.85,0.35,1.75,0.55,2.61,0.88c2.3,0.88,2.55,0.81,3.8-1.13C76.08,250.81,67.35,247.6,60.38,240.88z"/>
	<path class="st2" d="M188.74,325.49c-2.48,2.5-5.39,3.68-8.5,4.12c-3.26,0.47-6.55,0.26-9.64-1.15c-0.5-0.23-1.03-0.38-1.51-0.63
		c-0.28-0.15-0.53-0.45-0.84-0.15c-0.25,0.24-0.23,0.57-0.09,0.9c1.09,2.45,2.5,4.61,5.3,5.31c3.26,0.82,6.32,0.27,9.31-1.27
		c1.68-0.87,3.36-1.65,4.88-2.82C189.12,328.69,188.98,327.29,188.74,325.49z"/>
	<path class="st2" d="M174.47,365.27c-2.55,0.21-4.96-0.5-7.41-0.4c-4.52,0.2-9.04-3.38-10.01-7.9c-0.18-0.84-0.62-1.61-0.99-2.54
		c-0.38,0.44-0.68,0.82-1.02,1.16c-1.03,1.03-1.12,2.1-0.64,3.52c1.29,3.77,3.6,6.64,7.03,8.62c1.31,0.76,2.75,0.62,4.19,0.51
		c2.32-0.18,4.45-1.11,6.67-1.67C173.09,366.37,174.04,366.48,174.47,365.27z"/>
	<path class="st1" d="M133.13,276.74c-2.38,0.05-4.4-0.2-6.34-0.65c-4.13-0.96-8.39-1.29-12.45-2.69c-3.13-1.08-6.31-1.98-9.06-3.93
		c-0.49-0.35-0.88-0.28-0.87,0.46c0.01,0.79-0.13,1.61,0.04,2.36c0.21,0.92,1.26,0.73,1.91,1.03c6.01,2.74,12.34,4.27,18.87,5.11
		c1.58,0.2,3.14,0.13,4.7,0.22C131.27,278.73,132.06,277.82,133.13,276.74z"/>
	<path class="st1" d="M165.63,335.7c1.4-0.16,2.22,0.79,3,1.53c1.32,1.25,2.92,1.78,4.56,2.19c3,0.74,6.03,0.66,9.01-0.27
		c1.63-0.51,3.18-1.16,4.51-2.26c1.23-1.02,0.68-2.56,1.24-3.84c-1.56,1.21-3.4,1.71-5.07,2.5c-3.36,1.59-6.87,1.7-10.47,0.49
		c-2.33-0.78-3.85-2.3-5.1-4.47C166.39,332.83,166.22,334.28,165.63,335.7z"/>
	<path class="st2" d="M160.98,347.23c-0.69,0.41-0.41,0.92-0.28,1.37c0.74,2.63,1.76,5.15,3.69,7.15c1.34,1.39,3.25,1.93,4.98,2.16
		c3.14,0.42,6.38,0.32,9.23-1.39c0.98-0.59,2.13-1.13,2.98-2.55c-4.15,0.84-7.96,1.48-11.79,0.15
		C166.05,352.83,163.1,350.55,160.98,347.23z"/>
	<path class="st1" d="M188.96,304.31c-1.03,0.44-1.39,1.43-2.13,2.02c-2.04,1.66-4.29,3.01-6.44,4.5c-1.69,1.17-3.75,1.56-5.74,1.73
		c-1.03,0.09-1.71-1.01-2.28-2.05c-0.64,1.2-0.58,2.37-0.81,3.46c-0.1,0.49,0.14,0.62,0.61,0.63c4.28,0.17,8.48-0.25,12.58-1.56
		c1.5-0.48,2.58-1.58,3.77-2.51c1.52-1.19,0.58-2.83,0.72-4.27C189.29,305.67,189.08,305.04,188.96,304.31z"/>
	<path class="st1" d="M189.27,318.07c-1.55,1.98-3.09,3.46-4.97,4.54c-3.44,1.98-6.95,3.79-11.11,3.1
		c-1.62-0.27-2.54-1.57-3.33-2.93c-1.18,1.62-1.16,2.19,0.48,3.19c1.54,0.94,3.1,1.86,5.06,1.78c2.04-0.09,4.07,0.23,6.11-0.5
		c1.9-0.68,3.55-1.64,5.1-2.88c0.7-0.56,1.13-1.53,2.24-1.46c0.29,0.02,0.24-0.23,0.26-0.38
		C189.23,321.18,189.4,319.83,189.27,318.07z"/>
	<path class="st1" d="M178.55,359.87c-9.89,2.26-16.94,0.48-19.53-9.51c-0.38-0.03-0.36,0.36-0.51,0.54
		c-0.62,0.74-1.23,1.42-0.1,2.35c1.1,0.89,0.78,2.39,0.98,3.58c0.29,1.7,1.55,3.71,3.2,4.28c3.61,1.24,7.33,1.7,11.13,1.41
		c0.09-0.01,0.19,0,0.28-0.01C176.95,362.38,176.95,362.38,178.55,359.87z"/>
	<path class="st2" d="M188.35,298.65c-2,2.72-4.65,3.93-7.4,5.04c-1.34,0.54-2.76,0.64-4.13,0.99c-1.25,0.32-2.39,0.88-3.56,1.36
		c-1.15,0.47-0.86,1.54-0.79,2.35c0.05,0.69,2.58,1.51,3.43,1.32c2.64-0.6,4.74-2.21,6.89-3.71c1.94-1.35,3.66-2.94,5.12-4.81
		C188.42,300.52,188.69,299.87,188.35,298.65z"/>
	<path class="st1" d="M173.25,299.62c-0.47,1.21-0.23,2.38-0.33,3.52c-0.05,0.61,0.3,0.63,0.82,0.48c3.65-1.11,7.32-2.14,10.56-4.29
		c1.22-0.81,1.99-2.2,3.49-2.65c0.31-0.09,0.12-0.59,0.08-0.89c-0.15-1.09-0.32-2.18-0.52-3.48c-1.86,2.03-3.95,3.58-6.03,5.14
		c-1.98,1.48-4.15,2.59-6.65,2.88C174.09,300.38,173.42,300.53,173.25,299.62z"/>
	<path class="st2" d="M61.23,248.92c0,0.85,0,1.54,0,2.24c-0.01,1-0.14,2.07,1.46,1.78c0.33-0.06,0.58,0.24,0.81,0.48
		c1.93,2.02,4.44,3.12,6.91,4.28c1.95,0.92,3.98,1.68,5.73,3.01c1.08,0.81,3.29,0.06,3.77-1.16c0.22-0.56-0.22-0.63-0.55-0.75
		c-0.99-0.36-2.01-0.65-2.98-1.05c-3.79-1.6-7.55-3.22-10.95-5.61C64.04,251.14,62.66,250.16,61.23,248.92z"/>
	<path class="st2" d="M178.7,215.47c1.93-1.75,4.51-2.05,6.68-3.17c2.24-1.15,4.46-2.4,6.88-3.18c0.51-0.16,0.49-0.45,0.41-0.83
		c-0.1-0.5-0.18-1-0.31-1.49c-0.2-0.72-0.41-1.12-1.29-0.49c-2.51,1.79-5.47,2.88-8.42,2.81c-2.18-0.05-2.19,1-2.59,2.32
		C179.65,212.81,179.16,214.13,178.7,215.47z"/>
	<path class="st1" d="M61.47,255.08c0.12,1.51,0.08,2.82,0.37,4.05c0.32,1.35,1.74,1.66,2.8,2.2c1.19,0.6,2.52,0.95,3.69,1.54
		c1.2,0.6,2.51,0.77,3.68,1.36c2.03,1.03,2.86,0.72,4.15-1.54c-2.89-0.3-5.22-1.76-7.56-3.26C66.37,257.98,63.6,257.39,61.47,255.08
		z"/>
	<path class="st2" d="M126.02,281.22c-7.45-0.5-14.45-2.55-21.14-5.78c-0.39,2.12,0.1,2.91,1.97,3.6
		c5.08,1.89,10.39,2.77,15.68,3.75C123.95,283.06,124.79,281.72,126.02,281.22z"/>
	<path class="st4" d="M186.74,186.81c-0.34,0.65-3.02,12.2-3.12,13.52c1.16-0.37,2.18-0.98,3.25-1.47c0.83-0.38,1.54-1.16,2.65-0.84
		c0.46,0.13,0.76-0.29,0.62-0.8c-0.91-3.51-1.86-7-3.29-10.34C186.84,186.84,186.78,186.83,186.74,186.81z"/>
	<path class="st2" d="M185.79,286.86c-1.49,2.29-3.54,3.7-5.79,4.85c-0.9,0.46-1.72,1.08-2.59,1.59c-1.26,0.74-2.55,1.27-3.95,1.5
		c-0.81,0.13-0.95,0.57-0.69,1.15c0.35,0.75-0.25,1.84,0.37,2.21c0.66,0.39,1.34-0.58,2.08-0.82c3.47-1.08,6.31-3.24,9.03-5.53
		C186.39,290.03,186.71,288.8,185.79,286.86z"/>
	<path class="st1" d="M183.32,348.23c-9.93,5.4-15.69,2.99-20.12-5.23c-0.72,0.72-0.99,1.32-0.46,2.38c1.86,3.72,4.86,6.01,8.8,6.85
		c2.93,0.63,5.92,0.35,8.88-0.53C182.23,351.15,183.07,350.14,183.32,348.23z"/>
	<path class="st2" d="M162.92,247.42c-2.07,3.76-4.81,6.95-7.22,10.37c-0.2,0.28-0.64,0.61-0.1,0.88c0.56,0.28,0.8,1.29,1.7,0.79
		c3.57-2.02,5.89-4.99,6.72-9.05C164.24,249.29,163.93,248.3,162.92,247.42z"/>
	<path class="st1" d="M190.65,199.79c-1.73,0.56-3.13,1.64-4.71,2.37c-0.95,0.44-1.81,1.13-2.93,1.1c-0.27-0.01-0.51,0.11-0.53,0.32
		c-0.11,1.23-1.02,2.27-0.9,3.61c2.93-0.76,5.83-1.4,8.51-2.85c1.11-0.6,1.48-1.19,1.05-2.37
		C190.9,201.3,190.82,200.57,190.65,199.79z"/>
	<path class="st1" d="M167.91,275.45c1.14-0.65,2.19-1.2,3.18-1.84c2.38-1.52,4.37-3.36,5.36-6.14c0.55-1.54,0.19-2.74-0.87-3.96
		c-1.1,3.33-3.45,5.66-5.83,7.96c-0.45,0.44-0.89,0.96-1.6,1.05c-0.33,0.04-0.5,0.26-0.5,0.57c0.01,0.36,0.68,1.14-0.48,0.66
		c-0.07-0.03-0.08,0.28,0.02,0.46C167.45,274.59,167.66,274.99,167.91,275.45z"/>
	<path class="st2" d="M165.49,271.5c3.56-3.27,7.78-5.86,7.77-11.7c-1.78,2.2-3.21,4.18-5.07,5.81c-1.09,0.95-2.25,1.8-3.57,2.33
		c-1.24,0.5-0.82,1.09-0.29,1.71C164.8,270.2,165.44,270.6,165.49,271.5z"/>
	<path class="st2" d="M178.67,268.56c-1.35,2.96-3.47,5.11-6.27,6.58c-1.11,0.58-2.01,1.61-3.38,1.7c-0.22,0.01-0.48,0.2-0.38,0.48
		c0.34,0.9,0.68,1.79,1.09,2.66c0.15,0.33,0.49,0.16,0.72,0.01c2.68-1.65,5.2-3.58,6.85-6.25
		C178.21,272.26,178.7,270.4,178.67,268.56z"/>
	<path class="st2" d="M171.58,286.17c0.28,2.54,0.55,2.74,2.53,1.35c2.79-1.95,5.51-4.02,7.8-6.58c0.62-0.69,0.94-1.57,1.26-2.43
		c0.11-0.28,0.1-0.67-0.24-0.88c-0.33-0.2-0.54,0.03-0.66,0.28c-1.4,2.82-4.19,4.05-6.59,5.7c-1.11,0.76-2.16,1.75-3.68,1.78
		C171.59,285.41,171.45,285.85,171.58,286.17z"/>
	<path class="st1" d="M184.45,281.93c-2.47,3.39-5.72,5.85-9.16,8.09c-0.7,0.46-1.45,1.28-2.44,0.43c-0.13-0.11-0.42-0.09-0.43,0.15
		c-0.02,0.54-0.08,1.12,0.08,1.62c0.1,0.32,0.61,0.17,0.88,0.05c1.56-0.68,3.12-1.36,4.65-2.11c2.37-1.16,4.52-2.56,6.1-4.81
		C185.29,283.72,185.49,283.46,184.45,281.93z"/>
	<path class="st1" d="M167.38,253.29c0-0.23,0.01-0.46,0-0.69c-0.03-0.47-0.37-0.83-0.74-0.9c-0.49-0.1-0.49,0.47-0.59,0.78
		c-1.25,3.73-3.56,6.59-6.92,8.61c-0.27,0.17-0.51,0.32-0.3,0.61c0.32,0.45,0.71,0.86,1.1,1.25c0.7,0.7,0.94-0.25,1.28-0.47
		c2.88-1.93,5.16-4.33,5.99-7.87C167.29,254.17,167.25,253.72,167.38,253.29z"/>
	<path class="st1" d="M169.41,255.25c-0.86,4.32-3.54,7.25-6.81,9.78c-0.35,0.27-0.96,0.33-0.42,1.11c0.44,0.62,0.78,0.68,1.33,0.37
		c1.28-0.72,2.44-1.61,3.55-2.59c1.61-1.41,2.59-3.26,3.58-5.08C171.62,257.05,171.54,257,169.41,255.25z"/>
	<path class="st1" d="M168.82,370.27c-3.54,1.42-7.35,1.15-10.58-1.71c-2.17-1.92-3.88-4.13-4.81-6.91c-0.1-0.3-0.23-0.64-0.46-0.84
		c-0.4-0.33-0.36-1.51-1.09-0.99c-0.6,0.43-1.24,1.53-0.7,2.24c1.53,2.05,2.63,4.42,4.69,6.1c2.08,1.7,4.49,2.57,7,3.29
		c0.4,0.12,0.79,0.25,1.19,0.39C166.05,372.54,167.28,372.17,168.82,370.27z"/>
	<path class="st2" d="M132.97,31.27c1.3-0.04,3.01-2.17,2.95-3.68c-0.04-1.17-1.24-2.33-2.46-2.37c-1.45-0.05-3.63,2.49-3.61,4.18
		C129.87,30.18,131.76,31.31,132.97,31.27z"/>
	<path class="st1" d="M180.8,218.62c0.84,0.55,1.44,0.02,2.19-0.36c2.24-1.14,4.57-2.11,6.85-3.17c0.96-0.44,1.85-1.04,2.84-1.39
		c1.01-0.35,0.73-1.11,0.53-1.63c-0.3-0.79-0.85-0.12-1.24,0.04c-3.15,1.25-5.99,3.18-9.26,4.23
		C181.96,216.58,181.18,217.67,180.8,218.62z"/>
	<path class="st1" d="M180.79,271.92c-1.52,4.7-4.58,7.67-8.21,10.17c-0.37,0.25-0.75,0.55-1.25,0.53
		c-0.65-0.03-0.44,0.35-0.37,0.73c0.08,0.45,0.21,0.75,0.7,0.47c3.98-2.33,8.17-4.44,9.81-9.27c0.17-0.51-0.1-0.77-0.24-1.14
		C181.08,273.04,181,272.65,180.79,271.92z"/>
	<path class="st1" d="M105.94,281.4c0.11,0.68,0.38,1.11,0.97,1.33c3.03,1.14,6.21,1.81,9.23,2.99c1.11,0.43,2.17-0.87,3.32-1.26
		C114.9,283.61,110.44,282.56,105.94,281.4z"/>
	<path class="st2" d="M149.29,365.24c0.87,5.19,7.06,9.59,11.59,8.43c-2.23-0.99-4.41-1.92-6.56-2.91
		C151.97,369.68,151.41,366.92,149.29,365.24z"/>
	<path class="st2" d="M71.87,266.27c-3.21-1.06-6.65-1.15-9.39-3.49c-0.13,0.91-0.06,1.5,0.83,1.93c1.35,0.66,2.66,1.42,3.92,2.24
		C69.52,268.44,69.96,268.41,71.87,266.27z"/>
	<path class="st2" d="M134.06,43.26c1.65,0.14,3.08-0.71,4.61-1.08c0.41-0.1,0.91-0.47,0.48-1.04c-0.38-0.5-0.21-1.63-1.35-1.31
		c-1.54,0.44-3.07,0.94-4.65,1.24c-0.98,0.19-0.5,1.03-0.59,1.6c-0.1,0.68,0.4,0.58,0.81,0.58
		C133.6,43.26,133.83,43.26,134.06,43.26z"/>
	<path class="st2" d="M132.7,38.22c1.5-0.34,2.88-0.6,4.23-1.16c-0.44-0.79-0.91-1.49-1.24-2.24c-0.29-0.69-0.55-0.85-1.34-0.59
		C132.26,34.94,132.14,35.1,132.7,38.22z"/>
	<path class="st2" d="M186.15,219.94c4.7,0.04,7.28-0.58,7.36-3.41C191.12,217.64,188.78,218.72,186.15,219.94z"/>
	<path class="st1" d="M63.05,266.69c0.51,1.12,0.86,1.82,1.15,2.54c0.13,0.32,0.22,0.59,0.65,0.53c0.74-0.1,1.8,0.29,2.08-0.55
		c0.21-0.61-0.86-0.75-1.35-1.1C64.92,267.63,64.14,267.3,63.05,266.69z"/>
	<path class="st2" d="M137.85,45.58c1.26,0,2.51,0,3.81,0c-0.71-1.51-0.71-1.5-2.15-0.89c-0.56,0.24-1.13,0.46-1.69,0.69
		C137.83,45.45,137.84,45.51,137.85,45.58z"/>
	<path class="st2" d="M108.72,285.73c1.17,1.36,2.32,1.69,3.76,1.09C111.17,286.36,109.87,286.3,108.72,285.73z"/>
	<path class="st2" d="M120.58,113.56c0.16,0.07,0.32,0.13,0.47,0.2C120.95,113.55,120.8,113.49,120.58,113.56z"/>
	<path class="st2" d="M129.22,116.09c0.07,0.05,0.14,0.11,0.21,0.16C129.36,116.2,129.29,116.14,129.22,116.09z"/>
	<path class="st2" d="M141.29,122.63"/>
	<path class="st2" d="M124.21,114.71c0.03,0.08,0.09,0.13,0.18,0.15C124.33,114.81,124.27,114.76,124.21,114.71z"/>
	<path class="st6" d="M180.82,107.4c0.03-0.09,0.07-0.19,0.1-0.28c-0.11,0-0.22,0-0.32,0.01
		C180.68,107.22,180.75,107.31,180.82,107.4z"/>
	<path class="st2" d="M118.98,113.27c0.17,0.06,0.34,0.11,0.51,0.17C119.37,113.24,119.2,113.17,118.98,113.27z"/>
	<path class="st1" d="M121.11,113.79c0.11,0.07,0.23,0.13,0.34,0.2C121.34,113.92,121.23,113.86,121.11,113.79z"/>
	<path class="st2" d="M122.9,114.36c0.15,0.07,0.31,0.14,0.46,0.21C123.28,114.33,123.11,114.29,122.9,114.36z"/>
	<path class="st2" d="M136.74,118.88c0.09,0.05,0.18,0.1,0.27,0.14C136.92,118.97,136.83,118.92,136.74,118.88z"/>
	<path class="st2" d="M136.18,118.6c0.08,0.05,0.16,0.1,0.23,0.15C136.34,118.7,136.26,118.65,136.18,118.6z"/>
	<path class="st3" d="M139.52,207.16c-4.41-1.11-8.64-2.76-12.94-4.16c-4.18-1.37-6.89-4.25-8.25-8.4c-0.18-0.55-0.81-1.1-0.48-1.67
		c0.75-1.26,0.85-2.7,1.33-4.02c1.26-3.45,2.41-6.94,3.66-10.4c1.28-3.55,2.54-7.15,4.86-10.18c1.46-1.91,1.69-2.43,4.44-1.7
		c4.03,1.08,8.08,2,11.99,3.55c3.47,1.38,6.9,2.77,10.26,4.43c3.76,1.86,4.47,5.33,5.14,8.75c0.65,3.35-0.97,6.46-1.81,9.64
		c-0.83,3.14-2.02,6.23-2.44,9.43c-0.39,2.9-2.49,4.16-4.26,5.79c-0.73,0.67-1.96,0.32-2.98,0.32
		C145.12,208.51,142.34,207.87,139.52,207.16z M151.53,202.14c0.56-3.25,1.2-6.49,2.32-9.58c0.75-2.08,1.43-4.19,2.01-6.29
		c0.83-3.01-0.01-4.8-3-5.99c-2.61-1.04-5.34-1.63-8.03-2.35c-2.19-0.59-4.28-1.43-6.4-2.2c-1.43-0.52-2.84-1.03-4.35-1.3
		c-1.3-0.23-2.47,0.44-2.85,1.38c-2.45,6.03-5.21,11.96-6.39,18.45c-0.25,1.38,0.79,2.55,0.25,3.89c-0.06,0.15,0.27,0.17,0.42,0.25
		c5.18,2.72,10.69,4.38,16.45,5.32c2.11,0.35,4.16,1.06,6.33,1.09C151.04,204.79,151.08,204.8,151.53,202.14z"/>
	<path class="st6" d="M85.81,175.63c0.37-3.68,1.31-7.26,2.22-10.82c0.9-3.5,1.69-7.07,3.52-10.28c0.32-0.56,0.69-1.13,1.36-0.82
		c0.55,0.26,0.69,0.9,0.45,1.53c-0.1,0.26-0.18,0.52-0.28,0.78c-1.42,3.26-2.35,6.68-3.24,10.12c-0.09,0.34,0.05,0.46,0.26,0.68
		c4.22,4.37,9.6,6.61,15.2,8.52c1.57,0.53,3.21,0.66,4.77,1.28c1.67,0.66,3.23,0.41,4.6-1.08c1.21-1.31,2.74-2.33,4.1-3.5
		c0.46-0.4,0.78-1.1,1.49-0.26c0.63,0.74,0.32,1.23-0.25,1.75c-1.05,0.96-2.09,1.94-3.13,2.92c-3.42,3.22-6.89,6.37-10.77,9.03
		c-2.65,1.82-5.33,3.58-7.86,5.56c-1.65,1.29-3.61,2.13-5.64,2.62c-3.28,0.8-5.62-1.37-6.55-4.4c-0.68-2.21-0.64-4.55-0.74-7.29
		C85.45,180.13,85.59,177.87,85.81,175.63z M88.71,171.48c-0.26,0.83,0.06,1.22,0.56,1.64c4.88,4.14,10.43,6.69,16.9,6.73
		c1.35,0.01,2.99,0.44,4.36-0.89c-7.65-2.21-15.06-4.56-21.27-9.92C89.09,170,88.93,170.77,88.71,171.48z M88.25,174.79
		c-0.53,4.28-0.82,3.02,2.71,5.16c3.36,2.04,7.14,3.11,10.97,4.01c1.81,0.43,2.67-0.87,4.16-1.73c-7.01-0.76-13.31-2.23-17.81-7.83
		C88.27,174.51,88.27,174.65,88.25,174.79z M92.93,183.2c-1.24-0.7-2.55-1.27-3.75-2.07c-0.39-0.26-1.02-0.92-1.36-0.32
		c-0.28,0.51-0.34,1.28,0.47,1.91c3.06,2.37,6.6,3.51,10.28,4.36c0.98,0.23,1.12-0.8,2.11-1.15
		C97.82,185.08,95.25,184.5,92.93,183.2z M87.97,185.37c-0.11,0.35,0.05,0.6,0.32,0.84c1.28,1.18,2.87,1.8,4.48,2.28
		c0.6,0.18,1.09,0.35,1.5,0.8c0.35,0.37,0.77,0.27,1.14,0.06c0.18-0.1,0.43-0.38,0.39-0.52c-0.11-0.44-0.57-0.37-0.91-0.45
		c-2.18-0.48-4.04-1.62-5.87-2.8c-0.23-0.15-0.48-0.27-0.76-0.42C88.15,185.24,87.99,185.29,87.97,185.37z"/>
	<path class="st3" d="M155.68,126.91c1.1-0.35,2.63-0.73,4.06-1.35c0.68-0.29,0.52-1.09,0.13-1.66c-0.38-0.56-0.94-0.87-1.59-1.05
		c-1.22-0.33-2.32-0.89-3.28-1.71c-0.6-0.52-1.18-0.47-1.7,0.09c-0.5,0.54-0.64,1.21-0.15,1.76c0.54,0.61,0.6,1.08,0.29,1.85
		C153.08,125.68,154.19,126.82,155.68,126.91z"/>
	<path class="st3" d="M167.53,116.93c-1.95,0.18-3.33,2.59-2.61,4.08c0.46,0.95,0.95,0.96,1.72,0.49c0.89-0.55,1.8-2.79,1.61-3.7
		C168.12,117.25,167.72,117.16,167.53,116.93z"/>
	<path class="st3" d="M150.02,112.12c-0.38,0.75-1.78,0.01-1.81,1.04c-0.03,0.95-1.19,1.87-0.12,2.88c0.72,0.68,1.79,0.58,2.27-0.4
		c0.36-0.73,0.63-1.54,0.81-2.34C151.35,112.51,150.7,112.32,150.02,112.12z"/>
	<path class="st1" d="M123.65,115.19c-0.03,0.01-0.06,0.03-0.09,0.04c0.04,0.03,0.09,0.07,0.13,0.1c0.02-0.03,0.05-0.07,0.04-0.09
		S123.67,115.21,123.65,115.19z"/>
	<path class="st6" d="M141.97,203.73c-5.76-0.95-11.27-2.6-16.45-5.32c-0.15-0.08-0.48-0.11-0.42-0.25c0.54-1.33-0.5-2.5-0.25-3.89
		c1.18-6.49,3.94-12.42,6.39-18.45c0.39-0.95,1.55-1.61,2.85-1.38c1.5,0.26,2.92,0.78,4.35,1.3c2.12,0.77,4.21,1.61,6.4,2.2
		c2.69,0.72,5.42,1.32,8.03,2.35c2.99,1.19,3.83,2.98,3,5.99c-0.58,2.1-1.26,4.22-2.01,6.29c-1.12,3.09-1.77,6.33-2.32,9.58
		c-0.45,2.65-0.49,2.65-3.23,2.67C146.13,204.79,144.08,204.08,141.97,203.73z M146.71,187.26c-2.3-0.01-5.15,2.04-5.2,3.73
		c-0.05,1.94,3.19,5.19,5.29,5.3c1.9,0.1,3.5-1.93,3.57-4.53C150.42,190.23,148.01,187.27,146.71,187.26z M139.27,187.74
		c0.09-1.13-0.32-2.04-1.41-2.37c-0.68-0.2-2.25,1.6-2.22,2.53c0.03,0.8,0.01,1.68,0.77,2.25c0.47,0.36,0.84,0.85,1.63,0.55
		c0.86-0.33,1.29-0.82,1.27-1.72c0-0.28,0-0.55,0-0.83c-0.01,0-0.02,0-0.02,0C139.28,188.01,139.26,187.87,139.27,187.74z
		 M130.35,187.81c0.03,0.37,0.13,0.73,0.58,0.83c0.43,0.09,0.85,0.06,1.17-0.26c0.95-0.94,0.91-3.84,0.02-4.86
		c-0.46-0.53-0.66-0.59-1.09,0.04c-0.64,0.94-0.69,0.91-0.69,2.86C130.34,186.89,130.32,187.35,130.35,187.81z"/>
	<path class="st1" d="M89.26,169.03c-0.18,0.97-0.33,1.74-0.56,2.45c-0.26,0.83,0.06,1.22,0.56,1.64c4.88,4.14,10.43,6.69,16.9,6.73
		c1.35,0.01,2.99,0.44,4.36-0.89C102.88,176.74,95.47,174.39,89.26,169.03z"/>
	<path class="st2" d="M88.28,174.4c-0.01,0.11-0.02,0.24-0.03,0.38c-0.53,4.28-0.82,3.02,2.71,5.16c3.36,2.04,7.14,3.11,10.97,4.01
		c1.81,0.43,2.67-0.87,4.16-1.73C99.08,181.48,92.78,180.01,88.28,174.4z"/>
	<path class="st1" d="M100.68,185.94c-2.86-0.87-5.43-1.44-7.75-2.74c-1.24-0.7-2.55-1.27-3.75-2.07c-0.39-0.26-1.02-0.92-1.36-0.32
		c-0.28,0.51-0.34,1.28,0.47,1.91c3.06,2.37,6.6,3.51,10.28,4.36C99.55,187.32,99.7,186.29,100.68,185.94z"/>
	<path class="st2" d="M88.25,185.17c-0.1,0.07-0.26,0.12-0.29,0.21c-0.11,0.35,0.05,0.6,0.32,0.84c1.28,1.18,2.87,1.8,4.48,2.28
		c0.6,0.18,1.09,0.35,1.5,0.8c0.35,0.37,0.77,0.27,1.14,0.06c0.18-0.1,0.43-0.38,0.39-0.52c-0.11-0.44-0.57-0.37-0.91-0.45
		c-2.18-0.48-4.04-1.62-5.87-2.8C88.78,185.44,88.53,185.32,88.25,185.17z"/>
	<path class="st3" d="M146.81,196.29c-2.1-0.11-5.35-3.36-5.29-5.3c0.05-1.7,2.9-3.74,5.2-3.73c1.3,0.01,3.71,2.97,3.67,4.5
		C150.31,194.36,148.71,196.4,146.81,196.29z M147.59,190.82c0.02-0.72-0.6-0.76-1.04-0.88c-0.49-0.13-0.46,0.42-0.61,0.71
		c-0.1,0.2-0.13,0.43-0.19,0.65c-0.14,0.49-0.27,1.06,0.07,1.42c0.32,0.34,0.88,0.18,1.31,0.06c0.72-0.19,0.35-0.84,0.45-1.12
		C147.59,191.28,147.58,191.05,147.59,190.82z"/>
	<path class="st3" d="M139.29,188.15c-0.01-0.14-0.03-0.28-0.02-0.41c0.09-1.13-0.32-2.04-1.41-2.37c-0.68-0.2-2.25,1.6-2.22,2.53
		c0.03,0.8,0.01,1.68,0.77,2.25c0.47,0.36,0.84,0.85,1.63,0.55c0.86-0.33,1.29-0.82,1.27-1.72c0-0.28,0-0.55,0-0.83
		C139.3,188.15,139.29,188.15,139.29,188.15z"/>
	<path class="st3" d="M130.34,186.42c0,0.46-0.03,0.93,0.01,1.39c0.03,0.37,0.13,0.73,0.58,0.83c0.43,0.09,0.85,0.06,1.17-0.26
		c0.95-0.94,0.91-3.84,0.02-4.86c-0.46-0.53-0.66-0.59-1.09,0.04C130.4,184.51,130.35,184.47,130.34,186.42z"/>
	<path class="st2" d="M147.59,191.66c0-0.38-0.01-0.61,0-0.84c0.02-0.72-0.6-0.76-1.04-0.88c-0.49-0.13-0.46,0.42-0.61,0.71
		c-0.1,0.2-0.13,0.43-0.19,0.65c-0.14,0.49-0.27,1.06,0.07,1.42c0.32,0.34,0.88,0.18,1.31,0.06
		C147.85,192.59,147.48,191.95,147.59,191.66z"/>
	<path class="st3" d="M26.81,55.71"/>
	<path class="st3" d="M142.12,123.55c0,0-26.15-7.9-27.07-7.01C114.14,117.43,139.03,118.73,142.12,123.55z"/>
</g>
</svg>
