<?xml version="1.0" encoding="utf-8"?>
<!-- Generator: Adobe Illustrator 24.1.2, SVG Export Plug-In . SVG Version: 6.00 Build 0)  -->
<svg version="1.1" id="Слой_1" xmlns="http://www.w3.org/2000/svg" xmlns:xlink="http://www.w3.org/1999/xlink" x="0px" y="0px"
	 viewBox="0 0 165.71 296.89" style="enable-background:new 0 0 165.71 296.89;" xml:space="preserve">
<style type="text/css">
	.st0{fill:#FFFFFF;stroke:#020304;stroke-width:0.25;stroke-miterlimit:10;}
	.st1{fill:#EC6424;}
	.st2{fill:#F2F2F2;}
	.st3{fill:#121213;}
	.st4{fill:#47B69D;stroke:#141414;stroke-width:0.25;stroke-miterlimit:10;}
	.st5{fill:#FFCF02;stroke:#020304;stroke-width:0.25;stroke-miterlimit:10;}
	.st6{fill:#FFFFFF;}
	.st7{fill:#FEFEFE;}
</style>
<g>
	<path class="st0" d="M40.72,276.85c-1.55-1.48-3.31-2.73-4.69-4.39c-2.25-2.7-4.01-5.67-4.84-9.09c-0.25-1.04-0.76-1.97-0.94-3.02
		c-0.21-1.17-0.44-2.33-0.67-3.49c-0.23-1.14-0.5-2.28-0.7-3.43c-0.74-4.26-1.46-8.56-1.14-12.89c0.23-3.06,0.57-6.14,0.97-9.2
		c0.58-4.33,1.61-8.53,2.93-12.68c1.07-3.37,2.39-6.66,3.9-9.86c1.59-3.36,3.4-6.57,5.87-9.37c0.57-0.64,0.37-1.61,0.93-2.26
		c0.1-0.12,0.17-0.42,0.21-0.41c0.89,0.19,1-0.74,1.5-1c0.85-0.44,1.23-1.26,1.82-1.87c1.83-1.89,3.72-3.72,5.65-5.51
		c1.4-1.29,2.9-2.45,4.51-3.46c1.22-0.76,1.33-0.9,0.74-2.24c-1.57-3.57-2.8-7.27-3.96-10.99c-0.65-2.1-1.15-4.25-1.6-6.4
		c-0.35-1.7-0.29-1.65-1.93-1.21c-2.46,0.67-4.95,0.81-7.48,0.31c-0.99-0.2-1.94-0.44-2.82-0.93c-1.7-0.94-2.48-3.43-1.78-5.28
		c0.65-1.73,1.12-3.53,1.77-5.26c0.61-1.61,1.3-3.2,2.05-4.75c1.15-2.4,2.25-4.84,3.66-7.11c0.82-1.33,1.36-2.87,2.27-4.08
		c0.98-1.31,0.77-2.65,0.87-3.99c0.27-3.77,0.47-7.54,1.52-11.2c0.17-0.59,0.83-1.16,0.55-1.74s-1.15-0.4-1.7-0.69
		c-1.31-0.68-2.61-2.47-2.22-4.64c0.23-1.28,0.43-2.62,1.63-3.51c0.41-0.3,0.41-0.74,0.06-1.29c-2.43-3.84-5.08-7.55-6.98-11.69
		c-1.05-2.28-1.66-4.68-1.7-7.25c-0.03-2.29-0.33-4.57-0.32-6.87c0-0.95,0.26-1.85,0.32-2.78c0.24-3.51,1.48-6.73,2.74-9.97
		c1.28-3.27,3.13-6.18,5.22-8.95c2.24-2.97,5.1-5.28,8.07-7.49c1.81-1.34,3.73-2.5,5.66-3.6c2.36-1.34,4.85-2.46,7.43-3.39
		c3.17-1.15,6.44-1.92,9.63-2.98c4.39-1.45,8.93-1.77,13.47-2.15c0.13-0.01,0.28-0.02,0.4,0.02c1.69,0.56,2.71-0.16,3.72-1.54
		c1.71-2.34,3.64-4.51,5.5-6.74c0.29-0.35,0.28-0.58,0.14-1.04c-0.73-2.46,0.08-4.48,2.37-5.51c1.4-0.63,4.1,0.84,4.52,2.41
		c0.4,1.5,0.63,3.03,0.04,4.53c-0.26,0.66-0.87,1.09-1.4,1.53c-0.34,0.29-0.47,0.55-0.52,0.99c-0.26,2.37-0.54,4.73-0.88,7.09
		c-0.1,0.69,0.1,0.99,0.7,1.3c1.89,0.99,3.87,1.82,5.57,3.15c2.54,1.99,4.2,4.72,5.66,7.48c2.89,5.44,5.26,11.13,7.32,16.94
		c0.81,2.28,1.33,4.68,1.45,7.13c0.02,0.5,0.14,0.73,0.79,0.67c1.34-0.14,2.23,0.51,3.13,1.6c1.56,1.9,2.05,4.15,2.61,6.37
		c0.31,1.24,0.53,2.57,0.52,3.9c-0.01,0.67,0.06,1.36,0.22,2.01c0.14,0.59,0.82,0.72,1.27,0.84c2.65,0.72,4.12,2.48,4.78,5.07
		c0.39,1.55,0.95,3.05,1.31,4.6c0.3,1.31,0.46,2.66,0.6,4c0.14,1.37,0.76,2.63,0.86,4.01c0.17,2.39,1.08,4.63,1.4,7
		c0.56,4.18,1.28,8.34,1.82,12.53c0.28,2.13,0.5,4.27,0.57,6.44c0.1,3.28-0.13,6.5-0.45,9.75c-0.22,2.17-0.56,4.32-1.34,6.35
		c-0.91,2.38-2.62,4.24-4.45,5.95c-1.19,1.1-2.19,2.45-3.78,3.06c-0.3,0.11-0.37,0.33-0.34,0.64c0.36,3.32-0.03,6.64-0.14,9.96
		c-0.1,3.24-0.49,6.47-0.69,9.71c-0.14,2.32-0.65,4.57-0.94,6.87c-0.23,1.79-0.99,3.43-1.32,5.2c-0.35,1.86-0.83,3.69-1.25,5.54
		c-0.86,3.78-2.02,7.43-4.21,10.69c-1.2,1.8-3.01,1.91-4.93,0.36c-4.25-3.43-7.14-7.95-10.19-12.36c-0.66-0.96-1.2-2.01-1.77-3.03
		c-0.28-0.49-0.41-0.61-1.09-0.32c-2.58,1.09-5.07,2.42-7.79,3.2c-0.26,0.07-0.49,0.23-0.75,0.29c-0.87,0.17-1.02,0.68-1.13,1.54
		c-0.63,5.23-1.15,10.49-3.98,15.15c-0.74,1.21-1.53,2.35-2.71,3.18c-2.07,1.45-4.04,0.68-5.91-0.39c-3.53-2.03-6.89-4.34-9.97-6.99
		c-2.61-2.25-4.79-4.92-6.82-7.73c-1.68-2.33-3.39-4.64-4.91-7.08c-0.55-0.88-1.1-1.77-1.5-2.73c-0.4-0.96-0.9-0.86-1.59-0.41
		c-1.76,1.16-3.38,2.48-4.87,3.97c-2.55,2.55-4.9,5.29-6.76,8.39c-1.01,1.68-1.87,3.44-2.31,5.39c-0.3,1.33-0.91,2.6-1.11,3.94
		c-0.23,1.57-0.82,3.06-0.79,4.69c0.03,1.77,0.03,3.56-0.21,5.3c-0.27,1.95-0.04,3.86,0.08,5.77c0.22,3.34,0.47,6.69,0.9,10.01
		c0.23,1.76,0.48,3.52,0.91,5.26c0.53,2.2,0.87,4.44,1.62,6.58c0.77,2.19,1.85,4.21,2.94,6.25c1,1.87,1.88,3.8,2.63,5.8
		c0.07,0.19,0.15,0.37,0.23,0.55c1.91,3.84,2,7.07,0.28,11.1c-0.04,0.08-0.01,0.19-0.02,0.29c-0.53-0.09-1.06-0.17-1.59-0.26
		c0.21-0.62,0.81-1.06,0.86-1.82c-1.18,0.32-2.07,1.21-3.25,1.43c-0.93-0.15-1.86-0.3-2.79-0.46c-0.1-0.36,0.16-0.33,0.38-0.35
		c0.68-0.05,1.44,0,1.99-0.41c1.24-0.92,2.47-1.84,3.8-2.64c0.11-0.06,0.19-0.32,0.15-0.45c-0.17-0.6,0.12-1.26-0.28-1.84
		c-0.32,0.15-0.56,0.31-0.76,0.67c-0.81,1.43-1.98,2.56-3.32,3.5c-1.07,0.74-2.41,0.71-3.55,1.25
		C44.83,277.52,42.77,277.18,40.72,276.85z M103.09,94.36c-0.09,0.03-0.18,0.07-0.27,0.1c-0.37-0.11-0.73-0.09-1.07,0.09
		c-0.15-0.07-0.27-0.07-0.35,0.09c-0.21,0-0.42,0-0.62,0.01c-0.05,0.03-0.1,0.06-0.15,0.09c-0.09,0-0.18,0.01-0.26,0.01
		c-0.74-0.27-1.41,0.01-2.09,0.25c-0.14-0.01-0.27-0.02-0.41-0.04c-0.09,0.02-0.17,0.04-0.26,0.07c-0.19-0.06-0.39-0.09-0.58,0.02
		c-0.06,0.03-0.11,0.06-0.17,0.09c-0.08,0-0.16,0-0.24,0c-1.38,0.01-2.69,0.42-4.02,0.74c-0.31-0.14-0.55,0.15-0.84,0.15
		c-0.06,0.03-0.12,0.05-0.18,0.08c-0.08,0.02-0.16,0.03-0.25,0.05c-0.07,0.02-0.14,0.05-0.21,0.07c-0.14,0.01-0.27,0.02-0.41,0.03
		c-0.15-0.06-0.29-0.14-0.42,0.03c-0.14,0.04-0.29,0.08-0.43,0.12c-0.27,0.03-0.54,0.07-0.81,0.1h-0.01
		c-0.84,0.03-1.62,0.27-2.36,0.66c-0.16-0.05-0.33-0.12-0.45,0.08c-0.26,0.19-0.63-0.01-0.86,0.27c-0.3-0.18-0.06-0.4-0.05-0.6
		c0.42-0.2,0.82-0.46,1.26-0.6c3.94-1.25,8.02-1.78,12.12-2.13c2.25-0.19,4.5-0.4,6.74-0.59c0.46-0.04,0.59-0.22,0.4-0.65
		c-0.41-0.95-0.82-1.9-1.19-2.87c-0.1-0.27-0.25-0.26-0.45-0.23c-0.49,0.07-1,0.09-1.47,0.22c-2.31,0.64-4.67,1.11-6.98,1.79
		c-2.53,0.75-4.88,1.89-7.33,2.79c-1.25,0.46-2.43,1.15-3.79,1.29c-0.65-0.21-0.4-0.51-0.02-0.7c0.61-0.31,1.29-0.51,1.9-0.83
		c2.45-1.28,5.08-2.11,7.66-3.05c2.99-1.08,6.16-1.54,9.24-2.27c0.63-0.15,0.76-0.34,0.45-0.84c-0.59-0.97-1.1-2.01-1.35-3.09
		c-0.31-1.35-0.99-2.56-1.03-4.02c-0.06-1.82-0.16-3.66-0.49-5.48c-0.39-2.15-1.18-4.15-1.85-6.21c-0.15-0.47-0.18-1-0.76-1.37
		c-0.81,1.18-1.53,2.41-1.81,3.83c-0.29,1.44-0.8,2.82-1.12,4.25c-0.11,0.49-0.56,0.66-0.88,0.68c-0.38,0.02-0.26-0.46-0.28-0.73
		c-0.02-0.3-0.16-0.55-0.17-0.87c-0.06-2.01,0.68-3.86,1.07-5.78c0.18-0.9,0.46-1.78,0.81-2.66c-0.23,0.05-0.35,0.15-0.47,0.26
		s-0.22,0.25-0.35,0.35c-2.74,2.21-5.25,4.63-7.18,7.62c-0.44,0.68-1.07,1.38-2.01,1.53c-1.11,0.18-2.23,0.32-3.33,0.52
		c-3.21,0.59-6.42,1.23-9.61,1.95c-2.08,0.47-4.2,0.75-6.32,0.98c-0.41,0.05-0.69-0.09-0.97-0.37c-1.29-1.25-2.55-2.54-3.91-3.7
		c-0.93-0.79-1.7-1.75-2.77-2.37c-0.19-0.11-0.45-0.4-0.54-0.05c-0.12,0.44-0.44,0.93-0.02,1.4c1.93,2.16,2.31,4.97,3.11,7.6
		c0.07,0.24-0.14,0.1-0.23,0.09c-0.08-0.01-0.15-0.03-0.23-0.04c0.01,0.07,0.03,0.14,0.04,0.21c-0.06,0.22-0.19,0.45-0.17,0.66
		c0.04,0.36-0.06,0.66-0.39,0.7c-0.4,0.04-0.63-0.37-0.62-0.66c0.03-0.77-0.42-1.39-0.57-2.1c-0.25-1.28-0.82-2.44-1.68-3.67
		c-0.01,1.34-0.14,2.5-0.01,3.63c0.18,1.6,0.65,3.16,0.61,4.79c0,0.2,0.03,0.38-0.11,0.55c-1,1.29-1.01,2.87-1.29,4.38
		c-0.3,1.61,0.14,3.2-0.07,4.79c-0.18,1.34-0.16,1.36,1.17,1.39c2.7,0.06,5.41,0.12,8.09,0.49c0.59,0.08,1.14,0.19,1.82,0.71
		c-0.93-0.03-1.61-0.04-2.3-0.08c-2.75-0.16-5.49-0.32-8.24-0.5c-0.38-0.02-0.57,0.06-0.59,0.46c-0.02,0.33-0.06,0.67-0.11,1
		c-0.08,0.57,0.18,0.86,0.74,0.73c0.44-0.11,0.88,0.02,1.29-0.08c2.6-0.58,5.24-0.52,7.88-0.53c0.61,0,1.15,0.13,1.62,0.7
		c-2.02,0.12-3.94,0.23-5.86,0.34c-1.57,0.09-3.14,0.18-4.71,0.26c-1.04,0.05-0.87,0.87-0.79,1.43c0.1,0.64,0.65,0.25,1.02,0.18
		c3.14-0.53,6.28-1.07,9.48-1.17c0.4-0.01,0.7,0.02,0.74,0.45c0.04,0.52-0.41,0.34-0.65,0.35c-1.6,0.11-3.15,0.49-4.76,0.58
		c-1.63,0.09-3.28,0.4-4.92,0.58c-0.96,0.11-1.15,0.54-0.96,1.27c0.23,0.85,0.31,1.7,0.3,2.57c-0.02,1.63,0.64,3.26,0.01,4.89
		c-0.22,0.56,0.22,0.43,0.47,0.46c1.73,0.23,3.46,0.38,5.19,0.48c3.54,0.2,7.07,0.43,10.62,0.23c3.52-0.2,7.03-0.44,10.55-0.53
		c3.43-0.09,6.82-0.83,10.16-1.58c5.17-1.17,10.35-2.38,15.35-4.19c1.32-0.48,1.32-0.48,0.45-1.56c-0.08-0.1-0.19-0.21-0.22-0.34
		c-0.49-1.84-1.56-3.48-1.77-5.41c-0.15-1.37-0.44-1.61-1.8-1.62c-2.19-0.02-4.38-0.03-6.57-0.02c-3.86,0.02-14.38-0.82-14.24-0.91
		l2.09-0.85c0.18-0.07,1.36,2.05,1.62,1.87c0.13,0,0.26-0.01,0.4-0.01c0.1,0.05,0.19,0.04,0.23-0.08H89.7
		c0.22,0.01,0.46,0.13,0.64-0.11c0.13,0,0.26,0,0.39,0c0.08-0.03,0.16-0.05,0.25-0.08h-0.01c0.5,0.07,1,0.13,1.44-0.21
		c0.22,0.01,0.44,0.03,0.67,0.04c0.15,0.1,0.28,0.08,0.4-0.04l0.09,0.03l0.08-0.05c0.16,0.05,0.31,0.06,0.43-0.09
		c0.42,0.13,0.82,0,1.23-0.06c0.3,0.17,0.57,0.03,0.85-0.06c0.08,0,0.16,0,0.24-0.01c0.14,0.1,0.28,0.08,0.39-0.05
		c0.33,0.02,0.66,0.04,0.98,0.06c0.08-0.02,0.15-0.05,0.23-0.07c0.2,0,0.4,0,0.6,0c0.2-0.01,0.41-0.02,0.61-0.03
		c0.2,0.02,0.4,0.04,0.6,0.06c0.44-0.05,0.89,0.08,1.31-0.14c0.21,0.01,0.42,0.02,0.64,0.03c0.25,0.14,0.51,0.15,0.76,0.01
		c0.32,0.03,0.65,0.07,0.97,0.1c0.41,0,0.82,0,1.23-0.01c0.41,0,0.81,0,1.22,0c0.07,0,0.15-0.01,0.22-0.01
		c0.09-0.05,0.17-0.1,0.26-0.14l0.03,0.05h0.09c0.21,0.01,0.49,0.2,0.61-0.04c0.13-0.25-0.12-0.47-0.26-0.68
		c0.03-0.07,0.03-0.13-0.02-0.19c-0.12-0.4-0.29-0.8-0.35-1.21c-0.12-0.93-0.57-1.15-1.38-0.73c-0.14,0-0.28,0.01-0.42,0.01
		c-0.15-0.09-0.27-0.07-0.38,0.06c-0.26-0.01-0.53-0.03-0.79-0.04c-0.15-0.07-0.27-0.04-0.36,0.09
		C103.13,94.34,103.09,94.36,103.09,94.36z M91.11,201.09c-0.86-0.14-1.73-0.27-2.59-0.43c-0.56-0.11-0.93-0.45-0.83-1.05
		c0.16-0.98,0.74-1.52,1.4-1.26c0.67,0.26,1.36,0.31,2.04,0.43c2.5,0.43,5.04,0.83,7.55,0.37c3.22-0.59,6.2-1.98,9.22-3.21
		c0.42-0.17,0.48-0.37,0.24-0.84c-0.7-1.36-1.31-2.78-1.92-4.18c-0.32-0.74-0.45-1.53-0.48-2.34c-0.02-0.47,0.37-0.5,0.62-0.67
		c0.15-0.1,0.32,0.01,0.36,0.21c0.17,0.81,0.75,1.42,1.04,2.16c1,2.51,2.43,4.8,3.8,7.11c0.1,0.16,0.13,0.47,0.49,0.36
		c1.52-0.47,3.12-0.54,4.63-1.14c2.05-0.82,4.19-1.41,6.25-2.2c2.95-1.13,6.05-1.95,8.5-4.15c0.4-0.36,0.59-0.67,0.66-1.13
		c0.61-3.78,0.73-7.59,0.98-11.4c0.18-2.79,0.38-5.59,0.4-8.39c0.03-5.97-0.57-11.9-1.1-17.84c-0.36-4.05-0.85-8.08-1.66-12.05
		c-0.7-3.43-1.45-6.86-2.57-10.19c-1.02-3.03-1.94-6.09-2.8-9.18c-0.85-3.07-2.07-6.02-3.84-8.7c-0.37-0.56-0.77-0.87-1.48-0.4
		c-2.98,1.95-6.35,2.99-9.7,4.06c-3.26,1.04-6.42,2.41-9.8,3.11c-3.48,0.72-6.95,1.5-10.5,1.83c-3.15,0.29-6.3,0.49-9.45,0.74
		c-3.32,0.26-6.65,0.17-9.98,0.23c-2.96,0.05-5.91-0.09-8.87,0.13c-0.59,0.04-1.19,0.11-1.78,0.05c-2.7-0.26-5.39-0.56-8.09-0.85
		c-0.37-0.04-0.66,0-0.76,0.44c-0.16,0.72-0.42,1.42-0.52,2.14c-0.34,2.45-0.64,4.9-0.82,7.37c-0.28,3.83,0.04,7.65,0.04,11.48
		c0,2.59,0.42,5.17,0.7,7.74c0.24,2.19,0.44,4.41,0.79,6.56c0.46,2.91,1.14,5.8,1.83,8.68c0.74,3.1,1.49,6.19,2.58,9.2
		c0.92,2.52,2,4.98,2.68,7.58c0.09,0.34,0.06,0.68,0.26,1.03c1.3,2.2,2.12,4.63,3.38,6.87c1.03,1.83,1.95,3.74,2.9,5.62
		c0.88,1.73,2.03,3.35,3.16,4.97c1.65,2.36,3.29,4.72,5.15,6.92c0.26,0.3,0.5,0.67,0.97,0.63c1.08-0.1,2.13,0.24,3.21,0.24
		c3.21-0.01,6.41-0.18,9.61-0.31c3.18-0.13,6.24-0.83,9.27-1.75c0.38-0.12,0.68-0.21,0.71-0.69c0.07-0.97,0.18-1.93,0.28-2.9
		c0.04-0.41-0.02-0.56-0.53-0.54C94.87,201.64,92.98,201.46,91.11,201.09z M47.16,64.86c3.36-0.38,6.37-1.27,9.45-1.8
		c5.94-1.03,11.88-2.06,17.83-3.07c4.07-0.7,8.2-1.07,12.28-1.74c5.72-0.94,11.55-0.87,17.25-2.03c1.3-0.26,2.71-0.15,4.06-0.34
		c1.49-0.22,2.12,0.21,2.43,1.71c0.11,0.56,0.17,1.13,0.19,1.69c0.2,5,0.57,9.99,1.38,14.93c0.88,5.37,1.73,10.75,2.45,16.15
		c0.56,4.23,0.68,8.49,1.26,12.72c0.09,0.65,0.25,0.7,0.71,0.4c0.85-0.55,1.75-0.99,2.69-1.34c0.25-0.09,0.4-0.22,0.52-0.42
		c0.61-0.99,1.29-1.95,1.71-3.04c1.91-5,2.78-10.19,2.69-15.55c-0.05-3.06-0.74-6-1.65-8.91c-0.72-2.3-1.83-4.44-2.71-6.67
		c-1.29-3.31-2.74-6.56-4.49-9.65c-1.84-3.26-3.95-6.32-7.42-8.11c-1.01-0.52-2.07-0.96-3.04-1.52c-2.44-1.39-5.05-2.22-7.77-2.75
		c-3.12-0.61-6.28-0.78-9.45-0.48c-2.21,0.21-4.43,0.42-6.61,0.99c-1.81,0.47-3.59,1.04-5.4,1.47c-3.09,0.74-6.09,1.75-9.01,2.98
		c-2.61,1.1-5.02,2.57-7.45,4.03C54.54,57.21,50.58,60.55,47.16,64.86z M53.42,118.49c0.17,0.01,0.27,0.02,0.37,0.03
		c3.74,0.29,7.46,0.62,11.23,0.49c3.36-0.11,6.72,0.12,10.09,0.11c4.21-0.02,8.39-0.52,12.58-0.77c5.2-0.31,10.24-1.44,15.27-2.64
		c2.68-0.64,5.15-1.85,7.74-2.73c3.12-1.06,6.27-2,9.03-3.96c1.86-1.32,2.99-3.52,2.45-5.72c-0.07-0.27-0.19-0.67-0.38-0.73
		c-0.28-0.09-0.47,0.24-0.65,0.5c-0.14,0.2-0.42,0.31-0.66,0.43c-0.9,0.42-1.83,0.78-2.71,1.24c-4.26,2.21-8.55,4.33-13.25,5.47
		c-4.25,1.04-8.45,2.23-12.78,2.94c-2.73,0.45-5.44,1.05-8.19,1.24c-3.57,0.25-7.17,0.22-10.74,0.46c-3.37,0.22-6.71,0-10.06-0.16
		c-2.21-0.11-4.41-0.42-6.61-0.6c-2.39-0.2-4.77-0.31-7.04-1.17c-0.17-0.07-0.38-0.16-0.55,0.03c-0.85,0.93-0.5,3.45,0.57,4.19
		C50.44,118.06,52.06,117.98,53.42,118.49z M31.01,249.21c-0.81-0.12-0.87-0.07-0.65,0.64c0.14,0.44,0.26,0.89,0.58,1.26
		c1.83,2.12,3.8,3.99,6.74,4.48c1.9,0.32,3.61,0.29,5.2-1.07c0.92-0.79,1.55-1.85,2.53-2.51c0.58-0.39,0.59-0.79,0.49-1.32
		c-0.07-0.36-0.21-0.7-0.26-1.06c-0.08-0.56-0.34-0.62-0.73-0.3c-0.95,0.76-2.12,1.17-3.22,1.43c-2.68,0.64-5.4,0.46-8.08-0.35
		C32.67,250.13,31.89,249.58,31.01,249.21z M31.09,228.53c-0.32,1.41-0.31,1.4,0.35,2.47c1.08,1.75,2.31,3.39,4.02,4.56
		c1.72,1.17,3.47,2.4,5.7,2.33c0.91-0.03,1.77-0.2,2.38-1.07c0.81-1.14,0.41-2.68-0.97-2.95c-1.26-0.24-2.51-0.53-3.76-0.79
		c-1.93-0.4-3.58-1.28-5.22-2.27C32.66,230.24,31.94,229.42,31.09,228.53z M131.62,192.28c-5.77,3.98-12.38,5.26-18.63,7.45
		c0.66,1.53,0.84,1.62,2.58,1.25c0.65-0.14,1.32-0.17,1.97-0.33c3.96-0.93,7.87-1.99,11.42-4.06c0.63-0.37,1.53-0.59,1.82-1.14
		C131.25,194.56,131.33,193.45,131.62,192.28z M30.01,237.72c-0.39,1.25-0.65,2.24,0.27,3.21c0.95,1.01,2.06,1.77,3.16,2.58
		c1.96,1.46,4.08,2.2,6.5,2c2.09-0.17,3.34-1.55,4.41-3.17c0.14-0.22,0.19-0.45,0.04-0.66c-0.18-0.25-0.4-0.06-0.62,0.01
		c-0.38,0.12-0.77,0.17-1.16,0.28c-2.37,0.64-4.75,0.41-7.02-0.31C33.44,240.98,31.49,239.8,30.01,237.72z M35.55,267.81
		c0.17,0.92,0.85,0.95,1.41,1.19c1.52,0.66,2.93,1.57,4.57,1.97c1.01,0.25,2.03,0.51,3.05,0.12c2.68-1.01,4.67-2.79,6.03-5.34
		c0.51-0.95,0.57-1.73-0.05-2.59c-0.2-0.28-0.37-0.59-0.59-0.95c-0.37,0.62-0.78,1.12-1.01,1.7c-1.23,3.12-4.87,5.14-8.08,4.47
		C39.15,268.03,37.35,268.26,35.55,267.81z M75.44,209.39c0.64,0.9,1.1,1.64,2.05,1.74c1.13,0.12,2.24,0.35,3.39,0.39
		c4.77,0.16,9.47-0.19,14.08-1.44c0.5-0.14,1.23,0.13,1.49-0.51c0.21-0.52,0.2-1.12,0.31-1.68c0.1-0.53-0.18-0.62-0.57-0.43
		c-2.19,1.07-4.57,1.34-6.93,1.75c-3.06,0.53-6.14,0.26-9.21,0.46C78.61,209.76,77.14,209.71,75.44,209.39z M45.33,247.72
		c-0.25-1.09-0.2-2.15-0.71-3.14c-1.15,1.4-2.41,2.31-4.17,2.59c-2.71,0.44-5.21-0.05-7.43-1.57c-1.1-0.76-2.36-1.33-3.33-2.38
		c0.25,0.97-0.32,2.02,0.44,2.89c0.82,0.94,1.85,1.59,2.96,2.14c2.02,1.01,4.17,1.42,6.41,1.24c1.22-0.1,2.42-0.29,3.51-1.03
		C43.65,248.03,44.35,247.45,45.33,247.72z M47.31,256.51c-1.91,2.12-4.28,3.4-7.11,3.9c-2.89,0.51-5.54-0.4-8.41-1.48
		c0.44,1.11,1.2,1.63,1.83,2.17c1.84,1.55,4.15,2,6.44,2.07c1.26,0.04,2.69-0.13,3.81-0.96c1.62-1.21,2.64-2.89,3.48-4.68
		C47.49,257.21,47.75,256.88,47.31,256.51z M32.33,222.56c-0.16,0.51-0.4,0.94-0.42,1.38c-0.07,1.04-0.93,2.1,0.01,3.13
		c0.74,0.81,1.38,1.72,2.4,2.24c2.78,1.41,5.73,2.2,8.81,2.58c0.34,0.04,0.52-0.02,0.51-0.38c-0.03-0.81,0.15-1.64-0.17-2.57
		c-0.53,0.67-1.14,1.38-1.87,1.2c-1.41-0.36-2.83-0.87-3.9-1.91c-1.36-1.32-2.81-2.54-4.08-3.97
		C33.16,223.74,33.01,222.99,32.33,222.56z M30.5,232.36c-0.29,1.24-0.33,2.22-0.39,3.2c-0.01,0.11-0.07,0.28,0.14,0.3
		c0.8,0.08,0.99,0.83,1.43,1.31c0.96,1.06,2.03,1.95,3.31,2.65c1.37,0.76,2.86,0.77,4.3,1.07c1.39,0.29,2.62-0.19,3.83-0.68
		c1.28-0.52,1.37-0.93,0.71-2.22c-0.72,0.88-1.53,1.7-2.72,1.7c-3.06,0.01-5.35-1.7-7.58-3.51C32.3,235.19,31.37,233.95,30.5,232.36
		z M33.27,263.48c0.85,1.98,0.85,1.98,2.94,2.42c0.07,0.01,0.13,0.02,0.2,0.04c2.69,0.65,5.39,0.76,8.12,0.3
		c1.25-0.21,2.39-1.5,2.79-2.68c0.28-0.83,0.22-1.94,1.12-2.45c0.92-0.53,0.56-1.09,0.21-1.69c-0.09-0.15-0.03-0.42-0.3-0.45
		C45.32,265.8,40.07,266.25,33.27,263.48z M33.43,218.59c-0.39,0.83-0.27,1.32,0.03,1.86c0.82,1.51,1.87,2.85,3.09,4.04
		c1.36,1.32,2.67,2.71,4.49,3.45c0.58,0.24,2.49-0.05,2.61-0.54c0.14-0.57,0.47-1.3-0.29-1.77c-0.78-0.48-1.53-1.01-2.39-1.39
		c-0.94-0.41-1.94-0.64-2.84-1.19C36.29,221.94,34.54,220.77,33.43,218.59z M44.1,221.05c-0.23,0.63-0.69,0.44-1.09,0.33
		c-1.75-0.5-3.17-1.55-4.41-2.84c-1.3-1.35-2.61-2.71-3.71-4.38c-0.29,0.91-0.54,1.66-0.78,2.43c-0.07,0.21-0.26,0.55-0.05,0.65
		c1.02,0.5,1.4,1.58,2.18,2.3c2.06,1.92,4.56,3.09,7.04,4.3c0.35,0.17,0.61,0.2,0.64-0.24C43.99,222.77,44.3,221.97,44.1,221.05z
		 M130.08,197.92c-1.17,0.72-2.27,1.26-3.37,1.79c-2.7,1.31-5.59,2.03-8.48,2.73c-0.74,0.18-1.5,0.26-2.25,0.41
		c-0.25,0.05-0.57,0.05-0.48,0.47c0.2,0.93,1.69,1.72,2.56,1.27c1.41-0.74,2.94-1.05,4.45-1.48c1.9-0.54,3.82-1.03,5.44-2.25
		c0.19-0.14,0.4-0.33,0.63-0.25c1.1,0.39,1.14-0.39,1.25-1.1C129.89,199.02,129.98,198.53,130.08,197.92z M50.05,160.28
		c-0.17-1.01-0.36-2.02-0.5-3.03c-0.13-0.99-0.01-1.74-1.58-1.96c-2.12-0.3-4.11-1.42-5.69-2.99c-0.56-0.55-0.75-0.29-0.98,0.2
		c-0.15,0.33-0.27,0.68-0.4,1.03c-0.1,0.27-0.15,0.47,0.2,0.64c1.64,0.84,3.08,1.99,4.55,3.07
		C47.06,158.29,48.87,158.81,50.05,160.28z M129.18,202.29c-1.79,1.4-3.84,1.5-5.61,2.27c-1.84,0.8-3.68,1.57-5.78,1.45
		c0.66,1.77,1.21,2.08,2.78,1.59c0.91-0.29,1.87-0.25,2.79-0.54c0.91-0.28,1.9-0.38,2.82-0.67c0.82-0.26,1.87-0.31,2.26-1.24
		C128.8,204.3,128.92,203.36,129.18,202.29z M80,213.43c0.82,0.5,1.27,1.55,2.31,1.53c3.89-0.08,7.79-0.08,11.64-0.84
		c1.41-0.28,1.86-0.79,1.83-2.34C90.63,213.29,85.38,213.94,80,213.43z M47.66,138.86c-0.03,0.01-0.08,0.01-0.09,0.03
		c-1.41,2.22-2.5,4.61-3.56,7c-0.16,0.35,0.01,0.69,0.35,0.65c0.83-0.1,1.25,0.54,1.8,0.91c0.71,0.47,1.36,1.03,2.15,1.43
		C48.39,147.93,47.83,139.37,47.66,138.86z M36.64,210.47c-0.88,1.27-0.8,2.19,0.51,3.72c1.68,1.95,3.46,3.83,5.8,5
		c0.51,0.25,0.88,1.03,1.39,0.83c0.49-0.19,0.19-1.04,0.53-1.54c0.26-0.38,0.21-0.71-0.36-0.9c-0.98-0.33-1.84-0.86-2.65-1.53
		c-0.56-0.47-1.07-1-1.66-1.44C38.73,213.52,37.43,212.28,36.64,210.47z M31.22,254.6c-0.05,1.4,0.44,2.22,1.67,2.82
		c2.01,0.98,4.11,1.53,6.28,1.42c2.91-0.14,5.33-1.43,7.09-3.87c0.5-0.7,0.38-1.15-0.05-1.75C42.08,258.57,37.68,259.62,31.22,254.6
		z M57.59,184.96c-0.83,0.51-1.16,1.18-1.13,2c0.12,3,1.43,5.39,3.74,7.25c0.58,0.47,0.87-0.23,1.3-0.36
		c0.42-0.13,0.14-0.42,0.03-0.64C60.21,190.48,58.63,187.89,57.59,184.96z M43.35,147.68c-0.21,0.53-0.35,1.05-0.61,1.5
		c-0.44,0.79-0.25,1.26,0.48,1.81c1.74,1.35,3.74,2.15,5.75,3.03c0.24-0.94-0.28-1.79-0.22-2.68c0.01-0.16-0.15-0.27-0.34-0.29
		c-0.8-0.11-1.33-0.7-1.96-1.13C45.39,149.22,44.51,148.28,43.35,147.68z M50.75,204.4c0.23-0.3,0.43-0.56,0.65-0.81
		c0.1-0.11,0.12-0.34,0.07-0.33c-0.89,0.2-0.31-0.28-0.27-0.53c0.04-0.22-0.06-0.4-0.29-0.46c-0.49-0.14-0.74-0.57-1.02-0.93
		c-1.44-1.92-2.84-3.86-3.24-6.37c-0.89,0.75-1.29,1.57-1.08,2.73c0.38,2.1,1.6,3.65,3.11,5.01
		C49.33,203.28,50.01,203.8,50.75,204.4z M52.94,201.86c0.14-0.64,0.65-0.85,1.05-1.19c0.45-0.38,0.82-0.75-0.01-1.25
		c-0.88-0.53-1.61-1.28-2.27-2.08c-1.14-1.38-1.93-2.96-2.95-4.74C48.06,196.77,50.78,199.11,52.94,201.86z M43.86,198.22
		c-0.24,1.31-0.11,2.7,0.37,3.86c0.87,2.1,2.44,3.77,4.16,5.27c0.15,0.13,0.37,0.29,0.52,0.07c0.39-0.57,0.74-1.17,1.09-1.78
		c0.11-0.19-0.06-0.35-0.21-0.38c-0.97-0.23-1.49-1.06-2.22-1.61C45.75,202.28,44.48,200.5,43.86,198.22z M46.87,211.64
		c0.13-0.22,0.09-0.54-0.21-0.6c-1.08-0.2-1.71-1.03-2.42-1.7c-1.52-1.46-3.37-2.67-4.04-4.84c-0.06-0.19-0.18-0.38-0.44-0.28
		c-0.26,0.11-0.31,0.38-0.27,0.6c0.13,0.65,0.25,1.31,0.61,1.88c1.34,2.1,3.04,3.89,4.8,5.61
		C46.15,213.53,46.37,213.41,46.87,211.64z M38.17,207.1c-0.92,0.97-0.81,1.18-0.18,2.49c0.87,1.79,2.24,3.04,3.8,4.15
		c1,0.71,2.04,1.38,3.08,2.05c0.18,0.11,0.53,0.29,0.64,0.07c0.17-0.34,0.2-0.76,0.25-1.15c0.02-0.17-0.18-0.22-0.29-0.16
		c-0.81,0.49-1.25-0.19-1.7-0.6C41.57,211.95,39.54,209.81,38.17,207.1z M53.71,188.63c0.04,0.32-0.04,0.63-0.02,0.97
		c0.17,2.62,1.52,4.61,3.36,6.32c0.21,0.2,0.27,0.9,0.86,0.48c0.33-0.23,0.65-0.48,0.93-0.76c0.18-0.18,0.03-0.32-0.14-0.47
		c-2.16-1.84-3.48-4.16-3.94-6.96c-0.04-0.23,0.03-0.64-0.33-0.62c-0.28,0.01-0.56,0.22-0.63,0.56
		C53.76,188.3,53.74,188.47,53.71,188.63z M52.04,189.79c-1.73,1-1.79,1.03-1.3,2.42c0.5,1.42,0.98,2.85,1.97,4.05
		c0.68,0.83,1.4,1.6,2.23,2.26c0.35,0.28,0.61,0.28,0.99-0.11c0.48-0.49,0.05-0.6-0.17-0.84C53.72,195.39,52.15,192.98,52.04,189.79
		z M39.01,272.05c0.88,1.54,1.71,1.95,3.22,1.68c0.3-0.05,0.59-0.1,0.89-0.14c1.88-0.22,3.7-0.56,5.38-1.53
		c1.67-0.96,2.73-2.52,4.06-3.81c0.47-0.45,0.14-1.31-0.24-1.69c-0.47-0.46-0.57,0.39-0.9,0.58c-0.18,0.11-0.32,0.34-0.42,0.54
		c-0.99,1.88-2.47,3.26-4.24,4.38C44.13,273.72,41.37,273.47,39.01,272.05z M104.27,34.01c0.86,0.17,2.34-0.42,2.44-0.97
		c0.22-1.21-1.05-3.27-2.09-3.41c-0.87-0.11-1.87,0.57-2.03,1.4C102.37,32.11,103.34,33.83,104.27,34.01z M48.18,162.29
		c-0.16-0.73-0.59-1.6-1.09-1.85c-2.22-1.13-4.02-2.84-6.12-4.1c-0.27-0.16-0.58-0.7-0.88-0.17c-0.2,0.35-0.49,0.86,0.19,1.23
		c0.67,0.36,1.24,0.89,1.87,1.32c1.51,1.02,3.05,1.99,4.52,3.07C47.15,162.14,47.52,162.59,48.18,162.29z M41.96,200.37
		c-0.23,0.5-0.34,0.77-0.48,1.01c-0.14,0.25-0.37,0.4-0.3,0.78c0.6,3.65,3.35,5.64,5.92,7.77c0.32,0.26,0.44,0.06,0.55-0.25
		c0.09-0.27,0.29-0.51-0.18-0.57c-0.37-0.04-0.6-0.3-0.83-0.52C44.33,206.39,42.49,203.91,41.96,200.37z M94.33,215.9
		c-3.35,0.31-6.66,0.54-10.02,0.6c0.77,0.42,1.38,1.47,2.23,1.29c2.3-0.49,4.65-0.6,6.95-1.05
		C93.93,216.65,94.17,216.37,94.33,215.9z M53.55,270.74c-1.71,0.95-2.43,2.86-4.24,3.35c-1.66,0.45-3.32,0.87-5.03,1.31
		C47.38,276.76,52.32,274.35,53.55,270.74z M120.44,209.07c1.11,1.76,1.42,1.83,3.24,1.02c1-0.44,2.02-0.83,3.06-1.14
		c0.68-0.2,0.8-0.62,0.82-1.28C125.33,209.03,122.86,208.69,120.44,209.07z M102.08,42.45c0.17,0.03,0.33,0.06,0.5,0.08
		c0.29,0.04,0.64,0.18,0.65-0.32c0-0.42,0.44-0.97-0.24-1.22c-1.1-0.4-2.13-0.93-3.18-1.43c-0.78-0.37-0.79,0.46-1.12,0.77
		c-0.38,0.36-0.06,0.68,0.22,0.8C99.97,41.58,100.88,42.36,102.08,42.45z M103.65,39.01c0.76-2.17,0.7-2.3-0.72-3.04
		c-0.53-0.28-0.73-0.19-1.02,0.26c-0.32,0.5-0.74,0.95-1.15,1.46C101.66,38.24,102.61,38.59,103.65,39.01z M44.2,162.6
		c-1.73-1.18-3.28-2.22-4.86-3.3C39.06,161.33,40.84,162.08,44.2,162.6z M126.7,210.41c-0.85,0.3-1.45,0.45-1.98,0.72
		c-0.39,0.2-1.17,0.17-1.09,0.63c0.1,0.63,0.91,0.48,1.42,0.63c0.3,0.09,0.4-0.09,0.53-0.3C125.87,211.61,126.2,211.15,126.7,210.41
		z M99.1,43.66c0.02-0.04,0.03-0.09,0.05-0.13c-0.38-0.23-0.76-0.45-1.13-0.69c-0.96-0.61-0.96-0.61-1.64,0.38
		C97.31,43.37,98.21,43.52,99.1,43.66z M91.84,218.67c-0.89,0.27-1.83,0.16-2.82,0.34C89.98,219.61,90.84,219.51,91.84,218.67z"/>
	<path class="st1" d="M46.89,277.86c1.14-0.54,2.48-0.51,3.55-1.25c1.35-0.94,2.51-2.07,3.32-3.5c0.2-0.36,0.44-0.51,0.76-0.67
		c0.4,0.58,0.11,1.24,0.28,1.84c0.04,0.13-0.05,0.38-0.15,0.45c-1.33,0.79-2.56,1.72-3.8,2.64c-0.55,0.41-1.31,0.36-1.99,0.41
		c-0.22,0.02-0.48-0.02-0.38,0.35C47.95,278.03,47.42,277.94,46.89,277.86z"/>
	<path class="st2" d="M51.27,278.57c1.18-0.22,2.07-1.11,3.25-1.43c-0.05,0.77-0.65,1.2-0.86,1.82
		C52.86,278.83,52.06,278.7,51.27,278.57z"/>
	<path class="st3" d="M124.23,32.2c-0.65-0.17-1.29-0.36-1.89-0.68c-1.26-0.68-2.19-0.35-2.6,1.02c-0.25,0.82-0.75,1.48-1.17,2.18
		c-0.49,0.83-1.18,0.66-1.85,0.06c-1.73-1.55-2.78-3.74-4.76-5.04c-0.18-0.12-0.36-0.31-0.22-0.49c0.26-0.35,0.59-0.69,1.08-0.6
		c0.46,0.08,0.91,0.28,1.23,0.62c0.65,0.69,1.51,1.08,2.25,1.64c0.5,0.38,0.82,0.27,1.18-0.15c0.6-0.67,1.23-1.31,1.83-1.99
		c0.28-0.32,0.52-0.35,0.93-0.17c1.49,0.64,2.99,1.3,4.54,1.77c0.88,0.27,1.16,1,1.03,1.52C125.72,32.33,124.83,32.36,124.23,32.2z"
		/>
	<path class="st3" d="M90.59,15.21c0.53,0.24,0.78,0.79,0.8,1.4c0.02,0.79,0.63,1.31,0.84,2.01c0.11,0.36,0.65,0.26,0.97,0.08
		c0.7-0.39,1.39-0.8,2.06-1.24c0.97-0.63,1.33-0.54,1.48,0.61c0.14,1.09,0.15,2.18,0.43,3.27c0.12,0.49-0.42,0.95-0.89,1.11
		c-0.52,0.18-0.52-0.36-0.62-0.69c-0.11-0.38-0.35-0.78-0.31-1.14c0.14-1.04-0.24-1.13-1-0.65c-0.55,0.35-1.18,0.57-1.63,1.09
		c-0.31,0.36-1.43,0.05-1.61-0.52c-0.41-1.3-0.86-2.57-1.48-3.8C89.35,16.2,90.04,15.12,90.59,15.21z"/>
	<path class="st4" d="M91.11,201.09c1.87,0.37,3.75,0.55,5.65,0.46c0.52-0.02,0.58,0.13,0.53,0.54c-0.1,0.97-0.21,1.93-0.28,2.9
		c-0.03,0.48-0.33,0.57-0.71,0.69c-3.03,0.93-6.08,1.62-9.27,1.75c-3.2,0.13-6.4,0.31-9.61,0.31c-1.08,0-2.12-0.33-3.21-0.24
		c-0.47,0.04-0.71-0.33-0.97-0.63c-1.86-2.2-3.5-4.56-5.15-6.92c-1.13-1.61-2.29-3.23-3.16-4.97c-0.95-1.88-1.87-3.79-2.9-5.62
		c-1.26-2.23-2.08-4.67-3.38-6.87c-0.21-0.35-0.18-0.7-0.26-1.03c-0.68-2.61-1.76-5.06-2.68-7.58c-1.09-3-1.84-6.1-2.58-9.2
		c-0.68-2.88-1.36-5.77-1.83-8.68c-0.34-2.16-0.55-4.37-0.79-6.56c-0.28-2.58-0.7-5.15-0.7-7.74c0-3.83-0.33-7.65-0.04-11.48
		c0.18-2.47,0.48-4.92,0.82-7.37c0.1-0.72,0.36-1.43,0.52-2.14c0.1-0.44,0.39-0.48,0.76-0.44c2.7,0.29,5.39,0.59,8.09,0.85
		c0.59,0.06,1.19-0.01,1.78-0.05c2.95-0.22,5.91-0.08,8.87-0.13c3.33-0.06,6.66,0.03,9.98-0.23c3.15-0.25,6.3-0.45,9.45-0.74
		c3.55-0.33,7.02-1.11,10.5-1.83c3.37-0.7,6.53-2.07,9.8-3.11c3.35-1.06,6.72-2.11,9.7-4.06c0.71-0.46,1.11-0.15,1.48,0.4
		c1.76,2.69,2.98,5.63,3.84,8.7c0.86,3.09,1.78,6.15,2.8,9.18c1.13,3.33,1.88,6.76,2.57,10.19c0.81,3.98,1.3,8,1.66,12.05
		c0.53,5.94,1.13,11.87,1.1,17.84c-0.01,2.8-0.21,5.6-0.4,8.39c-0.25,3.81-0.36,7.63-0.98,11.4c-0.08,0.47-0.27,0.78-0.66,1.13
		c-2.45,2.2-5.55,3.02-8.5,4.15c-2.06,0.79-4.2,1.38-6.25,2.2c-1.5,0.6-3.11,0.67-4.63,1.14c-0.36,0.11-0.4-0.2-0.49-0.36
		c-1.38-2.31-2.8-4.59-3.8-7.11c-0.3-0.74-0.87-1.35-1.04-2.16c-0.04-0.21-0.21-0.31-0.36-0.21c-0.25,0.16-0.64,0.2-0.62,0.67
		c0.03,0.81,0.16,1.6,0.48,2.34c0.61,1.41,1.22,2.82,1.92,4.18c0.24,0.47,0.18,0.67-0.24,0.84c-3.02,1.23-6,2.62-9.22,3.21
		c-2.51,0.46-5.05,0.06-7.55-0.37c-0.68-0.12-1.37-0.17-2.04-0.43c-0.67-0.26-1.24,0.29-1.4,1.26c-0.1,0.6,0.27,0.94,0.83,1.05
		C89.39,200.82,90.25,200.95,91.11,201.09z M72.78,158.9c2.08,0.33,4.14,0.2,6.24,0.02c3.28-0.28,6.49-0.96,9.74-1.46
		c3.15-0.49,5.42-2.23,6.88-5.04c0.19-0.37,0.71-0.69,0.54-1.14c-0.39-0.99-0.29-2.02-0.48-3.03c-0.49-2.61-0.91-5.24-1.4-7.86
		c-0.5-2.69-0.98-5.4-2.28-7.84c-0.82-1.53-0.92-1.94-2.97-1.73c-3,0.3-6.01,0.49-8.98,1.14c-2.64,0.58-5.25,1.17-7.85,1.96
		c-2.91,0.89-3.82,3.29-4.7,5.65c-0.86,2.31-0.06,4.73,0.17,7.1c0.23,2.34,0.71,4.69,0.64,7.02c-0.06,2.12,1.3,3.26,2.36,4.63
		C71.13,158.89,72.05,158.79,72.78,158.9z M120.7,147.26c0.11-1.33,0.28-2.95,0.38-4.58c0.17-2.67-0.08-5.34-0.32-7.99
		c-0.23-2.61-0.38-5.25-1.31-7.75c-0.16-0.44-0.36-0.89-0.87-0.74c-0.42,0.12-0.6,0.56-0.5,1.04c0.04,0.2,0.06,0.39,0.11,0.59
		c0.63,2.5,0.9,5.05,1.13,7.61c0.02,0.25-0.09,0.32-0.27,0.45c-3.52,2.63-7.63,3.6-11.86,4.31c-1.18,0.2-2.37,0.1-3.56,0.35
		c-1.27,0.28-2.36-0.09-3.16-1.31c-0.71-1.08-1.68-1.99-2.52-2.98c-0.28-0.34-0.43-0.88-1.04-0.36c-0.54,0.45-0.37,0.84-0.03,1.28
		c0.64,0.81,1.27,1.63,1.9,2.45c2.07,2.7,4.18,5.36,6.64,7.71c1.68,1.61,3.39,3.18,4.97,4.89c1.03,1.11,2.33,1.94,3.72,2.53
		c2.25,0.95,4.17-0.32,5.19-2.38C120.06,150.88,120.31,149.2,120.7,147.26z"/>
	<path class="st5" d="M92.59,95.89c2.19-0.01,10.95-1.53,13.14-1.51c1.36,0.01,2.04,3.73,2.2,5.1c0.22,1.93,1.28,3.58,1.77,5.41
		c0.03,0.12,0.14,0.23,0.22,0.34c0.87,1.07,0.87,1.08-0.45,1.56c-5,1.82-10.18,3.02-15.35,4.19c-3.33,0.76-6.73,1.49-10.16,1.58
		c-3.53,0.09-7.04,0.34-10.55,0.53c-3.55,0.2-7.08-0.03-10.62-0.23c-1.74-0.1-3.47-0.25-5.19-0.48c-0.25-0.03-0.69,0.1-0.47-0.46
		c0.63-1.63-0.03-3.26-0.01-4.89c0.01-0.87-0.07-1.72-0.3-2.57c-0.2-0.74,0-1.17,0.96-1.27c1.64-0.18,3.29-0.49,4.92-0.58
		c1.61-0.09,3.17-0.46,4.76-0.58c0.24-0.02,0.7,0.17,0.65-0.35c-0.04-0.42-0.34-0.46-0.74-0.45c-3.2,0.1-6.34,0.64-9.48,1.17
		c-0.37,0.06-0.92,0.46-1.02-0.18c-0.09-0.56-0.25-1.38,0.79-1.43c1.57-0.08,3.14-0.17,4.71-0.26c1.92-0.11,3.84-0.22,5.86-0.34
		c-0.47-0.56-1-0.7-1.62-0.7c-2.64,0.01-5.27-0.04-7.88,0.53c-0.41,0.09-0.85-0.03-1.29,0.08c-0.56,0.14-0.81-0.15-0.74-0.73
		c0.04-0.33,0.09-0.67,0.11-1c0.02-0.4,0.21-0.48,0.59-0.46c2.75,0.18,5.49,0.34,8.24,0.5c0.69,0.04,1.37,0.05,2.3,0.08
		c-0.67-0.52-1.22-0.63-1.82-0.71c-2.69-0.37-5.39-0.43-8.09-0.49c-1.32-0.03-1.34-0.06-1.17-1.39c0.21-1.59-0.23-3.19,0.07-4.79
		c0.28-1.51,0.28-3.09,1.29-4.38c0.14-0.18,0.11-0.35,0.11-0.55c0.03-1.63-0.44-3.19-0.61-4.79c-0.13-1.13,0-2.29,0.01-3.63
		c0.86,1.23,1.42,2.39,1.68,3.67c0.14,0.71,0.6,1.33,0.57,2.1c-0.01,0.29,0.22,0.7,0.62,0.66c0.33-0.04,0.43-0.34,0.39-0.7
		c-0.02-0.21,0.11-0.44,0.17-0.66c0.06-0.06,0.13-0.11,0.19-0.17c0.1,0.02,0.31,0.16,0.23-0.09c-0.8-2.63-1.17-5.43-3.11-7.6
		c-0.42-0.47-0.1-0.96,0.02-1.4c0.09-0.35,0.36-0.06,0.54,0.05c1.07,0.62,1.85,1.59,2.77,2.37c1.36,1.16,2.63,2.45,3.91,3.7
		c0.29,0.28,0.56,0.42,0.97,0.37c2.12-0.24,4.24-0.51,6.32-0.98c3.19-0.72,6.4-1.36,9.61-1.95c1.11-0.2,2.22-0.35,3.33-0.52
		c0.94-0.15,1.57-0.85,2.01-1.53c1.93-3,4.43-5.41,7.18-7.62c0.13-0.1,0.23-0.24,0.35-0.35c0.11-0.11,0.24-0.21,0.47-0.26
		c-0.35,0.87-0.63,1.75-0.81,2.66c-0.39,1.92-1.13,3.77-1.07,5.78c0.01,0.32,0.15,0.57,0.17,0.87c0.02,0.27-0.1,0.76,0.28,0.73
		c0.33-0.02,0.78-0.19,0.88-0.68c0.32-1.43,0.84-2.81,1.12-4.25c0.28-1.42,1-2.65,1.81-3.83c0.58,0.37,0.61,0.9,0.76,1.37
		c0.66,2.05,1.45,4.06,1.85,6.21c0.33,1.82,0.44,3.66,0.49,5.48c0.04,1.46,0.73,2.68,1.03,4.02c0.25,1.08,0.76,2.12,1.35,3.09
		c0.31,0.5,0.17,0.69-0.45,0.84c-3.09,0.74-6.26,1.19-9.24,2.27c-2.58,0.94-5.21,1.77-7.66,3.05c-0.61,0.32-1.28,0.52-1.9,0.83
		c-0.38,0.19-0.63,0.49,0.02,0.7c-0.02,0.5,0.42,0.68,0.69,0.97c-0.01,0.2-0.25,0.42,0.05,0.6C85.96,97.61,88.73,95.91,92.59,95.89z
		 M76.85,99.69c1.08,0.12,2-0.57,1.85-1.22c-0.13-0.58-0.04-0.92,0.42-1.29c0.41-0.33,0.39-0.83,0.1-1.27
		c-0.31-0.46-0.72-0.56-1.21-0.26c-0.78,0.48-1.64,0.74-2.54,0.84c-0.48,0.05-0.92,0.21-1.26,0.56c-0.34,0.37-0.55,0.92-0.1,1.2
		C75.06,98.86,76.11,99.31,76.85,99.69z M69.56,91.18c-0.17,0.14-0.47,0.16-0.61,0.54c-0.25,0.63,0.14,2.34,0.71,2.83
		c0.49,0.42,0.85,0.47,1.28-0.15C71.63,93.42,70.93,91.54,69.56,91.18z M82.63,89.79c-0.51,0.06-1,0.12-0.96,0.71
		c0.04,0.59,0.13,1.2,0.3,1.76c0.23,0.76,0.98,0.96,1.58,0.55c0.89-0.6,0.16-1.39,0.25-2.07C83.9,90,82.81,90.37,82.63,89.79z
		 M84.84,97.32c-0.23-0.31-0.35-0.57-0.72-0.43C84.23,97.2,84.39,97.35,84.84,97.32z"/>
	<path class="st6" d="M47.16,64.86c3.42-4.31,7.38-7.64,11.91-10.36c2.43-1.46,4.84-2.93,7.45-4.03c2.92-1.23,5.92-2.24,9.01-2.98
		c1.81-0.43,3.59-1,5.4-1.47c2.17-0.57,4.39-0.78,6.61-0.99c3.16-0.3,6.33-0.12,9.45,0.48c2.72,0.53,5.33,1.36,7.77,2.75
		c0.97,0.56,2.03,1,3.04,1.52c3.47,1.79,5.58,4.86,7.42,8.11c1.75,3.09,3.19,6.33,4.49,9.65c0.87,2.24,1.98,4.38,2.71,6.67
		c0.91,2.9,1.6,5.84,1.65,8.91c0.09,5.35-0.78,10.54-2.69,15.55c-0.42,1.09-1.1,2.04-1.71,3.04c-0.12,0.2-0.27,0.33-0.52,0.42
		c-0.95,0.34-1.85,0.78-2.69,1.34c-0.46,0.3-0.62,0.25-0.71-0.4c-0.58-4.22-0.7-8.49-1.26-12.72c-0.72-5.4-1.57-10.77-2.45-16.15
		c-0.81-4.94-1.18-9.93-1.38-14.93c-0.02-0.57-0.08-1.14-0.19-1.69c-0.3-1.49-0.93-1.92-2.43-1.71c-1.35,0.2-2.76,0.08-4.06,0.34
		c-5.7,1.15-11.53,1.09-17.25,2.03c-4.07,0.67-8.2,1.04-12.28,1.74c-5.94,1.02-11.89,2.05-17.83,3.07
		C53.53,63.59,50.52,64.48,47.16,64.86z"/>
	<path class="st7" d="M53.42,118.49c-1.37-0.52-2.98-0.43-4.3-1.35c-1.07-0.74-1.42-3.26-0.57-4.19c0.18-0.19,0.38-0.1,0.55-0.03
		c2.27,0.85,4.65,0.97,7.04,1.17c2.2,0.18,4.4,0.5,6.61,0.6c3.35,0.16,6.7,0.38,10.06,0.16c3.57-0.23,7.17-0.21,10.74-0.46
		c2.75-0.19,5.46-0.8,8.19-1.24c4.33-0.71,8.54-1.9,12.78-2.94c4.7-1.15,8.99-3.26,13.25-5.47c0.88-0.46,1.81-0.82,2.71-1.24
		c0.24-0.11,0.53-0.23,0.66-0.43c0.18-0.26,0.37-0.59,0.65-0.5c0.19,0.06,0.31,0.46,0.38,0.73c0.54,2.2-0.6,4.41-2.45,5.72
		c-2.76,1.96-5.92,2.9-9.03,3.96c-2.59,0.88-5.06,2.09-7.74,2.73c-5.04,1.2-10.08,2.33-15.27,2.64c-4.19,0.25-8.37,0.75-12.58,0.77
		c-3.36,0.01-6.73-0.22-10.09-0.11c-3.76,0.12-7.49-0.2-11.23-0.49C53.69,118.51,53.59,118.51,53.42,118.49z"/>
	<path class="st2" d="M31.01,249.21c0.88,0.36,1.66,0.92,2.6,1.2c2.68,0.81,5.39,0.99,8.08,0.35c1.1-0.26,2.27-0.67,3.22-1.43
		c0.39-0.31,0.65-0.25,0.73,0.3c0.05,0.36,0.2,0.7,0.26,1.06c0.1,0.53,0.09,0.93-0.49,1.32c-0.98,0.66-1.61,1.73-2.53,2.51
		c-1.59,1.36-3.3,1.39-5.2,1.07c-2.94-0.49-4.91-2.36-6.74-4.48c-0.32-0.37-0.45-0.82-0.58-1.26
		C30.14,249.15,30.2,249.09,31.01,249.21z"/>
	<path class="st5" d="M85.31,96.94c-0.28-0.29-0.71-0.47-0.69-0.97c1.36-0.15,2.54-0.83,3.79-1.29c2.45-0.9,4.8-2.04,7.33-2.79
		c2.31-0.68,4.66-1.15,6.98-1.79c0.47-0.13,0.98-0.15,1.47-0.22c0.21-0.03,0.35-0.04,0.45,0.23c0.37,0.97,0.78,1.92,1.19,2.87
		c0.19,0.43,0.06,0.61-0.4,0.65c-2.25,0.19-4.5,0.39-6.74,0.59c-4.1,0.35-8.18,0.88-12.12,2.13C86.13,96.47,85.73,96.73,85.31,96.94
		z"/>
	<path class="st2" d="M31.09,228.53c0.85,0.89,1.57,1.71,2.51,2.28c1.64,0.99,3.29,1.87,5.22,2.27c1.25,0.26,2.5,0.54,3.76,0.79
		c1.37,0.27,1.78,1.81,0.97,2.95c-0.62,0.87-1.48,1.04-2.38,1.07c-2.23,0.08-3.98-1.16-5.7-2.33c-1.71-1.16-2.94-2.8-4.02-4.56
		C30.79,229.93,30.77,229.94,31.09,228.53z"/>
	<path class="st5" d="M131.62,192.28c-0.28,1.17-0.36,2.28-0.84,3.17c-0.29,0.55-1.19,0.77-1.82,1.14
		c-3.55,2.07-7.46,3.14-11.42,4.06c-0.65,0.15-1.32,0.19-1.97,0.33c-1.75,0.36-1.92,0.28-2.58-1.25
		C119.24,197.54,125.85,196.26,131.62,192.28z"/>
	<path class="st2" d="M30.01,237.72c1.48,2.08,3.42,3.26,5.59,3.94c2.27,0.71,4.65,0.95,7.02,0.31c0.38-0.1,0.78-0.15,1.16-0.28
		c0.22-0.07,0.43-0.26,0.62-0.01c0.15,0.2,0.1,0.44-0.04,0.66c-1.07,1.62-2.32,3-4.41,3.17c-2.42,0.2-4.55-0.54-6.5-2
		c-1.1-0.82-2.21-1.58-3.16-2.58C29.37,239.96,29.62,238.98,30.01,237.72z"/>
	<path class="st2" d="M35.55,267.81c1.8,0.45,3.6,0.22,5.34,0.58c3.2,0.67,6.85-1.36,8.08-4.47c0.23-0.58,0.63-1.08,1.01-1.7
		c0.22,0.36,0.39,0.67,0.59,0.95c0.62,0.86,0.56,1.64,0.05,2.59c-1.36,2.55-3.35,4.32-6.03,5.34c-1.02,0.39-2.04,0.12-3.05-0.12
		c-1.64-0.4-3.05-1.31-4.57-1.97C36.41,268.76,35.72,268.73,35.55,267.81z"/>
	<path class="st5" d="M75.44,209.39c1.69,0.31,3.16,0.37,4.61,0.28c3.07-0.2,6.15,0.06,9.21-0.46c2.36-0.41,4.74-0.67,6.93-1.75
		c0.39-0.19,0.66-0.1,0.57,0.43c-0.1,0.56-0.1,1.16-0.31,1.68c-0.26,0.64-0.98,0.37-1.49,0.51c-4.61,1.25-9.31,1.61-14.08,1.44
		c-1.15-0.04-2.26-0.27-3.39-0.39C76.54,211.03,76.08,210.29,75.44,209.39z"/>
	<path class="st5" d="M45.33,247.72c-0.98-0.28-1.68,0.31-2.32,0.74c-1.09,0.74-2.3,0.93-3.51,1.03c-2.23,0.18-4.38-0.23-6.41-1.24
		c-1.11-0.55-2.13-1.2-2.96-2.14c-0.76-0.87-0.19-1.91-0.44-2.89c0.97,1.05,2.23,1.62,3.33,2.38c2.22,1.53,4.71,2.02,7.43,1.57
		c1.76-0.29,3.02-1.2,4.17-2.59C45.12,245.58,45.07,246.63,45.33,247.72z"/>
	<path class="st5" d="M47.31,256.51c0.45,0.38,0.19,0.71,0.04,1.01c-0.84,1.8-1.86,3.47-3.48,4.68c-1.12,0.84-2.55,1-3.81,0.96
		c-2.29-0.07-4.6-0.52-6.44-2.07c-0.63-0.54-1.39-1.06-1.83-2.17c2.87,1.08,5.51,1.99,8.41,1.48
		C43.03,259.91,45.4,258.62,47.31,256.51z"/>
	<path class="st5" d="M32.33,222.56c0.68,0.43,0.83,1.18,1.28,1.69c1.26,1.43,2.72,2.65,4.08,3.97c1.07,1.04,2.49,1.55,3.9,1.91
		c0.73,0.18,1.34-0.52,1.87-1.2c0.32,0.93,0.14,1.76,0.17,2.57c0.01,0.36-0.17,0.42-0.51,0.38c-3.08-0.38-6.03-1.17-8.81-2.58
		c-1.02-0.52-1.66-1.43-2.4-2.24c-0.95-1.03-0.08-2.09-0.01-3.13C31.93,223.49,32.16,223.07,32.33,222.56z"/>
	<path class="st5" d="M30.5,232.36c0.88,1.59,1.81,2.83,3.02,3.83c2.23,1.81,4.52,3.52,7.58,3.51c1.19,0,2-0.82,2.72-1.7
		c0.66,1.3,0.57,1.7-0.71,2.22c-1.21,0.49-2.43,0.97-3.83,0.68c-1.45-0.3-2.93-0.31-4.3-1.07c-1.28-0.71-2.35-1.59-3.31-2.65
		c-0.43-0.48-0.63-1.22-1.43-1.31c-0.21-0.02-0.15-0.19-0.14-0.3C30.16,234.58,30.2,233.6,30.5,232.36z"/>
	<path class="st5" d="M33.27,263.48c6.8,2.78,12.05,2.32,15.06-4.51c0.28,0.02,0.22,0.3,0.3,0.45c0.36,0.6,0.71,1.16-0.21,1.69
		c-0.89,0.51-0.83,1.61-1.12,2.45c-0.4,1.18-1.54,2.47-2.79,2.68c-2.73,0.47-5.43,0.36-8.12-0.3c-0.07-0.02-0.13-0.02-0.2-0.04
		C34.12,265.46,34.12,265.46,33.27,263.48z"/>
	<path class="st2" d="M33.43,218.59c1.11,2.17,2.87,3.35,4.7,4.47c0.9,0.55,1.9,0.78,2.84,1.19c0.86,0.38,1.6,0.91,2.39,1.39
		c0.77,0.47,0.43,1.2,0.29,1.77c-0.12,0.49-2.02,0.78-2.61,0.54c-1.82-0.74-3.12-2.14-4.49-3.45c-1.23-1.19-2.27-2.53-3.09-4.04
		C33.16,219.91,33.04,219.42,33.43,218.59z"/>
	<path class="st5" d="M44.1,221.05c0.2,0.92-0.11,1.72-0.17,2.55c-0.03,0.44-0.29,0.42-0.64,0.24c-2.48-1.22-4.98-2.39-7.04-4.3
		c-0.78-0.72-1.16-1.8-2.18-2.3c-0.21-0.1-0.02-0.43,0.05-0.65c0.24-0.76,0.49-1.52,0.78-2.43c1.09,1.67,2.4,3.02,3.71,4.38
		c1.24,1.29,2.66,2.33,4.41,2.84C43.41,221.49,43.87,221.68,44.1,221.05z"/>
	<path class="st2" d="M130.08,197.92c-0.1,0.61-0.18,1.1-0.26,1.6c-0.11,0.71-0.14,1.49-1.25,1.1c-0.23-0.08-0.45,0.11-0.63,0.25
		c-1.62,1.22-3.54,1.71-5.44,2.25c-1.5,0.43-3.04,0.74-4.45,1.48c-0.86,0.45-2.36-0.34-2.56-1.27c-0.09-0.42,0.23-0.42,0.48-0.47
		c0.75-0.14,1.51-0.23,2.25-0.41c2.89-0.7,5.77-1.42,8.48-2.73C127.81,199.18,128.91,198.64,130.08,197.92z"/>
	<path class="st2" d="M50.05,160.28c-1.17-1.48-2.98-1.99-4.4-3.04c-1.47-1.09-2.91-2.24-4.55-3.07c-0.35-0.18-0.3-0.38-0.2-0.64
		c0.13-0.34,0.24-0.69,0.4-1.03c0.23-0.49,0.42-0.75,0.98-0.2c1.58,1.57,3.57,2.7,5.69,2.99c1.56,0.22,1.45,0.97,1.58,1.96
		C49.68,158.27,49.88,159.27,50.05,160.28z"/>
	<path class="st5" d="M129.18,202.29c-0.26,1.07-0.39,2.01-0.74,2.85c-0.39,0.93-1.43,0.98-2.26,1.24
		c-0.92,0.29-1.91,0.39-2.82,0.67c-0.93,0.29-1.88,0.25-2.79,0.54c-1.57,0.5-2.13,0.18-2.78-1.59c2.1,0.13,3.94-0.65,5.78-1.45
		C125.35,203.8,127.39,203.7,129.18,202.29z"/>
	<path class="st2" d="M80,213.43c5.38,0.52,10.62-0.13,15.78-1.66c0.03,1.56-0.41,2.07-1.83,2.34c-3.85,0.76-7.75,0.77-11.64,0.84
		C81.27,214.98,80.83,213.92,80,213.43z"/>
	<path class="st4" d="M47.66,138.86c0.17,0.5,0.73,9.07,0.65,10.02c-0.79-0.4-1.44-0.96-2.15-1.43c-0.55-0.37-0.97-1.01-1.8-0.91
		c-0.35,0.04-0.51-0.29-0.35-0.65c1.06-2.4,2.15-4.79,3.56-7C47.58,138.88,47.63,138.87,47.66,138.86z"/>
	<path class="st2" d="M36.64,210.47c0.79,1.81,2.1,3.06,3.57,4.15c0.59,0.44,1.1,0.97,1.66,1.44c0.81,0.67,1.67,1.21,2.65,1.53
		c0.57,0.19,0.61,0.52,0.36,0.9c-0.34,0.49-0.04,1.35-0.53,1.54c-0.52,0.2-0.89-0.57-1.39-0.83c-2.35-1.18-4.13-3.05-5.8-5
		C35.83,212.66,35.75,211.74,36.64,210.47z"/>
	<path class="st5" d="M31.22,254.6c6.46,5.02,10.86,3.97,14.99-1.38c0.43,0.6,0.55,1.06,0.05,1.75c-1.76,2.44-4.18,3.72-7.09,3.87
		c-2.17,0.1-4.27-0.44-6.28-1.42C31.66,256.82,31.18,256,31.22,254.6z"/>
	<path class="st2" d="M57.59,184.96c1.04,2.93,2.62,5.53,3.95,8.25c0.11,0.22,0.39,0.51-0.03,0.64c-0.43,0.13-0.72,0.83-1.3,0.36
		c-2.31-1.86-3.62-4.26-3.74-7.25C56.43,186.14,56.77,185.47,57.59,184.96z"/>
	<path class="st5" d="M43.35,147.68c1.17,0.6,2.04,1.54,3.09,2.24c0.63,0.42,1.16,1.02,1.96,1.13c0.2,0.03,0.35,0.14,0.34,0.29
		c-0.06,0.9,0.46,1.74,0.22,2.68c-2-0.88-4-1.68-5.75-3.03c-0.72-0.56-0.92-1.02-0.48-1.81C42.99,148.73,43.14,148.22,43.35,147.68z
		"/>
	<path class="st5" d="M50.75,204.4c-0.73-0.6-1.42-1.12-2.06-1.69c-1.52-1.37-2.73-2.91-3.11-5.01c-0.21-1.16,0.19-1.98,1.08-2.73
		c0.4,2.51,1.8,4.45,3.24,6.37c0.27,0.37,0.52,0.79,1.02,0.93c0.23,0.07,0.33,0.25,0.29,0.46c-0.05,0.26-0.62,0.73,0.27,0.53
		c0.05-0.01,0.03,0.21-0.07,0.33C51.18,203.84,50.98,204.11,50.75,204.4z"/>
	<path class="st2" d="M52.94,201.86c-2.16-2.75-4.88-5.1-4.18-9.27c1.01,1.78,1.81,3.37,2.95,4.74c0.67,0.81,1.4,1.55,2.27,2.08
		c0.83,0.5,0.46,0.87,0.01,1.25C53.58,201.01,53.07,201.23,52.94,201.86z"/>
	<path class="st2" d="M43.86,198.22c0.62,2.27,1.88,4.05,3.71,5.43c0.73,0.55,1.25,1.38,2.22,1.61c0.16,0.04,0.32,0.2,0.21,0.38
		c-0.35,0.6-0.7,1.2-1.09,1.78c-0.15,0.22-0.37,0.06-0.52-0.07c-1.72-1.49-3.29-3.17-4.16-5.27
		C43.76,200.92,43.63,199.53,43.86,198.22z"/>
	<path class="st2" d="M46.87,211.64c-0.5,1.78-0.71,1.9-1.97,0.67c-1.77-1.72-3.47-3.52-4.8-5.61c-0.36-0.57-0.49-1.23-0.61-1.88
		c-0.04-0.21,0.01-0.49,0.27-0.6c0.26-0.11,0.38,0.08,0.44,0.28c0.67,2.18,2.52,3.38,4.04,4.84c0.7,0.68,1.34,1.5,2.42,1.7
		C46.95,211.09,47,211.42,46.87,211.64z"/>
	<path class="st5" d="M38.17,207.1c1.37,2.71,3.4,4.85,5.6,6.85c0.45,0.41,0.89,1.08,1.7,0.6c0.1-0.06,0.31-0.01,0.29,0.16
		c-0.05,0.39-0.08,0.81-0.25,1.15c-0.11,0.22-0.46,0.05-0.64-0.07c-1.04-0.67-2.07-1.34-3.08-2.05c-1.56-1.11-2.93-2.36-3.8-4.15
		C37.36,208.28,37.25,208.07,38.17,207.1z"/>
	<path class="st5" d="M53.71,188.63c0.03-0.16,0.04-0.33,0.08-0.49c0.08-0.33,0.36-0.55,0.63-0.56c0.36-0.01,0.3,0.39,0.33,0.62
		c0.46,2.81,1.77,5.13,3.94,6.96c0.18,0.15,0.33,0.29,0.14,0.47c-0.28,0.28-0.6,0.53-0.93,0.76c-0.58,0.42-0.65-0.29-0.86-0.48
		c-1.83-1.72-3.18-3.7-3.36-6.32C53.68,189.27,53.76,188.95,53.71,188.63z"/>
	<path class="st1" d="M52.04,189.79c0.11,3.19,1.68,5.6,3.72,7.78c0.22,0.24,0.65,0.35,0.17,0.84c-0.38,0.39-0.64,0.4-0.99,0.11
		c-0.83-0.67-1.55-1.44-2.23-2.26c-0.98-1.2-1.47-2.63-1.97-4.05C50.25,190.82,50.31,190.8,52.04,189.79z"/>
	<path class="st1" d="M39.01,272.05c2.36,1.43,5.12,1.68,7.76,0.01c1.78-1.12,3.26-2.5,4.24-4.38c0.11-0.2,0.24-0.43,0.42-0.54
		c0.32-0.19,0.43-1.04,0.9-0.58c0.38,0.37,0.7,1.24,0.24,1.69c-1.33,1.29-2.4,2.85-4.06,3.81c-1.69,0.97-3.51,1.31-5.38,1.53
		c-0.3,0.04-0.6,0.09-0.89,0.14C40.72,273.99,39.89,273.58,39.01,272.05z"/>
	<path class="st2" d="M104.27,34.01c-0.92-0.18-1.89-1.9-1.68-2.97c0.17-0.83,1.16-1.52,2.03-1.4c1.04,0.14,2.31,2.2,2.09,3.41
		C106.61,33.59,105.13,34.18,104.27,34.01z"/>
	<path class="st1" d="M48.18,162.29c-0.67,0.3-1.03-0.15-1.52-0.51c-1.47-1.07-3.02-2.04-4.52-3.07c-0.63-0.43-1.2-0.96-1.87-1.32
		c-0.68-0.37-0.39-0.88-0.19-1.23c0.3-0.53,0.62,0.01,0.88,0.17c2.11,1.26,3.91,2.97,6.12,4.1
		C47.59,160.69,48.02,161.56,48.18,162.29z"/>
	<path class="st1" d="M41.96,200.37c0.54,3.54,2.38,6.02,4.68,8.23c0.24,0.23,0.47,0.48,0.83,0.52c0.47,0.06,0.27,0.3,0.18,0.57
		c-0.11,0.31-0.24,0.51-0.55,0.25c-2.58-2.13-5.32-4.13-5.92-7.77c-0.06-0.39,0.16-0.54,0.3-0.78
		C41.62,201.14,41.72,200.87,41.96,200.37z"/>
	<path class="st1" d="M94.33,215.9c-0.16,0.47-0.4,0.75-0.85,0.84c-2.3,0.46-4.65,0.57-6.95,1.05c-0.84,0.18-1.45-0.88-2.23-1.29
		C87.67,216.43,90.98,216.2,94.33,215.9z"/>
	<path class="st2" d="M53.55,270.74c-1.23,3.61-6.16,6.03-9.27,4.67c1.71-0.44,3.38-0.86,5.03-1.31
		C51.11,273.6,51.84,271.69,53.55,270.74z"/>
	<path class="st2" d="M120.44,209.07c2.42-0.38,4.88-0.04,7.12-1.4c-0.01,0.66-0.13,1.08-0.82,1.28c-1.04,0.31-2.07,0.7-3.06,1.14
		C121.87,210.9,121.56,210.83,120.44,209.07z"/>
	<path class="st2" d="M102.08,42.45c-1.2-0.09-2.12-0.87-3.17-1.31c-0.28-0.12-0.6-0.44-0.22-0.8c0.33-0.31,0.34-1.14,1.12-0.77
		c1.05,0.5,2.08,1.03,3.18,1.43c0.68,0.25,0.24,0.8,0.24,1.22c0,0.5-0.36,0.37-0.65,0.32C102.41,42.51,102.25,42.48,102.08,42.45z"
		/>
	<path class="st2" d="M103.65,39.01c-1.04-0.42-1.99-0.77-2.89-1.32c0.41-0.51,0.82-0.96,1.15-1.46c0.29-0.46,0.49-0.54,1.02-0.26
		C104.34,36.71,104.41,36.84,103.65,39.01z"/>
	<path class="st2" d="M44.2,162.6c-3.36-0.52-5.14-1.27-4.86-3.3C40.93,160.38,42.47,161.42,44.2,162.6z"/>
	<path class="st1" d="M126.7,210.41c-0.5,0.74-0.83,1.2-1.12,1.68c-0.13,0.21-0.23,0.39-0.53,0.3c-0.52-0.16-1.32,0-1.42-0.63
		c-0.08-0.46,0.7-0.43,1.09-0.63C125.25,210.86,125.84,210.71,126.7,210.41z"/>
	<path class="st2" d="M99.1,43.66c-0.9-0.15-1.79-0.29-2.72-0.45c0.69-0.99,0.68-0.99,1.64-0.38c0.37,0.24,0.75,0.46,1.13,0.69
		C99.14,43.57,99.12,43.62,99.1,43.66z"/>
	<path class="st2" d="M91.84,218.67c-1,0.84-1.86,0.94-2.82,0.34C90.01,218.84,90.94,218.94,91.84,218.67z"/>
	<path class="st2" d="M103.5,94.26c-0.12,0.03-0.24,0.06-0.36,0.09C103.23,94.21,103.35,94.18,103.5,94.26z"/>
	<path class="st2" d="M97.03,95.06c-0.06,0.03-0.11,0.06-0.17,0.09C96.91,95.12,96.97,95.09,97.03,95.06z"/>
	<path class="st2" d="M87.64,98.32"/>
	<path class="st2" d="M100.77,94.66c-0.03,0.06-0.08,0.09-0.15,0.09C100.67,94.72,100.72,94.69,100.77,94.66z"/>
	<path class="st7" d="M61.17,82.82c-0.01-0.07-0.03-0.14-0.04-0.21c0.08,0.01,0.15,0.03,0.23,0.04
		C61.3,82.7,61.23,82.76,61.17,82.82z"/>
	<path class="st2" d="M104.67,94.24c-0.13,0.02-0.26,0.04-0.38,0.06C104.4,94.17,104.53,94.14,104.67,94.24z"/>
	<path class="st1" d="M103.09,94.36c-0.09,0.03-0.18,0.07-0.27,0.1C102.91,94.43,103,94.4,103.09,94.36z"/>
	<path class="st2" d="M101.75,94.56c-0.12,0.03-0.24,0.06-0.35,0.09C101.48,94.49,101.6,94.48,101.75,94.56z"/>
	<path class="st2" d="M91.33,96.17c-0.07,0.02-0.14,0.05-0.21,0.07C91.19,96.22,91.26,96.19,91.33,96.17z"/>
	<path class="st2" d="M91.76,96.04c-0.06,0.03-0.12,0.05-0.18,0.08C91.63,96.09,91.7,96.06,91.76,96.04z"/>
	<path class="st3" d="M72.78,158.9c-0.73-0.12-1.65-0.01-2.09-0.57c-1.07-1.37-2.43-2.51-2.36-4.63c0.07-2.33-0.42-4.68-0.64-7.02
		c-0.23-2.37-1.03-4.78-0.17-7.1c0.88-2.37,1.79-4.76,4.7-5.65c2.59-0.79,5.21-1.39,7.85-1.96c2.98-0.65,5.98-0.84,8.98-1.14
		c2.05-0.2,2.16,0.2,2.97,1.73c1.3,2.44,1.78,5.15,2.28,7.84c0.49,2.61,0.9,5.24,1.4,7.86c0.19,1,0.09,2.04,0.48,3.03
		c0.17,0.44-0.34,0.76-0.54,1.14c-1.46,2.81-3.73,4.55-6.88,5.04c-3.24,0.5-6.45,1.18-9.74,1.46
		C76.92,159.1,74.86,159.23,72.78,158.9z M73.02,156.23c1.55,0.23,3.1-0.04,4.65-0.04c4.23,0,8.36-0.54,12.38-1.88
		c0.12-0.04,0.36-0.02,0.33-0.13c-0.23-1.02,0.65-1.73,0.63-2.75c-0.08-4.78-1.36-9.34-2.41-13.93c-0.16-0.72-0.92-1.33-1.88-1.32
		c-1.1,0.01-2.18,0.22-3.26,0.42c-1.6,0.3-3.19,0.66-4.83,0.82c-2.01,0.2-4.03,0.31-6.01,0.74c-2.28,0.5-3.09,1.68-2.85,3.93
		c0.17,1.57,0.41,3.16,0.7,4.73c0.44,2.34,0.52,4.73,0.54,7.12C71.04,155.89,71.06,155.89,73.02,156.23z"/>
	<path class="st6" d="M120.7,147.26c-0.39,1.94-0.64,3.62-1.38,5.12c-1.02,2.06-2.94,3.33-5.19,2.38c-1.39-0.59-2.7-1.42-3.72-2.53
		c-1.58-1.71-3.29-3.29-4.97-4.89c-2.46-2.36-4.58-5.01-6.64-7.71c-0.63-0.82-1.26-1.64-1.9-2.45c-0.35-0.44-0.51-0.83,0.03-1.28
		c0.61-0.51,0.75,0.02,1.04,0.36c0.84,1,1.81,1.9,2.52,2.98c0.8,1.22,1.89,1.58,3.16,1.31c1.18-0.26,2.37-0.16,3.56-0.35
		c4.22-0.71,8.34-1.68,11.86-4.31c0.18-0.13,0.29-0.2,0.27-0.45c-0.23-2.56-0.5-5.11-1.13-7.61c-0.05-0.19-0.07-0.39-0.11-0.59
		c-0.1-0.48,0.08-0.92,0.5-1.04c0.51-0.15,0.71,0.31,0.87,0.74c0.93,2.5,1.08,5.15,1.31,7.75c0.24,2.65,0.49,5.32,0.32,7.99
		C120.98,144.31,120.81,145.93,120.7,147.26z M119.39,137.56c-5.06,3.11-10.63,3.92-16.36,4.6c0.83,1.12,2.05,1,3.01,1.15
		c4.63,0.73,8.89-0.44,12.86-2.83c0.41-0.24,0.69-0.48,0.59-1.11C119.42,138.84,119.4,138.27,119.39,137.56z M119.46,141.51
		c-3.87,3.48-8.55,3.79-13.64,3.51c0.96,0.79,1.43,1.81,2.77,1.72c2.84-0.2,5.67-0.52,8.3-1.59c2.77-1.12,2.42-0.25,2.54-3.37
		C119.44,141.69,119.45,141.59,119.46,141.51z M109.25,148.31c0.67,0.36,0.65,1.12,1.37,1.07c2.73-0.18,5.39-0.58,7.85-1.92
		c0.65-0.35,0.7-0.91,0.56-1.31c-0.17-0.47-0.7-0.07-1.01,0.07c-0.95,0.43-1.95,0.69-2.92,1.04
		C113.3,147.91,111.39,148.02,109.25,148.31z M118.22,149.2c-0.22,0.08-0.41,0.13-0.59,0.21c-1.45,0.63-2.91,1.23-4.52,1.32
		c-0.25,0.01-0.57-0.09-0.7,0.21c-0.04,0.09,0.1,0.32,0.22,0.42c0.24,0.19,0.53,0.31,0.82,0.09c0.35-0.27,0.72-0.34,1.17-0.4
		c1.21-0.15,2.42-0.41,3.47-1.11c0.22-0.14,0.36-0.3,0.32-0.57C118.39,149.32,118.29,149.27,118.22,149.2z"/>
	<path class="st3" d="M76.85,99.69c-0.74-0.38-1.79-0.83-2.74-1.44c-0.45-0.29-0.24-0.84,0.1-1.2c0.33-0.36,0.78-0.51,1.26-0.56
		c0.91-0.1,1.76-0.36,2.54-0.84c0.49-0.3,0.9-0.2,1.21,0.26c0.3,0.44,0.32,0.94-0.1,1.27c-0.46,0.37-0.56,0.7-0.42,1.29
		C78.85,99.12,77.93,99.81,76.85,99.69z"/>
	<path class="st3" d="M69.56,91.18c1.37,0.36,2.07,2.24,1.39,3.22c-0.44,0.63-0.79,0.58-1.28,0.15c-0.57-0.49-0.96-2.2-0.71-2.83
		C69.09,91.34,69.39,91.32,69.56,91.18z"/>
	<path class="st3" d="M82.63,89.79c0.18,0.58,1.27,0.21,1.17,0.96c-0.09,0.68,0.64,1.47-0.25,2.07c-0.59,0.4-1.34,0.2-1.58-0.55
		c-0.17-0.57-0.27-1.17-0.3-1.76C81.63,89.91,82.12,89.85,82.63,89.79z"/>
	<path class="st1" d="M101.11,95.07c0.02,0.01,0.04,0.03,0.06,0.04c-0.04,0.02-0.07,0.04-0.11,0.06c-0.01-0.02-0.03-0.05-0.02-0.07
		C101.06,95.08,101.09,95.08,101.11,95.07z"/>
	<path class="st7" d="M73.02,156.23c-1.96-0.34-1.98-0.34-2-2.29c-0.02-2.39-0.1-4.78-0.54-7.12c-0.29-1.57-0.53-3.16-0.7-4.73
		c-0.24-2.25,0.57-3.43,2.85-3.93c1.98-0.44,4-0.54,6.01-0.74c1.64-0.16,3.23-0.52,4.83-0.82c1.08-0.2,2.15-0.4,3.26-0.42
		c0.96-0.01,1.71,0.6,1.88,1.32c1.05,4.6,2.33,9.16,2.41,13.93c0.02,1.02-0.87,1.73-0.63,2.75c0.03,0.11-0.21,0.09-0.33,0.13
		c-4.02,1.34-8.15,1.88-12.38,1.88C76.12,156.19,74.57,156.46,73.02,156.23z M73.06,146.65c-0.26,1.86,0.65,3.5,2.02,3.66
		c1.51,0.17,4.21-1.78,4.4-3.17c0.17-1.22-1.63-3.01-3.28-3.27C75.28,143.72,73.21,145.55,73.06,146.65z M81.41,145.37
		c-0.01,0-0.01,0-0.02,0c-0.03,0.2-0.06,0.39-0.1,0.59c-0.11,0.64,0.13,1.04,0.71,1.38c0.53,0.31,0.85,0,1.23-0.2
		c0.61-0.32,0.7-0.95,0.81-1.52c0.13-0.65-0.78-2.13-1.29-2.06c-0.82,0.11-1.22,0.71-1.28,1.53
		C81.46,145.18,81.43,145.27,81.41,145.37z M88,145.18c0.22-1.4,0.18-1.38-0.16-2.12c-0.23-0.5-0.38-0.48-0.77-0.16
		c-0.75,0.63-1.13,2.7-0.55,3.48c0.19,0.26,0.49,0.34,0.81,0.32c0.34-0.02,0.45-0.26,0.51-0.53C87.91,145.85,87.94,145.51,88,145.18
		z"/>
	<path class="st5" d="M119.39,137.56c0.01,0.71,0.03,1.28,0.11,1.81c0.09,0.62-0.19,0.86-0.59,1.11c-3.97,2.39-8.24,3.56-12.86,2.83
		c-0.96-0.15-2.19-0.03-3.01-1.15C108.75,141.47,114.32,140.66,119.39,137.56z"/>
	<path class="st2" d="M119.46,141.51c-0.01,0.08-0.02,0.18-0.02,0.28c-0.12,3.12,0.23,2.25-2.54,3.37c-2.64,1.06-5.47,1.39-8.3,1.59
		c-1.34,0.09-1.81-0.93-2.77-1.72C110.91,145.3,115.59,144.99,119.46,141.51z"/>
	<path class="st1" d="M109.25,148.31c2.15-0.28,4.05-0.39,5.86-1.05c0.97-0.35,1.97-0.61,2.92-1.04c0.31-0.14,0.84-0.54,1.01-0.07
		c0.14,0.4,0.09,0.96-0.56,1.31c-2.46,1.33-5.12,1.73-7.85,1.92C109.9,149.42,109.91,148.67,109.25,148.31z"/>
	<path class="st2" d="M118.22,149.2c0.06,0.06,0.17,0.12,0.18,0.18c0.04,0.26-0.11,0.42-0.32,0.57c-1.05,0.7-2.26,0.95-3.47,1.11
		c-0.45,0.06-0.82,0.13-1.17,0.4c-0.29,0.22-0.58,0.11-0.82-0.09c-0.12-0.09-0.26-0.32-0.22-0.42c0.13-0.3,0.45-0.2,0.7-0.21
		c1.61-0.09,3.07-0.68,4.52-1.32C117.81,149.34,118,149.28,118.22,149.2z"/>
	<path class="st3" d="M73.06,146.65c0.15-1.1,2.22-2.94,3.15-2.79c1.64,0.26,3.44,2.06,3.28,3.27c-0.19,1.39-2.89,3.34-4.4,3.17
		C73.71,150.16,72.8,148.52,73.06,146.65z M75.06,146.91c0.04,0.22-0.3,0.63,0.19,0.86c0.3,0.13,0.68,0.32,0.94,0.11
		c0.29-0.22,0.26-0.64,0.22-1.01c-0.02-0.16-0.01-0.34-0.06-0.49c-0.07-0.22,0.02-0.61-0.35-0.57c-0.32,0.03-0.77-0.01-0.84,0.5
		C75.14,146.47,75.11,146.63,75.06,146.91z"/>
	<path class="st3" d="M81.41,145.37c0.02-0.1,0.05-0.19,0.06-0.29c0.07-0.82,0.47-1.42,1.28-1.53c0.51-0.07,1.42,1.41,1.29,2.06
		c-0.11,0.57-0.21,1.2-0.81,1.52c-0.38,0.2-0.7,0.51-1.23,0.2c-0.58-0.34-0.82-0.74-0.71-1.38c0.04-0.2,0.06-0.39,0.1-0.59
		C81.4,145.37,81.4,145.37,81.41,145.37z"/>
	<path class="st3" d="M88,145.18c-0.05,0.33-0.09,0.67-0.17,0.99c-0.06,0.26-0.18,0.51-0.51,0.53c-0.32,0.02-0.62-0.06-0.81-0.32
		c-0.57-0.78-0.2-2.85,0.55-3.48c0.39-0.33,0.54-0.35,0.77,0.16C88.18,143.81,88.22,143.79,88,145.18z"/>
	<path class="st2" d="M75.06,146.91c0.05-0.28,0.08-0.44,0.1-0.6c0.07-0.52,0.52-0.47,0.84-0.5c0.37-0.03,0.28,0.35,0.35,0.57
		c0.05,0.15,0.04,0.33,0.06,0.49c0.04,0.36,0.07,0.79-0.22,1.01c-0.27,0.21-0.65,0.02-0.94-0.11
		C74.77,147.54,75.11,147.13,75.06,146.91z"/>
	<path class="st3" d="M177.26,63.89"/>
	<path class="st3" d="M86.94,98.88c0,0,19.61-2.59,20.16-1.84C107.65,97.78,89.71,95.8,86.94,98.88z"/>
</g>
</svg>
